<svg width="35" height="35" viewBox="0 0 35 35" fill="none" xmlns="http://www.w3.org/2000/svg">
<path d="M34.5673 28.9215C34.5504 28.7038 34.452 28.4946 34.2905 28.3385L20.3384 14.5544C20.8874 13.2768 21.1771 11.8933 21.1771 10.4635C21.1771 7.66912 20.0739 5.03996 18.0773 3.06242C16.0777 1.0888 13.4184 0 10.5884 0C7.75704 0 5.10231 1.08917 3.09955 3.06401C-1.03264 7.14425 -1.03351 13.7808 3.09892 17.8607C5.10156 19.8397 7.75716 20.9296 10.587 20.9296C12.0347 20.9296 13.4316 20.641 14.7278 20.098L19.3113 24.6298C19.502 24.8158 19.7535 24.9145 20.0248 24.9058L22.5227 24.8192L22.4411 27.2932C22.4334 27.5541 22.5288 27.8081 22.7202 27.9939C22.9047 28.1796 23.1638 28.2805 23.4269 28.27L25.9339 28.1854L25.8439 30.6566C25.8361 30.9178 25.9376 31.1723 26.1221 31.3581C26.3128 31.5437 26.5349 31.6436 26.8356 31.6345L29.3365 31.5505L29.2527 34.0221C29.238 34.2962 29.3548 34.5599 29.5532 34.747C29.7362 34.9115 29.9646 35 30.2052 35C30.2398 35 30.2752 34.9985 30.3105 34.9955L34.1453 34.5747C34.6636 34.5188 35.0409 34.062 34.9964 33.5489L34.5673 28.9215ZM9.3092 9.20002C8.13131 10.3625 6.227 10.3625 5.05159 9.20002C3.87445 8.03717 3.87445 6.15615 5.05159 4.9944C6.227 3.83266 8.13069 3.83155 9.3092 4.99403C10.4847 6.15566 10.484 8.03791 9.3092 9.20002ZM31.2938 29.2371C31.1539 29.3754 30.9663 29.4444 30.7841 29.4444C30.6018 29.4444 30.4142 29.3752 30.2743 29.2371L18.4033 17.5055C18.7338 17.1534 19.0344 16.7828 19.3073 16.3931L31.2937 28.2329C31.5736 28.5094 31.5736 28.9606 31.2938 29.2371Z" fill="#00BBFF"/>
</svg>
