<svg width="18" height="18" viewBox="0 0 18 18" fill="none" xmlns="http://www.w3.org/2000/svg">
<path d="M9 0C4.02528 0 0 4.02564 0 9C0 13.9747 4.02564 18 9 18C13.9747 18 18 13.9744 18 9C18 4.02528 13.9744 0 9 0ZM9 16.5938C4.80259 16.5938 1.40625 13.1971 1.40625 9C1.40625 4.80259 4.80287 1.40625 9 1.40625C13.1974 1.40625 16.5938 4.80287 16.5938 9C16.5938 13.1974 13.1971 16.5938 9 16.5938Z" fill="#A19FA9"/>
<path d="M9 4.53083C8.61166 4.53083 8.29688 4.84562 8.29688 5.23396V9.76183C8.29688 10.1502 8.61166 10.465 9 10.465C9.38834 10.465 9.70312 10.1502 9.70312 9.76183V5.23396C9.70312 4.84562 9.38834 4.53083 9 4.53083Z" fill="#A19FA9"/>
<path d="M9 13.2244C9.52424 13.2244 9.94922 12.7994 9.94922 12.2752C9.94922 11.7509 9.52424 11.3259 9 11.3259C8.47576 11.3259 8.05078 11.7509 8.05078 12.2752C8.05078 12.7994 8.47576 13.2244 9 13.2244Z" fill="#A19FA9"/>
</svg>
