<?xml version="1.0" encoding="UTF-8" standalone="no"?>
<svg
   xmlns:dc="http://purl.org/dc/elements/1.1/"
   xmlns:cc="http://creativecommons.org/ns#"
   xmlns:rdf="http://www.w3.org/1999/02/22-rdf-syntax-ns#"
   xmlns:svg="http://www.w3.org/2000/svg"
   xmlns="http://www.w3.org/2000/svg"
   xmlns:sodipodi="http://sodipodi.sourceforge.net/DTD/sodipodi-0.dtd"
   xmlns:inkscape="http://www.inkscape.org/namespaces/inkscape"
   width="17"
   height="17"
   viewBox="0 0 17 17"
   fill="none"
   version="1.1"
   id="svg16"
   sodipodi:docname="binance.svg"
   inkscape:version="0.92.5 (2060ec1f9f, 2020-04-08)">
  <metadata
     id="metadata22">
    <rdf:RDF>
      <cc:Work
         rdf:about="">
        <dc:format>image/svg+xml</dc:format>
        <dc:type
           rdf:resource="http://purl.org/dc/dcmitype/StillImage" />
      </cc:Work>
    </rdf:RDF>
  </metadata>
  <defs
     id="defs20" />
  <sodipodi:namedview
     pagecolor="#ffffff"
     bordercolor="#666666"
     borderopacity="1"
     objecttolerance="10"
     gridtolerance="10"
     guidetolerance="10"
     inkscape:pageopacity="0"
     inkscape:pageshadow="2"
     inkscape:window-width="1920"
     inkscape:window-height="1016"
     id="namedview18"
     showgrid="false"
     inkscape:zoom="13.882353"
     inkscape:cx="8.5"
     inkscape:cy="8.5"
     inkscape:window-x="0"
     inkscape:window-y="27"
     inkscape:window-maximized="1"
     inkscape:current-layer="svg16" />
  <g
     opacity="0.4"
     id="g14">
    <path
       style="fill:#4d4d4d"
       d="M 8.3300781 0 C 3.7295481 0 0 3.7295481 0 8.3300781 C 0 12.930578 3.7295481 16.660156 8.3300781 16.660156 C 12.930578 16.660156 16.660156 12.930578 16.660156 8.3300781 C 16.660156 3.7295481 12.930578 0 8.3300781 0 z M 8.3320312 2.7773438 L 11.744141 6.1894531 L 10.490234 7.4453125 L 8.3320312 5.2871094 L 6.1738281 7.4433594 L 4.9199219 6.1894531 L 8.3320312 2.7773438 z M 8.3320312 7.0566406 L 9.6054688 8.3300781 L 8.3320312 9.5996094 L 7.0585938 8.328125 L 7.28125 8.1054688 L 7.390625 7.9980469 L 8.3320312 7.0566406 z M 4.03125 7.0761719 L 5.2871094 8.3300781 L 4.03125 9.5859375 L 2.7773438 8.3300781 L 4.03125 7.0761719 z M 12.628906 7.0761719 L 13.884766 8.3300781 L 12.628906 9.5859375 L 11.375 8.3300781 L 12.628906 7.0761719 z M 6.1738281 9.2167969 L 8.3320312 11.375 L 10.490234 9.2167969 L 11.746094 10.46875 L 8.3320312 13.882812 L 4.9199219 10.472656 L 6.1738281 9.2167969 z "
       id="path2" />
  </g>
</svg>
