<svg width="20" height="20" viewBox="0 0 20 20" fill="none" xmlns="http://www.w3.org/2000/svg">
<path fill-rule="evenodd" clip-rule="evenodd" d="M7.57913 19.7006C12.9369 21.0365 18.3628 17.7763 19.6984 12.4191C21.034 7.06168 17.774 1.63486 12.4166 0.299246C7.06038 -1.03637 1.6345 2.22423 0.299516 7.58198C-1.03672 12.9388 2.22356 18.365 7.57913 19.7006ZM12.2069 6.05231C13.5922 6.52949 14.6053 7.2448 14.4062 8.57541C14.2622 9.54946 13.7222 10.021 13.0053 10.1863C13.9897 10.6988 14.4906 11.4848 14.0134 12.8472C13.4213 14.5394 12.0144 14.6822 10.1435 14.3282L9.68942 16.1478L8.59224 15.8744L9.04037 14.0791C8.75599 14.0085 8.46537 13.9335 8.166 13.8522L7.71632 15.656L6.62039 15.3825L7.07445 13.5594C6.97203 13.5332 6.86896 13.5063 6.76516 13.4792L6.76477 13.4791C6.609 13.4385 6.45159 13.3975 6.29227 13.3576L4.86447 13.0016L5.40915 11.7457C5.40915 11.7457 6.21758 11.9607 6.20664 11.9448C6.51727 12.0216 6.65508 11.8191 6.70945 11.6841L7.94069 6.74637C7.95413 6.51325 7.87381 6.21919 7.42944 6.10825C7.44663 6.09669 6.63258 5.91013 6.63258 5.91013L6.92445 4.73826L8.43756 5.11607L8.43631 5.1217C8.66381 5.17826 8.89818 5.23201 9.13693 5.28638L9.58661 3.48453L10.6832 3.75796L10.2425 5.5245C10.5369 5.59169 10.8332 5.6595 11.1216 5.73138L11.5591 3.9764L12.6563 4.24983L12.2069 6.05231ZM8.73646 12.5875C9.63171 12.8239 11.5883 13.3407 11.8994 12.0907C12.2182 10.8126 10.3206 10.3868 9.39461 10.179L9.39445 10.179C9.29105 10.1558 9.19977 10.1353 9.12505 10.1166L8.52256 12.5319C8.5838 12.5471 8.65556 12.5661 8.73588 12.5873L8.73633 12.5874L8.73646 12.5875ZM12.2388 8.55572C11.9552 9.69184 10.3271 9.25735 9.58065 9.05815C9.51282 9.04005 9.45227 9.02389 9.40067 9.01103L9.94692 6.82043C10.0095 6.83604 10.0862 6.85301 10.1731 6.87225L10.1732 6.87226C10.946 7.04334 12.5284 7.39364 12.2388 8.55572Z" fill="#141029" fill-opacity="0.4"/>
</svg>
