<svg width="20" height="14" viewBox="0 0 20 14" fill="none" xmlns="http://www.w3.org/2000/svg">
<path fill-rule="evenodd" clip-rule="evenodd" d="M12.99 5V6.79C12.99 7.24 12.45 7.46 12.14 7.15L9.36 4.36C9.17 4.16 9.17 3.85 9.36 3.65L12.14 0.86C12.45 0.54 12.99 0.76 12.99 1.21V3H19C19.55 3 20 3.45 20 4C20 4.55 19.55 5 19 5H12.99ZM1 9H7.01V7.2C7.01 6.76 7.55 6.53 7.86 6.85L10.64 9.64C10.83 9.84 10.83 10.15 10.64 10.35L7.86 13.14C7.55 13.46 7.01 13.24 7.01 12.79V11H1C0.45 11 0 10.55 0 10C0 9.45 0.45 9 1 9Z" fill="#00BBFF"/>
</svg>
