<svg width="14" height="14" viewBox="0 0 14 14" fill="none" xmlns="http://www.w3.org/2000/svg">
<path fill-rule="evenodd" clip-rule="evenodd" d="M6 1C6 0.447716 6.44772 0 7 0C7.55228 0 8 0.447715 8 1V13C8 13.5523 7.55228 14 7 14C6.44772 14 6 13.5523 6 13V1ZM0 6C0 5.44772 0.447715 5 1 5C1.55228 5 2 5.44772 2 6V13C2 13.5523 1.55228 14 1 14C0.447715 14 0 13.5523 0 13V6ZM13 8C12.4477 8 12 8.44772 12 9V13C12 13.5523 12.4477 14 13 14C13.5523 14 14 13.5523 14 13V9C14 8.44772 13.5523 8 13 8Z" fill="#141029" fill-opacity="0.4"/>
</svg>
