<svg width="14" height="14" viewBox="0 0 14 14" fill="none" xmlns="http://www.w3.org/2000/svg">
<path fill-rule="evenodd" clip-rule="evenodd" d="M6 13C6 13.5523 6.44772 14 7 14C7.55228 14 8 13.5523 8 13V1C8 0.447716 7.55228 0 7 0C6.44772 0 6 0.447716 6 1V13ZM0 8C0 8.55228 0.447715 9 1 9C1.55228 9 2 8.55228 2 8V1C2 0.447715 1.55228 0 1 0C0.447715 0 0 0.447715 0 1V8ZM13 6C12.4477 6 12 5.55228 12 5V1C12 0.447716 12.4477 0 13 0C13.5523 0 14 0.447716 14 1V5C14 5.55228 13.5523 6 13 6Z" fill="#E0E0FF" fill-opacity="0.4"/>
</svg>
