<svg width="20" height="20" viewBox="0 0 20 20" fill="none" xmlns="http://www.w3.org/2000/svg">
<path d="M2.96875 9.375C3.44147 9.375 3.86932 9.18533 4.18549 8.88077L5.91995 9.74792C5.91125 9.81857 5.89844 9.888 5.89844 9.96094C5.89844 10.9302 6.68701 11.7188 7.65625 11.7188C8.62549 11.7188 9.41406 10.9302 9.41406 9.96094C9.41406 9.6904 9.34753 9.4371 9.23782 9.20792L11.5907 6.85501C11.8199 6.96472 12.0732 7.03125 12.3438 7.03125C13.313 7.03125 14.1016 6.24268 14.1016 5.27344C14.1016 5.09094 14.0657 4.91837 14.0138 4.75281L16.0582 3.21991C16.3371 3.40622 16.6714 3.51562 17.0312 3.51562C18.0005 3.51562 18.7891 2.72705 18.7891 1.75781C18.7891 0.788574 18.0005 0 17.0312 0C16.062 0 15.2734 0.788574 15.2734 1.75781C15.2734 1.94031 15.3093 2.11288 15.3612 2.27844L13.3168 3.81134C13.0379 3.62503 12.7036 3.51562 12.3438 3.51562C11.3745 3.51562 10.5859 4.3042 10.5859 5.27344C10.5859 5.54398 10.6525 5.79727 10.7622 6.02646L8.40927 8.37936C8.18008 8.26965 7.92679 8.20312 7.65625 8.20312C7.18353 8.20312 6.75568 8.39279 6.43951 8.69736L4.70505 7.8302C4.71375 7.75955 4.72656 7.69012 4.72656 7.61719C4.72656 6.64795 3.93799 5.85938 2.96875 5.85938C1.99951 5.85938 1.21094 6.64795 1.21094 7.61719C1.21094 8.58643 1.99951 9.375 2.96875 9.375Z" fill="#00BBFF"/>
<path d="M19.4141 18.9227H18.7891V7.53867C18.7891 7.241 18.5269 7 18.2031 7H15.8594C15.5356 7 15.2734 7.241 15.2734 7.53867V18.9227H14.1016V10.7707C14.1016 10.473 13.8394 10.232 13.5156 10.232H11.1719C10.8481 10.232 10.5859 10.473 10.5859 10.7707V18.9227H9.41406V15.0801C9.41406 14.7824 9.15192 14.5414 8.82812 14.5414H6.48438C6.16058 14.5414 5.89844 14.7824 5.89844 15.0801V18.9227H4.72656V12.9254C4.72656 12.6277 4.46442 12.3867 4.14062 12.3867H1.79688C1.47308 12.3867 1.21094 12.6277 1.21094 12.9254V18.9227H0.585938C0.262146 18.9227 0 19.1637 0 19.4613C0 19.759 0.262146 20 0.585938 20H19.4141C19.7379 20 20 19.759 20 19.4613C20 19.1637 19.7379 18.9227 19.4141 18.9227Z" fill="#00BBFF"/>
</svg>
