<svg width="14" height="14" viewBox="0 0 14 14" fill="none" xmlns="http://www.w3.org/2000/svg">
<path d="M12.8925 0.3025C12.5025 -0.0875 11.8725 -0.0875 11.4825 0.3025L6.5925 5.1825L1.7025 0.2925C1.3125 -0.0975 0.6825 -0.0975 0.2925 0.2925C-0.0975 0.6825 -0.0975 1.3125 0.2925 1.7025L5.1825 6.5925L0.2925 11.4825C-0.0975 11.8725 -0.0975 12.5025 0.2925 12.8925C0.6825 13.2825 1.3125 13.2825 1.7025 12.8925L6.5925 8.0025L11.4825 12.8925C11.8725 13.2825 12.5025 13.2825 12.8925 12.8925C13.2825 12.5025 13.2825 11.8725 12.8925 11.4825L8.0025 6.5925L12.8925 1.7025C13.2725 1.3225 13.2725 0.6825 12.8925 0.3025Z" fill="black" fill-opacity="0.1"/>
</svg>
