<svg width="20" height="20" viewBox="0 0 20 20" fill="none" xmlns="http://www.w3.org/2000/svg">
<path fill-rule="evenodd" clip-rule="evenodd" d="M10 20C15.5228 20 20 15.5228 20 10C20 4.47715 15.5228 0 10 0C4.47715 0 0 4.47715 0 10C0 15.5228 4.47715 20 10 20ZM16.526 7.368C16.5126 7.14391 16.4468 6.92608 16.334 6.732C16.234 6.532 16.056 6.376 15.848 6.296C15.6359 6.19029 15.4009 6.13875 15.164 6.146H6.288L5.652 8.052H13.694L12.424 11.948H4.384L3.748 13.854H12.666C12.9317 13.8463 13.1945 13.7957 13.444 13.704C13.4897 13.6781 13.5365 13.652 13.5841 13.6256C13.797 13.5075 14.0242 13.3815 14.222 13.218C14.4583 13.0317 14.6717 12.8183 14.858 12.582C15.012 12.3505 15.1432 12.1047 15.25 11.848L16.428 8.144C16.5352 7.90029 16.5692 7.6307 16.526 7.368ZM4.09 9.116H8.822L8.234 10.878H3.454L4.09 9.116Z" fill="#141029" fill-opacity="0.4"/>
</svg>
