<svg width="16" height="16" viewBox="0 0 16 16" fill="none" xmlns="http://www.w3.org/2000/svg">
<path fill-rule="evenodd" clip-rule="evenodd" d="M3.83333 0.5C3.3731 0.5 3 0.873096 3 1.33333V3H1.33333C0.873096 3 0.5 3.3731 0.5 3.83333V14.6667C0.5 15.1269 0.873096 15.5 1.33333 15.5H14.6667C15.1269 15.5 15.5 15.1269 15.5 14.6667V3.83333C15.5 3.3731 15.1269 3 14.6667 3H13V1.33333C13 0.873096 12.6269 0.5 12.1667 0.5C11.7064 0.5 11.3333 0.873096 11.3333 1.33333V3H4.66667V1.33333C4.66667 0.873096 4.29357 0.5 3.83333 0.5ZM3.83333 4.66667H12.1667H13.5333C13.699 4.66667 13.8333 4.80098 13.8333 4.96667V13.5333C13.8333 13.699 13.699 13.8333 13.5333 13.8333H2.46667C2.30098 13.8333 2.16667 13.699 2.16667 13.5333V4.96667C2.16667 4.80098 2.30098 4.66667 2.46667 4.66667H3.83333ZM6.33333 7.58333C6.33333 8.27369 5.77369 8.83333 5.08333 8.83333C4.39298 8.83333 3.83333 8.27369 3.83333 7.58333C3.83333 6.89298 4.39298 6.33333 5.08333 6.33333C5.77369 6.33333 6.33333 6.89298 6.33333 7.58333Z" fill="#A19FA9"/>
</svg>
