<svg width="20" height="14" viewBox="0 0 20 14" fill="none" xmlns="http://www.w3.org/2000/svg">
<path fill-rule="evenodd" clip-rule="evenodd" d="M12.99 5.00003V6.79003C12.99 7.24003 12.45 7.46003 12.14 7.15003L9.36 4.36003C9.17 4.16003 9.17 3.85003 9.36 3.65003L12.14 0.860031C12.45 0.540031 12.99 0.760031 12.99 1.21003V3.00003H19C19.55 3.00003 20 3.45003 20 4.00003C20 4.55003 19.55 5.00003 19 5.00003H12.99ZM1 9.00003H7.01V7.20003C7.01 6.76003 7.55 6.53003 7.86 6.85003L10.64 9.64003C10.83 9.84003 10.83 10.15 10.64 10.35L7.86 13.14C7.55 13.46 7.01 13.24 7.01 12.79V11H1C0.45 11 0 10.55 0 10C0 9.45003 0.45 9.00003 1 9.00003Z" fill="#00BBFF"/>
</svg>
