<svg width="18" height="18" viewBox="0 0 18 18" fill="none" xmlns="http://www.w3.org/2000/svg">
<path fill-rule="evenodd" clip-rule="evenodd" d="M18 9C18 4.02944 13.9706 0 9 0C4.02944 0 0 4.02944 0 9C0 13.9706 4.02944 18 9 18C13.9706 18 18 13.9706 18 9ZM2 9C2 5.13401 5.13401 2 9 2C12.866 2 16 5.13401 16 9C16 12.866 12.866 16 9 16C5.13401 16 2 12.866 2 9ZM8 6C8 5.44772 8.44771 5 9 5C9.55228 5 10 5.44772 10 6V9C10 9.00362 9.99998 9.00724 9.99994 9.01085L11.8426 10.8536C12.2332 11.2441 12.2332 11.8772 11.8426 12.2678C11.4521 12.6583 10.819 12.6583 10.4284 12.2678L8.30711 10.1464C8.14244 9.98178 8.0472 9.77397 8.0214 9.5594C8.00745 9.50864 8 9.45519 8 9.4V6Z" fill="#E0E0FF" fill-opacity="0.4"/>
</svg>
