<svg width="24" height="24" viewBox="0 0 24 24" fill="none" xmlns="http://www.w3.org/2000/svg">
<path d="M21.78 17.51C19.31 17.51 15.21 16.18 13.1 12.08C10.77 7.57001 12.6 3.60001 13.63 2.01001C8.26998 2.20001 3.97998 6.59001 3.97998 12C3.97998 12.14 3.99998 12.28 3.99998 12.42C4.60998 12.16 5.27998 12 5.97998 12C5.97998 8.91001 7.70998 6.23001 10.28 4.90001C9.77998 7.09001 9.73998 9.94001 11.32 13C12.89 16.04 15.5 17.95 18.12 18.86C16.89 19.6 15.47 20.01 13.99 20.01C13.49 20.01 12.99 19.96 12.51 19.87C12.14 20.57 11.57 21.14 10.87 21.51C11.85 21.83 12.9 22.01 13.98 22.01C17.48 22.01 20.56 20.21 22.35 17.49C22.18 17.5 21.98 17.51 21.78 17.51Z" fill="#141029" fill-opacity="0.4"/>
<path d="M9 16H8.82C8.4 14.84 7.3 14 6 14C4.34 14 3 15.34 3 17C3 18.66 4.34 20 6 20C6.62 20 8.49 20 9 20C10.1 20 11 19.1 11 18C11 16.9 10.1 16 9 16Z" fill="#141029" fill-opacity="0.4"/>
</svg>
