<svg width="18" height="12" viewBox="0 0 18 12" fill="none" xmlns="http://www.w3.org/2000/svg">
<path fill-rule="evenodd" clip-rule="evenodd" d="M1 0C0.447715 0 0 0.447715 0 1C0 1.55228 0.447715 2 1 2C1.55228 2 2 1.55228 2 1C2 0.447715 1.55228 0 1 0ZM5 0C4.44772 0 4 0.447715 4 1C4 1.55228 4.44772 2 5 2H17C17.5523 2 18 1.55228 18 1C18 0.447715 17.5523 0 17 0H5ZM5 5C4.44772 5 4 5.44772 4 6C4 6.55228 4.44772 7 5 7H17C17.5523 7 18 6.55228 18 6C18 5.44772 17.5523 5 17 5H5ZM4 11C4 10.4477 4.44772 10 5 10H17C17.5523 10 18 10.4477 18 11C18 11.5523 17.5523 12 17 12H5C4.44772 12 4 11.5523 4 11ZM0 6C0 5.44772 0.447715 5 1 5C1.55228 5 2 5.44772 2 6C2 6.55228 1.55228 7 1 7C0.447715 7 0 6.55228 0 6ZM1 10C0.447715 10 0 10.4477 0 11C0 11.5523 0.447715 12 1 12C1.55228 12 2 11.5523 2 11C2 10.4477 1.55228 10 1 10Z" fill="#A19FA9"/>
</svg>
