<svg width="25" height="24" viewBox="0 0 25 24" fill="none" xmlns="http://www.w3.org/2000/svg">
<g filter="url(#filter0_d)">
<path d="M12.5 23C18.299 23 23 18.299 23 12.5C23 6.70101 18.299 2 12.5 2C6.70101 2 2 6.70101 2 12.5C2 18.299 6.70101 23 12.5 23Z" fill="white"/>
</g>
<path d="M18.2188 11.815C18.2326 11.7974 18.2503 11.7834 18.2705 11.7741C18.2907 11.7647 18.3127 11.7604 18.3349 11.7613L18.3473 11.757C18.3704 11.7391 18.3942 11.7219 18.4184 11.7053C18.1852 10.5041 17.603 9.40085 16.7464 8.5367C14.3613 6.12401 10.4977 6.17766 8.11396 8.59035C5.73019 11.003 5.9687 15.0221 8.35247 17.4348C10.7362 19.8475 14.3626 19.6879 16.7464 17.2739C17.016 17.0009 17.2598 16.703 17.4747 16.3842C17.3965 16.2405 17.3291 16.0912 17.273 15.9373C17.1218 15.5166 17.0521 15.0704 17.0676 14.623C17.0271 14.3247 17.0423 14.0214 17.1124 13.7288C17.1169 13.7086 17.126 13.6898 17.1389 13.6738C17.1418 13.6604 17.1445 13.6469 17.1479 13.6338C17.1718 13.5476 17.2064 13.4649 17.251 13.3876C17.2743 13.2946 17.3063 13.2041 17.3464 13.1172C17.3951 12.9407 17.462 12.7699 17.5459 12.6076C17.5664 12.5671 17.5889 12.525 17.6135 12.482C17.6193 12.4537 17.6344 12.4283 17.6565 12.4099C17.7972 12.1803 17.9898 11.9437 18.2188 11.815ZM14.9162 15.4207C14.4246 15.9184 13.7982 16.2572 13.1162 16.3945C12.4342 16.5318 11.7273 16.4614 11.085 16.1921C10.4426 15.9227 9.89349 15.4667 9.50719 14.8815C9.12089 14.2963 8.9147 13.6084 8.9147 12.9046C8.9147 12.2009 9.12089 11.5129 9.50719 10.9278C9.89349 10.3426 10.4426 9.88652 11.085 9.6172C11.7273 9.34788 12.4342 9.27742 13.1162 9.41471C13.7982 9.55201 14.4246 9.8909 14.9162 10.3885C15.2427 10.719 15.5017 11.1112 15.6783 11.5429C15.855 11.9746 15.946 12.4373 15.946 12.9046C15.946 13.3719 15.855 13.8346 15.6783 14.2663C15.5017 14.698 15.2427 15.0903 14.9162 15.4207Z" fill="url(#paint0_linear)"/>
<path d="M18.9986 9.7514C19.1563 9.67466 19.3278 9.63109 19.5026 9.62333C19.6775 9.61557 19.852 9.64378 20.0158 9.70626C20.1795 9.76873 20.3291 9.86418 20.4553 9.98681C20.5816 10.1095 20.682 10.2567 20.7504 10.4198C20.8188 10.5828 20.8538 10.7582 20.8534 10.9353C20.8529 11.1124 20.8169 11.2876 20.7477 11.4502C20.6784 11.6129 20.5773 11.7596 20.4504 11.8816C20.3235 12.0036 20.1734 12.0982 20.0094 12.1598V12.1625C19.3208 12.455 18.742 12.9617 18.3568 13.6093C17.9717 14.2568 17.8001 15.0117 17.867 15.7645L15.3068 15.9791C15.1713 14.4046 15.6094 12.7794 16.6925 11.4729C17.3147 10.7212 18.1053 10.131 18.9986 9.7514Z" fill="url(#paint1_linear)"/>
<path d="M16.5621 11.0733L16.565 11.0693C16.566 11.068 16.5669 11.0667 16.5677 11.0653C16.7654 10.7813 17.0665 10.5885 17.4046 10.5292C17.7428 10.4699 18.0904 10.5491 18.371 10.7492C18.6515 10.9493 18.842 11.254 18.9006 11.5963C18.9591 11.9386 18.881 12.2904 18.6833 12.5743C18.2823 13.1191 18.1694 13.582 18.145 13.9154C18.1185 14.2883 18.1323 14.3103 18.1085 14.8634C18.0902 15.2904 17.9677 15.6581 17.8636 15.8545C17.5564 16.4327 16.3265 16.4209 15.558 15.6766C15.514 15.5895 15.4705 15.4987 15.4274 15.4041C15.3774 15.2943 15.3312 15.187 15.2888 15.0822C15.2864 15.0736 15.297 15.1203 15.2888 15.0822C15.2768 15.0256 15.2745 14.9674 15.2819 14.91C15.2856 14.8703 15.2856 14.8703 15.2922 14.7636C15.3065 14.5294 15.3142 14.2687 15.4048 13.8784C15.4236 13.7947 15.444 13.7038 15.4793 13.5713C15.5554 13.2881 15.6407 13.0459 15.7464 12.7457C15.7477 12.7454 16.1257 11.6098 16.5621 11.0733Z" fill="url(#paint2_linear)"/>
<path d="M6.76279 10.8164C6.54866 11.396 6.42164 12.0049 6.38594 12.6226C6.38329 12.6959 6.37985 12.7688 6.37667 12.8426C6.34156 14.3643 6.86268 15.8456 7.84011 17.0023C8.81753 18.1591 10.1825 18.91 11.6732 19.111C11.9647 19.122 12.6044 19.1899 13.2306 19.1067C13.9403 19.0126 14.6315 18.7629 14.7719 18.7143C14.9157 18.6553 15.0578 18.5906 15.1981 18.5201C15.5087 18.3493 15.9708 18.0419 16.2547 17.8415C16.3729 17.7584 16.5703 17.5832 16.7953 17.3555C17.2257 16.9169 17.5904 16.417 17.8779 15.8717C17.9558 15.6934 17.9895 15.4986 17.9762 15.3041C17.9279 14.6778 17.3584 14.1207 16.7751 14.0804C16.5386 14.0635 16.302 14.1127 16.0912 14.2227C15.8804 14.3327 15.7035 14.4992 15.58 14.7041C15.439 14.9048 15.2832 15.0943 15.1138 15.2711C14.959 15.432 14.2467 16.1533 13.4018 16.4245C11.9345 16.8963 10.4827 15.8821 10.2927 15.7456C9.53241 15.3172 6.76279 10.8164 6.76279 10.8164Z" fill="url(#paint3_linear)"/>
<path d="M18.4659 8.84912C19.1409 8.84912 19.6881 8.29527 19.6881 7.61206C19.6881 6.92885 19.1409 6.375 18.4659 6.375C17.7909 6.375 17.2437 6.92885 17.2437 7.61206C17.2437 8.29527 17.7909 8.84912 18.4659 8.84912Z" fill="url(#paint4_linear)"/>
<path d="M15.272 15.0612C15.2685 15.0662 15.2706 15.0255 15.2638 15.0343C14.5954 15.9495 13.6427 16.2682 13.4882 16.3175C13.4415 16.3323 12.9446 16.4785 12.4523 16.4785C11.7977 16.4815 11.1552 16.2995 10.5973 15.9529C10.0394 15.6064 9.58818 15.109 9.29444 14.517C9.00069 13.9249 8.87611 13.2615 8.93471 12.6017C8.99331 11.9418 9.23278 11.3116 9.62613 10.782C10.0195 10.2524 10.5511 9.8445 11.1611 9.6042C11.7712 9.36391 12.4354 9.30077 13.0789 9.42189C13.7225 9.54302 14.3199 9.84359 14.8038 10.2898C15.2877 10.736 15.6389 11.31 15.8179 11.9473C15.8213 11.9594 15.8873 12.2448 15.912 12.277C15.9385 12.2053 15.956 12.1697 15.9867 12.0994C16.0174 12.0291 16.0548 11.9116 16.0956 11.847C16.0955 11.8464 16.0955 11.8457 16.0956 11.8451L16.159 11.7024C16.159 11.7024 16.1555 11.6957 16.1205 11.5471C16.0914 11.4248 16.0893 11.4109 16.0885 11.4071C15.6994 9.10037 13.7095 7.34912 11.3212 7.36065C10.689 7.36374 10.0635 7.49285 9.48059 7.7406C8.89766 7.98835 8.36865 8.34989 7.92377 8.80457C7.47889 9.25925 7.12686 9.79818 6.88777 10.3906C6.64869 10.983 6.52723 11.6172 6.53033 12.2571C6.54385 15.1856 9.16242 17.1184 11.367 17.1066C13.5581 17.0948 14.9794 15.4281 15.197 15.1604" fill="url(#paint5_linear)"/>
<defs>
<filter id="filter0_d" x="0" y="0" width="25" height="25" filterUnits="userSpaceOnUse" color-interpolation-filters="sRGB">
<feFlood flood-opacity="0" result="BackgroundImageFix"/>
<feColorMatrix in="SourceAlpha" type="matrix" values="0 0 0 0 0 0 0 0 0 0 0 0 0 0 0 0 0 0 127 0"/>
<feOffset/>
<feGaussianBlur stdDeviation="1"/>
<feColorMatrix type="matrix" values="0 0 0 0 0 0 0 0 0 0 0 0 0 0 0 0 0 0 0.25 0"/>
<feBlend mode="normal" in2="BackgroundImageFix" result="effect1_dropShadow"/>
<feBlend mode="normal" in="SourceGraphic" in2="effect1_dropShadow" result="shape"/>
</filter>
<linearGradient id="paint0_linear" x1="18.5334" y1="12.9593" x2="6.44111" y2="12.9593" gradientUnits="userSpaceOnUse">
<stop offset="0.09" stop-color="#6DC1D6"/>
<stop offset="0.31" stop-color="#72C6D7"/>
<stop offset="0.61" stop-color="#589AC5"/>
<stop offset="1" stop-color="#3864AF"/>
</linearGradient>
<linearGradient id="paint1_linear" x1="17.7309" y1="16.4597" x2="18.9393" y2="9.57709" gradientUnits="userSpaceOnUse">
<stop offset="0.47" stop-color="#FFDF7F"/>
<stop offset="0.57" stop-color="#FFBE6B"/>
<stop offset="0.69" stop-color="#FF9E58"/>
<stop offset="0.8" stop-color="#FF884A"/>
<stop offset="0.91" stop-color="#FF7A42"/>
<stop offset="1" stop-color="#FF753F"/>
</linearGradient>
<linearGradient id="paint2_linear" x1="19.2076" y1="13.1176" x2="16.1207" y2="13.8117" gradientUnits="userSpaceOnUse">
<stop offset="0.01" stop-color="#E670A7"/>
<stop offset="0.12" stop-color="#CB65A2"/>
<stop offset="0.31" stop-color="#A2559B"/>
<stop offset="0.5" stop-color="#824895"/>
<stop offset="0.68" stop-color="#6C3F90"/>
<stop offset="0.85" stop-color="#5E3A8E"/>
<stop offset="1" stop-color="#59388D"/>
</linearGradient>
<linearGradient id="paint3_linear" x1="7.53662" y1="16.6817" x2="16.107" y2="11.7929" gradientUnits="userSpaceOnUse">
<stop stop-color="#15ADFF"/>
<stop offset="0.06" stop-color="#40A3D4"/>
<stop offset="0.13" stop-color="#6D99A7"/>
<stop offset="0.21" stop-color="#949080"/>
<stop offset="0.3" stop-color="#B5885F"/>
<stop offset="0.38" stop-color="#D08244"/>
<stop offset="0.48" stop-color="#E57D2F"/>
<stop offset="0.59" stop-color="#F47A20"/>
<stop offset="0.72" stop-color="#FC7818"/>
<stop offset="0.92" stop-color="#FF7715"/>
</linearGradient>
<linearGradient id="paint4_linear" x1="17.7639" y1="8.62488" x2="19.1907" y2="6.61542" gradientUnits="userSpaceOnUse">
<stop stop-color="#55398D"/>
<stop offset="1" stop-color="#C05B9D"/>
</linearGradient>
<linearGradient id="paint5_linear" x1="6.52743" y1="12.2334" x2="16.1567" y2="12.2331" gradientUnits="userSpaceOnUse">
<stop stop-color="#A3D6D9"/>
<stop offset="0.52" stop-color="#34A4DD"/>
<stop offset="0.56" stop-color="#349DD8"/>
<stop offset="0.74" stop-color="#367EC2"/>
<stop offset="0.89" stop-color="#386BB4"/>
<stop offset="1" stop-color="#3864AF"/>
</linearGradient>
</defs>
</svg>
