<svg width="15" height="14" viewBox="0 0 15 14" fill="none" xmlns="http://www.w3.org/2000/svg">
<path d="M12.2188 5.81496C12.2326 5.79739 12.2503 5.78338 12.2705 5.77406C12.2907 5.76473 12.3127 5.76037 12.3349 5.76132L12.3473 5.75702C12.3704 5.73905 12.3942 5.72189 12.4184 5.70526C12.1852 4.50415 11.603 3.40085 10.7464 2.5367C8.36132 0.124012 4.49773 0.177657 2.11396 2.59035C-0.269812 5.00304 -0.0313027 9.02214 2.35247 11.4348C4.73624 13.8475 8.36264 13.6879 10.7464 11.2739C11.016 11.0009 11.2598 10.703 11.4747 10.3842C11.3965 10.2405 11.3291 10.0912 11.273 9.93732C11.1218 9.51663 11.0521 9.0704 11.0676 8.62302C11.0271 8.32472 11.0423 8.02137 11.1124 7.72875C11.1169 7.7086 11.126 7.68978 11.1389 7.67377C11.1418 7.66036 11.1445 7.64694 11.1479 7.6338C11.1718 7.54761 11.2064 7.46487 11.251 7.38757C11.2743 7.29461 11.3063 7.20409 11.3464 7.1172C11.3951 6.94072 11.462 6.7699 11.5459 6.60757C11.5664 6.56707 11.5889 6.52495 11.6135 6.48204C11.6193 6.45372 11.6344 6.42826 11.6565 6.40989C11.7972 6.18028 11.9898 5.94371 12.2188 5.81496ZM8.91625 9.42072C8.42458 9.91835 7.79815 10.2572 7.11619 10.3945C6.43422 10.5318 5.72735 10.4614 5.08495 10.1921C4.44255 9.92273 3.89349 9.46666 3.50719 8.8815C3.12089 8.29635 2.9147 7.60839 2.9147 6.90463C2.9147 6.20087 3.12089 5.51291 3.50719 4.92775C3.89349 4.3426 4.44255 3.88652 5.08495 3.6172C5.72735 3.34788 6.43422 3.27742 7.11619 3.41471C7.79815 3.55201 8.42458 3.8909 8.91625 4.38854C9.24271 4.71895 9.50167 5.11122 9.67834 5.54293C9.85502 5.97464 9.94596 6.43735 9.94596 6.90463C9.94596 7.37191 9.85502 7.83462 9.67834 8.26633C9.50167 8.69804 9.24271 9.0903 8.91625 9.42072Z" fill="url(#paint0_linear)"/>
<path d="M12.9986 3.7514C13.1563 3.67466 13.3277 3.63109 13.5026 3.62333C13.6774 3.61557 13.852 3.64378 14.0157 3.70626C14.1795 3.76873 14.329 3.86418 14.4553 3.98681C14.5815 4.10945 14.6819 4.25674 14.7503 4.41976C14.8187 4.58278 14.8538 4.75815 14.8533 4.93527C14.8528 5.11239 14.8169 5.28758 14.7476 5.45023C14.6784 5.61289 14.5772 5.75963 14.4503 5.88159C14.3234 6.00356 14.1734 6.0982 14.0093 6.1598V6.16248C13.3207 6.45497 12.7419 6.96169 12.3568 7.60926C11.9716 8.25684 11.8001 9.01167 11.867 9.76449L9.3067 9.97907C9.17128 8.40458 9.60935 6.7794 10.6924 5.47287C11.3146 4.72121 12.1053 4.13098 12.9986 3.7514Z" fill="url(#paint1_linear)"/>
<path d="M10.5622 5.07333L10.5651 5.0693C10.5661 5.06803 10.567 5.06668 10.5678 5.06528C10.7655 4.78133 11.0665 4.58851 11.4047 4.52923C11.7429 4.46995 12.0905 4.54907 12.371 4.74918C12.6516 4.94929 12.8421 5.254 12.9006 5.59628C12.9592 5.93856 12.881 6.29037 12.6833 6.57432C12.2824 7.11909 12.1695 7.58204 12.1451 7.91545C12.1186 8.28828 12.1324 8.31028 12.1085 8.86336C12.0902 9.29037 11.9678 9.65811 11.8637 9.85445C11.5565 10.4327 10.3266 10.4209 9.55806 9.67662C9.51407 9.58954 9.47052 9.4987 9.42741 9.4041C9.37741 9.29431 9.33121 9.18702 9.28881 9.08223C9.28643 9.07365 9.29703 9.12032 9.28881 9.08223C9.27687 9.02564 9.27454 8.96741 9.28192 8.91003C9.28563 8.87033 9.28563 8.87033 9.29226 8.76358C9.30657 8.52942 9.31425 8.2687 9.40489 7.87843C9.4237 7.79475 9.44411 7.70382 9.47935 7.57131C9.55541 7.28807 9.64075 7.04586 9.74648 6.74572C9.74781 6.74545 10.1257 5.60978 10.5622 5.07333Z" fill="url(#paint2_linear)"/>
<path d="M0.762785 4.81641C0.548664 5.39603 0.421637 6.00488 0.38594 6.62264C0.38329 6.69587 0.379845 6.76882 0.376665 6.84259C0.341558 8.36429 0.862681 9.84556 1.84011 11.0023C2.81753 12.1591 4.18246 12.91 5.67317 13.111C5.96468 13.122 6.60441 13.1899 7.23063 13.1067C7.94033 13.0126 8.63148 12.7629 8.77193 12.7143C8.91575 12.6553 9.05779 12.5906 9.19807 12.5201C9.50866 12.3493 9.97084 12.0419 10.2547 11.8415C10.3729 11.7584 10.5703 11.5832 10.7953 11.3555C11.2257 10.9169 11.5904 10.417 11.8779 9.87166C11.9558 9.69339 11.9895 9.49856 11.9762 9.30409C11.9279 8.67779 11.3584 8.12068 10.7751 8.08045C10.5386 8.06352 10.302 8.11273 10.0912 8.22272C9.88041 8.3327 9.70355 8.49922 9.57995 8.70407C9.43901 8.90479 9.28318 9.09434 9.1138 9.2711C8.95903 9.43204 8.24668 10.1533 7.40183 10.4245C5.93447 10.8963 4.48274 9.88212 4.29273 9.74559C3.53241 9.31724 0.762785 4.81641 0.762785 4.81641Z" fill="url(#paint3_linear)"/>
<path d="M12.4659 2.84912C13.1409 2.84912 13.6881 2.29527 13.6881 1.61206C13.6881 0.92885 13.1409 0.375 12.4659 0.375C11.7909 0.375 11.2437 0.92885 11.2437 1.61206C11.2437 2.29527 11.7909 2.84912 12.4659 2.84912Z" fill="url(#paint4_linear)"/>
<path d="M9.27197 9.06115C9.26852 9.06625 9.27064 9.02548 9.26375 9.03433C8.5954 9.94951 7.64268 10.2682 7.48818 10.3175C7.44154 10.3323 6.94465 10.4785 6.45226 10.4785C5.79767 10.4815 5.15524 10.2995 4.59733 9.95292C4.03942 9.60637 3.58818 9.10904 3.29444 8.51696C3.00069 7.92487 2.87611 7.26153 2.93471 6.60165C2.99331 5.94177 3.23278 5.31156 3.62613 4.78198C4.01949 4.2524 4.55112 3.8445 5.16115 3.6042C5.77118 3.36391 6.43537 3.30077 7.07894 3.42189C7.72251 3.54302 8.31988 3.84359 8.80379 4.28978C9.28769 4.73596 9.63891 5.31002 9.81789 5.94732C9.82134 5.95939 9.88732 6.24478 9.91197 6.27697C9.93847 6.20535 9.95596 6.16967 9.9867 6.0994C10.0174 6.02912 10.0548 5.91164 10.0956 5.847C10.0955 5.84638 10.0955 5.84574 10.0956 5.84512L10.159 5.70243C10.159 5.70243 10.1555 5.69572 10.1205 5.54712C10.0914 5.42481 10.0893 5.41086 10.0885 5.40711C9.69943 3.10037 7.70947 1.34912 5.32119 1.36065C4.68896 1.36374 4.06352 1.49285 3.48059 1.7406C2.89766 1.98835 2.36865 2.34989 1.92377 2.80457C1.47889 3.25925 1.12686 3.79818 0.887773 4.39057C0.648686 4.98296 0.527227 5.61721 0.530331 6.25712C0.543847 9.18561 3.16242 11.1184 5.36704 11.1066C7.55815 11.0948 8.9794 9.42808 9.19697 9.16039" fill="url(#paint5_linear)"/>
<defs>
<linearGradient id="paint0_linear" x1="12.5334" y1="6.95928" x2="0.441108" y2="6.95928" gradientUnits="userSpaceOnUse">
<stop offset="0.09" stop-color="#6DC1D6"/>
<stop offset="0.31" stop-color="#72C6D7"/>
<stop offset="0.61" stop-color="#589AC5"/>
<stop offset="1" stop-color="#3864AF"/>
</linearGradient>
<linearGradient id="paint1_linear" x1="11.7308" y1="10.4597" x2="12.9392" y2="3.57709" gradientUnits="userSpaceOnUse">
<stop offset="0.47" stop-color="#FFDF7F"/>
<stop offset="0.57" stop-color="#FFBE6B"/>
<stop offset="0.69" stop-color="#FF9E58"/>
<stop offset="0.8" stop-color="#FF884A"/>
<stop offset="0.91" stop-color="#FF7A42"/>
<stop offset="1" stop-color="#FF753F"/>
</linearGradient>
<linearGradient id="paint2_linear" x1="13.2077" y1="7.11755" x2="10.1207" y2="7.81168" gradientUnits="userSpaceOnUse">
<stop offset="0.01" stop-color="#E670A7"/>
<stop offset="0.12" stop-color="#CB65A2"/>
<stop offset="0.31" stop-color="#A2559B"/>
<stop offset="0.5" stop-color="#824895"/>
<stop offset="0.68" stop-color="#6C3F90"/>
<stop offset="0.85" stop-color="#5E3A8E"/>
<stop offset="1" stop-color="#59388D"/>
</linearGradient>
<linearGradient id="paint3_linear" x1="1.53662" y1="10.6817" x2="10.107" y2="5.79294" gradientUnits="userSpaceOnUse">
<stop stop-color="#15ADFF"/>
<stop offset="0.06" stop-color="#40A3D4"/>
<stop offset="0.13" stop-color="#6D99A7"/>
<stop offset="0.21" stop-color="#949080"/>
<stop offset="0.3" stop-color="#B5885F"/>
<stop offset="0.38" stop-color="#D08244"/>
<stop offset="0.48" stop-color="#E57D2F"/>
<stop offset="0.59" stop-color="#F47A20"/>
<stop offset="0.72" stop-color="#FC7818"/>
<stop offset="0.92" stop-color="#FF7715"/>
</linearGradient>
<linearGradient id="paint4_linear" x1="11.7639" y1="2.62488" x2="13.1907" y2="0.615418" gradientUnits="userSpaceOnUse">
<stop stop-color="#55398D"/>
<stop offset="1" stop-color="#C05B9D"/>
</linearGradient>
<linearGradient id="paint5_linear" x1="0.527435" y1="6.23341" x2="10.1567" y2="6.23309" gradientUnits="userSpaceOnUse">
<stop stop-color="#A3D6D9"/>
<stop offset="0.52" stop-color="#34A4DD"/>
<stop offset="0.56" stop-color="#349DD8"/>
<stop offset="0.74" stop-color="#367EC2"/>
<stop offset="0.89" stop-color="#386BB4"/>
<stop offset="1" stop-color="#3864AF"/>
</linearGradient>
</defs>
</svg>
