<svg width="19" height="19" viewBox="0 0 19 19" fill="none" xmlns="http://www.w3.org/2000/svg">
<path d="M18.1361 9.06817H14.6815C14.2046 9.06817 13.8179 9.45488 13.8179 9.93181C13.8179 10.4087 14.2046 10.7954 14.6815 10.7954H18.1361C18.613 10.7954 18.9997 10.4087 18.9997 9.93181C18.9997 9.45488 18.6131 9.06817 18.1361 9.06817Z" fill="#00BBFF"/>
<path d="M4.3182 9.06817H0.86364C0.38671 9.06817 0 9.45488 0 9.93181C0 10.4087 0.38671 10.7954 0.86364 10.7954H4.3182C4.79513 10.7954 5.18184 10.4087 5.18184 9.93181C5.18184 9.45488 4.79513 9.06817 4.3182 9.06817Z" fill="#00BBFF"/>
<path d="M14.9961 3.21426L12.5533 5.65707C12.216 5.99426 12.216 6.5411 12.5533 6.87838C12.7218 7.04707 12.9429 7.13141 13.1639 7.13141C13.3849 7.13141 13.606 7.04716 13.7746 6.87838L16.2174 4.43557C16.5547 4.09838 16.5547 3.55154 16.2174 3.21426C15.8802 2.87698 15.3333 2.87698 14.9961 3.21426Z" fill="#00BBFF"/>
<path d="M9.50036 15.1136C9.02343 15.1136 8.63672 15.5004 8.63672 15.9773V17.7046C8.63672 18.1815 9.02343 18.5682 9.50036 18.5682C9.97729 18.5682 10.364 18.1815 10.364 17.7046V15.9773C10.364 15.5004 9.97729 15.1136 9.50036 15.1136Z" fill="#00BBFF"/>
<path d="M5.22547 12.9852L2.78275 15.428C2.44547 15.7653 2.44547 16.3121 2.78275 16.6494C2.95134 16.8179 3.17239 16.9023 3.39345 16.9023C3.6145 16.9023 3.83555 16.8179 4.00406 16.6494L6.44678 14.2065C6.78406 13.8693 6.78406 13.3225 6.44678 12.9852C6.10959 12.6479 5.56275 12.6479 5.22547 12.9852Z" fill="#00BBFF"/>
<path d="M9.50036 0.431763C9.02343 0.431763 8.63672 0.818473 8.63672 1.2954V4.74997C8.63672 5.2269 9.02343 5.61361 9.50036 5.61361C9.97729 5.61361 10.364 5.2269 10.364 4.74997V1.2954C10.364 0.818473 9.97729 0.431763 9.50036 0.431763Z" fill="#00BBFF"/>
<path d="M4.00357 3.21426C3.66638 2.87698 3.11954 2.87698 2.78226 3.21426C2.44498 3.55154 2.44498 4.09829 2.78226 4.43557L5.22498 6.87838C5.39357 7.04707 5.61463 7.13141 5.83568 7.13141C6.05665 7.13141 6.27779 7.04707 6.4463 6.87838C6.78358 6.54119 6.78358 5.99435 6.4463 5.65707L4.00357 3.21426Z" fill="#00BBFF"/>
</svg>
