<svg width="21" height="24" viewBox="0 0 21 24" fill="none" xmlns="http://www.w3.org/2000/svg">
<g id="swap">
<path id="Shape" fill-rule="evenodd" clip-rule="evenodd" d="M19.9789 5.40335C19.9913 5.43875 20.0037 5.47419 20.0111 5.51156C20.0243 5.57831 20.0317 5.64656 20.0317 5.71594C20.0317 5.78531 20.0243 5.85319 20.0111 5.91994C20.0038 5.95549 19.9922 5.98929 19.9806 6.02297C19.978 6.0305 19.9754 6.03802 19.9729 6.04556C19.9695 6.05517 19.9667 6.06499 19.964 6.07481C19.9605 6.0876 19.957 6.10038 19.9519 6.11269C19.9324 6.15844 19.9072 6.20119 19.8818 6.24356C19.8781 6.24993 19.8748 6.25656 19.8714 6.26321C19.8669 6.27223 19.8624 6.28127 19.857 6.28969C19.8191 6.34556 19.7764 6.39806 19.7288 6.44569L15.0439 11.1302C14.8425 11.3316 14.5789 11.4324 14.3149 11.4324C14.0509 11.4324 13.7872 11.3316 13.5859 11.1302C13.1831 10.7271 13.1831 10.0742 13.5859 9.67181L16.5105 6.74719H1.25025C0.680625 6.74719 0.219 6.28556 0.219 5.71594C0.219 5.14631 0.680625 4.68469 1.25025 4.68469H16.5105L13.5866 1.76044C13.1839 1.35731 13.1839 0.704438 13.5866 0.302062C13.9897 -0.100687 14.6423 -0.100687 15.045 0.302062L19.7288 4.98581C19.7764 5.03344 19.8191 5.08594 19.857 5.14181C19.8624 5.15023 19.8669 5.15927 19.8714 5.16829C19.8748 5.17494 19.8781 5.18157 19.8818 5.18794C19.9076 5.23069 19.9324 5.27306 19.9519 5.31881C19.9573 5.33135 19.9608 5.34439 19.9643 5.35742C19.9669 5.367 19.9695 5.37657 19.9729 5.38594C19.9749 5.39175 19.9769 5.39755 19.9789 5.40335ZM3.52125 16.9063H18.7815C19.3511 16.9063 19.8124 17.3683 19.8124 17.9379C19.8124 18.5076 19.3507 18.9692 18.7811 18.9692H3.52087L6.44475 21.8934C6.8475 22.2966 6.8475 22.9494 6.44475 23.3518C6.24337 23.5532 5.97975 23.6541 5.71575 23.6541C5.45175 23.6541 5.18813 23.5532 4.98675 23.3518L0.302625 18.6677C0.255 18.6201 0.21225 18.5676 0.174375 18.5117C0.169312 18.5037 0.16508 18.4952 0.160877 18.4867C0.157609 18.4802 0.154359 18.4737 0.15075 18.4674C0.124875 18.4243 0.099375 18.3812 0.079875 18.3347C0.0748278 18.3227 0.0714318 18.3102 0.0680333 18.2978C0.0653718 18.288 0.0627087 18.2782 0.05925 18.2687C0.0568468 18.2617 0.054401 18.2547 0.0519538 18.2476C0.0398903 18.2131 0.0277954 18.1784 0.020625 18.1419C0.007125 18.0752 0 18.0073 0 17.9379C0 17.8686 0.007125 17.8007 0.020625 17.7339C0.027757 17.6992 0.0391277 17.666 0.0504451 17.6331C0.0534094 17.6245 0.0563701 17.6158 0.05925 17.6072C0.0628131 17.5973 0.0656085 17.5873 0.0684003 17.5772C0.071779 17.565 0.0751524 17.5529 0.079875 17.5412C0.099 17.4943 0.124875 17.4512 0.15075 17.4084C0.154359 17.4022 0.157609 17.3957 0.160877 17.3891C0.16508 17.3807 0.169312 17.3722 0.174375 17.3642C0.21225 17.3083 0.255 17.2558 0.302625 17.2082L4.9875 12.5233C5.39062 12.1206 6.04313 12.1202 6.44588 12.5233C6.84863 12.9264 6.84863 13.5793 6.44588 13.9817L3.52125 16.9063Z" fill="#141029" fill-opacity="0.4"/>
</g>
</svg>
