<svg width="16" height="16" viewBox="0 0 16 16" fill="none" xmlns="http://www.w3.org/2000/svg">
<path fill-rule="evenodd" clip-rule="evenodd" d="M12.0705 1.47793C11.805 0.840679 11.0731 0.539332 10.4359 0.804854L3.61077 3.64866L3.61045 3.64787L1.83404 4.38368C1.14433 4.66937 0.658364 5.28644 0.531989 6.00709C0.511004 6.11271 0.5 6.22192 0.5 6.3337V13.8337C0.5 14.7542 1.24619 15.5004 2.16667 15.5004H13.8333C14.7538 15.5004 15.5 14.7542 15.5 13.8337V6.3337C15.5 5.41323 14.7538 4.66703 13.8333 4.66703H12.1667V1.9587C12.1667 1.79367 12.134 1.63027 12.0705 1.47793ZM10.5 4.66703H5.5L10.3615 2.64139C10.4274 2.61395 10.5 2.66234 10.5 2.7337V4.66703ZM3.41667 6.3337H11.3333H13.5333C13.699 6.3337 13.8333 6.46801 13.8333 6.6337V13.5337C13.8333 13.6994 13.699 13.8337 13.5333 13.8337H2.46667C2.30098 13.8337 2.16667 13.6994 2.16667 13.5337V6.6337C2.16667 6.46801 2.30098 6.3337 2.46667 6.3337H3.41667ZM11.3333 10.0837C11.3333 10.7741 10.7737 11.3337 10.0833 11.3337C9.39298 11.3337 8.83333 10.7741 8.83333 10.0837C8.83333 9.39334 9.39298 8.8337 10.0833 8.8337C10.7737 8.8337 11.3333 9.39334 11.3333 10.0837Z" fill="#141029" fill-opacity="0.4"/>
</svg>
