<svg width="17" height="17" viewBox="0 0 17 17" fill="none" xmlns="http://www.w3.org/2000/svg">
<path fill-rule="evenodd" clip-rule="evenodd" d="M6.98664 0C10.8453 0 13.9733 3.12802 13.9733 6.98664C13.9733 8.49557 13.4949 9.89277 12.6816 11.0349L15.7363 14.0896C16.1268 14.4801 16.1268 15.1132 15.7363 15.5038L15.5037 15.7363C15.1132 16.1268 14.48 16.1268 14.0895 15.7363L11.0348 12.6816C9.89273 13.4949 8.49554 13.9733 6.98664 13.9733C3.12802 13.9733 0 10.8453 0 6.98664C0 3.12802 3.12802 0 6.98664 0ZM6.98674 2.32888C4.41433 2.32888 2.32899 4.41423 2.32899 6.98664C2.32899 9.55905 4.41433 11.6444 6.98674 11.6444C9.55915 11.6444 11.6445 9.55905 11.6445 6.98664C11.6445 4.41423 9.55915 2.32888 6.98674 2.32888Z" fill="#A19FA9"/>
</svg>
