<svg width="48" height="48" viewBox="0 0 48 48" fill="none" xmlns="http://www.w3.org/2000/svg">
<path d="M24 48C37.2548 48 48 37.2548 48 24C48 10.7452 37.2548 0 24 0C10.7452 0 0 10.7452 0 24C0 37.2548 10.7452 48 24 48Z" fill="#2E3148"/>
<path d="M24.0002 37.926C31.6913 37.926 37.9261 31.6912 37.9261 24.0001C37.9261 16.309 31.6913 10.0741 24.0002 10.0741C16.3091 10.0741 10.0742 16.309 10.0742 24.0001C10.0742 31.6912 16.3091 37.926 24.0002 37.926Z" fill="#1B1E36"/>
<path d="M24.0492 3.06183C21.4586 3.06183 19.3579 12.4583 19.3579 24.0495C19.3579 35.6408 21.4586 45.0373 24.0492 45.0373C26.6399 45.0373 28.7406 35.6408 28.7406 24.0495C28.7406 12.4583 26.6399 3.06183 24.0492 3.06183ZM24.3731 43.8528C24.0769 44.2479 23.7806 43.9515 23.7806 43.9515C22.5875 42.5691 21.991 40.0009 21.991 40.0009C19.9042 33.2849 20.4009 18.8652 20.4009 18.8652C21.3816 7.41735 23.1657 4.71303 23.7728 4.11264C23.8348 4.05137 23.9164 4.01392 24.0033 4.0069C24.0902 3.99988 24.1767 4.02372 24.2478 4.07424C25.1287 4.69844 25.8675 7.30887 25.8675 7.30887C28.0492 15.4076 27.8516 23.0125 27.8516 23.0125C28.0492 29.6298 26.7584 37.0372 26.7584 37.0372C25.7648 42.6666 24.3731 43.8528 24.3731 43.8528Z" fill="#6F7390"/>
<path d="M42.2538 13.605C40.9639 11.357 31.7688 14.2113 21.7098 19.9794C11.6507 25.7474 4.55513 32.2461 5.84403 34.493C7.13293 36.74 16.329 33.8867 26.388 28.1186C36.4471 22.3506 43.5427 15.8519 42.2538 13.605ZM7.03405 34.1847C6.54022 34.1225 6.65177 33.7166 6.65177 33.7166C7.25753 31.9942 9.18521 30.1986 9.18521 30.1986C13.9743 25.0461 26.73 18.3013 26.73 18.3013C37.1468 13.4548 40.3823 13.6593 41.2031 13.8853C41.2874 13.9088 41.3606 13.9614 41.4098 14.0337C41.459 14.106 41.481 14.1934 41.4719 14.2804C41.3732 15.3556 39.4719 17.2948 39.4719 17.2948C33.5368 23.2198 26.8415 26.8336 26.8415 26.8336C21.2 30.2992 14.1325 32.8641 14.1325 32.8641C8.75475 34.802 7.03424 34.1847 7.03424 34.1847H7.03405Z" fill="#6F7390"/>
<path d="M42.2084 34.5679C43.5083 32.3259 36.4306 25.7975 26.4068 19.986C16.3831 14.1746 7.18917 11.285 5.89048 13.5308C4.59179 15.7766 11.6683 22.3012 21.6978 28.1126C31.7273 33.9241 40.9097 36.8139 42.2084 34.5679ZM6.75179 14.3971C6.55979 13.9419 6.9651 13.8323 6.9651 13.8323C8.75953 13.4934 11.2801 14.2656 11.2801 14.2656C18.1374 15.8271 30.3649 23.4864 30.3649 23.4864C39.7792 30.0741 41.2231 32.9758 41.4395 33.7995C41.4615 33.884 41.4529 33.9735 41.4153 34.0523C41.3777 34.1311 41.3135 34.1941 41.234 34.2301C40.2523 34.6796 37.6231 34.0099 37.6231 34.0099C29.5193 31.8371 23.0384 27.8559 23.0384 27.8559C17.2152 24.7152 11.4571 19.8826 11.4571 19.8826C7.08184 16.1987 6.75313 14.4021 6.75313 14.4021L6.75179 14.3971Z" fill="#6F7390"/>
<path d="M23.9999 26.4691C25.3635 26.4691 26.469 25.3637 26.469 24C26.469 22.6363 25.3635 21.5309 23.9999 21.5309C22.6362 21.5309 21.5308 22.6363 21.5308 24C21.5308 25.3637 22.6362 26.4691 23.9999 26.4691Z" fill="#B7B9C8"/>
<path d="M34.1235 15.9999C34.9145 15.9999 35.5557 15.3367 35.5557 14.5185C35.5557 13.7003 34.9145 13.037 34.1235 13.037C33.3326 13.037 32.6914 13.7003 32.6914 14.5185C32.6914 15.3367 33.3326 15.9999 34.1235 15.9999Z" fill="#B7B9C8"/>
<path d="M10.6172 21.0371C11.4081 21.0371 12.0493 20.3738 12.0493 19.5556C12.0493 18.7374 11.4081 18.0742 10.6172 18.0742C9.82624 18.0742 9.18506 18.7374 9.18506 19.5556C9.18506 20.3738 9.82624 21.0371 10.6172 21.0371Z" fill="#B7B9C8"/>
<path d="M21.0864 39.2099C21.8774 39.2099 22.5186 38.5466 22.5186 37.7284C22.5186 36.9102 21.8774 36.2469 21.0864 36.2469C20.2955 36.2469 19.6543 36.9102 19.6543 37.7284C19.6543 38.5466 20.2955 39.2099 21.0864 39.2099Z" fill="#B7B9C8"/>
</svg>
