<svg width="48" height="48" viewBox="0 0 48 48" fill="none" xmlns="http://www.w3.org/2000/svg">
<path d="M24 48C10.8 48 0 37.2 0 24C0 10.8 10.8 0 24 0C37.2 0 48 10.8 48 24C48 37.2 37.2 48 24 48Z" fill="black"/>
<path fill-rule="evenodd" clip-rule="evenodd" d="M32.796 15.6697C32.6791 15.5528 32.6206 15.4359 32.6206 15.2898C32.6206 15.1437 32.6791 15.0268 32.796 14.9099C33.0298 14.7053 33.3805 14.7053 33.6143 14.9099C33.7312 15.0268 33.7896 15.1437 33.7896 15.2898C33.7896 15.4359 33.7312 15.5528 33.6143 15.6697C33.4974 15.7574 33.3513 15.8159 33.2051 15.8159C33.059 15.8451 32.9129 15.7867 32.796 15.6697Z" fill="white"/>
<path fill-rule="evenodd" clip-rule="evenodd" d="M31.3639 17.1894C31.2762 17.0725 31.2178 16.9556 31.2178 16.8095C31.2178 16.6634 31.2762 16.5464 31.3639 16.4295C31.5685 16.225 31.9192 16.225 32.1238 16.4295C32.2115 16.5464 32.2699 16.6634 32.2699 16.8095C32.2699 16.9556 32.2115 17.0725 32.1238 17.1894C32.0069 17.2771 31.89 17.3355 31.7438 17.3355C31.5977 17.3355 31.4808 17.2771 31.3639 17.1894Z" fill="white"/>
<path fill-rule="evenodd" clip-rule="evenodd" d="M29.8151 18.68C29.7274 18.5923 29.6689 18.4462 29.6689 18.3001C29.6689 18.1539 29.7274 18.037 29.8151 17.9201C30.0197 17.7155 30.3704 17.7155 30.5749 17.9201C30.6626 18.0078 30.7211 18.1539 30.7211 18.3001C30.7211 18.4462 30.6626 18.5631 30.5749 18.68C30.458 18.7969 30.3411 18.8261 30.195 18.8261C30.0489 18.8261 29.9028 18.7677 29.8151 18.68Z" fill="white"/>
<path fill-rule="evenodd" clip-rule="evenodd" d="M28.3248 20.1706C28.2079 20.0829 28.1494 19.9368 28.1494 19.7906C28.1494 19.6445 28.2079 19.5276 28.3248 19.4107C28.5586 19.2061 28.9093 19.2061 29.1431 19.4107C29.26 19.4984 29.3185 19.6445 29.3185 19.7906C29.3185 19.9368 29.26 20.0829 29.1431 20.1706C29.0262 20.2875 28.8801 20.3167 28.7339 20.3167C28.5878 20.3167 28.4417 20.2875 28.3248 20.1706Z" fill="white"/>
<path fill-rule="evenodd" clip-rule="evenodd" d="M26.8927 21.6611C26.7758 21.5735 26.7466 21.4273 26.7466 21.2812C26.7466 21.1351 26.805 21.0182 26.8927 20.9013C27.0973 20.6967 27.448 20.6967 27.6526 20.9013C27.7695 20.9889 27.7987 21.1351 27.7987 21.2812C27.7987 21.4273 27.7403 21.5735 27.6526 21.6611C27.5649 21.778 27.4188 21.8073 27.2726 21.8073C27.1265 21.8365 26.9804 21.778 26.8927 21.6611Z" fill="white"/>
<path fill-rule="evenodd" clip-rule="evenodd" d="M25.1685 22.7718C25.1685 22.6256 25.2269 22.5087 25.3146 22.3918C25.5192 22.1873 25.8699 22.1873 26.0745 22.3918C26.1914 22.5087 26.2206 22.6256 26.2206 22.7718C26.2206 22.9179 26.1621 23.0348 26.0745 23.1517C25.9868 23.2394 25.8407 23.2978 25.6945 23.2978C25.5484 23.2978 25.4315 23.2394 25.3146 23.1517C25.2269 23.064 25.1685 22.9179 25.1685 22.7718Z" fill="white"/>
<path fill-rule="evenodd" clip-rule="evenodd" d="M22.3917 26.0738C22.3041 25.9861 22.2456 25.84 22.2456 25.6939C22.2456 25.5478 22.3041 25.4308 22.3917 25.3139C22.5963 25.1094 22.947 25.1094 23.1516 25.3139C23.2685 25.4308 23.2977 25.5478 23.2977 25.6939C23.2977 25.84 23.2393 25.9569 23.1516 26.0738C23.0639 26.1907 22.9178 26.2199 22.7717 26.2199C22.6255 26.2492 22.5086 26.1907 22.3917 26.0738Z" fill="white"/>
<path fill-rule="evenodd" clip-rule="evenodd" d="M20.8428 27.5644C20.7259 27.4767 20.6675 27.3306 20.6675 27.1845C20.6675 27.0383 20.7259 26.9214 20.8428 26.8045C21.0766 26.5999 21.4274 26.5999 21.6612 26.8045C21.7781 26.9214 21.8365 27.0383 21.8365 27.1845C21.8365 27.3306 21.7781 27.4475 21.6612 27.5644C21.5443 27.6813 21.3981 27.7105 21.252 27.7105C21.1059 27.7397 20.9597 27.6813 20.8428 27.5644Z" fill="white"/>
<path fill-rule="evenodd" clip-rule="evenodd" d="M19.4108 29.0841C19.3231 28.9964 19.2646 28.8502 19.2646 28.7041C19.2646 28.558 19.3231 28.4119 19.4108 28.3242C19.6154 28.1196 19.9661 28.1196 20.1707 28.3242C20.2583 28.4119 20.3168 28.558 20.3168 28.7041C20.3168 28.8502 20.2583 28.9672 20.1707 29.0841C20.0537 29.201 19.9368 29.2302 19.7907 29.2302C19.6446 29.2302 19.5277 29.1717 19.4108 29.0841Z" fill="white"/>
<path fill-rule="evenodd" clip-rule="evenodd" d="M17.9201 30.5746C17.8032 30.4869 17.7739 30.3408 17.7739 30.1947C17.7739 30.0486 17.8324 29.9317 17.9201 29.8148C18.1246 29.6102 18.4753 29.6102 18.6799 29.8148C18.7676 29.9317 18.8261 30.0486 18.8261 30.1947C18.8261 30.3408 18.7676 30.4869 18.6799 30.5746C18.563 30.6915 18.4461 30.7208 18.3 30.7208C18.1539 30.7208 18.0077 30.6915 17.9201 30.5746Z" fill="white"/>
<path fill-rule="evenodd" clip-rule="evenodd" d="M16.3712 32.0652C16.2543 31.9775 16.1958 31.8314 16.1958 31.6853C16.1958 31.5391 16.2543 31.4222 16.3712 31.3053C16.605 31.1007 16.9557 31.1007 17.1603 31.3053C17.2772 31.4222 17.3356 31.5391 17.3356 31.6853C17.3356 31.8314 17.2772 31.9775 17.1603 32.0652C17.0434 32.1529 16.8972 32.2113 16.7511 32.2113C16.605 32.2113 16.4588 32.1821 16.3712 32.0652Z" fill="white"/>
<path fill-rule="evenodd" clip-rule="evenodd" d="M14.9098 33.5558C14.7929 33.4389 14.7637 33.322 14.7637 33.1758C14.7637 33.0297 14.8221 32.9128 14.9098 32.7959C15.1144 32.5913 15.4651 32.5913 15.6697 32.7959C15.7866 32.9128 15.8158 33.0297 15.8158 33.1758C15.8158 33.322 15.7574 33.4389 15.6697 33.5558C15.582 33.6435 15.4359 33.7019 15.2897 33.7019C15.1728 33.7311 15.0267 33.6727 14.9098 33.5558Z" fill="white"/>
<path fill-rule="evenodd" clip-rule="evenodd" d="M15.6697 15.6697C15.7574 15.5528 15.8158 15.4359 15.8158 15.2898C15.8158 15.1437 15.7574 15.0268 15.6697 14.9099C15.4651 14.7053 15.1144 14.7053 14.9098 14.9099C14.7929 15.0268 14.7637 15.1437 14.7637 15.2898C14.7637 15.4359 14.8221 15.5528 14.9098 15.6697C14.9975 15.7574 15.1436 15.8159 15.2897 15.8159C15.4359 15.8451 15.582 15.7867 15.6697 15.6697Z" fill="white"/>
<path fill-rule="evenodd" clip-rule="evenodd" d="M17.1602 17.1894C17.2771 17.0725 17.3355 16.9556 17.3355 16.8095C17.3355 16.6634 17.2771 16.5464 17.1602 16.4295C16.9264 16.225 16.5757 16.225 16.3419 16.4295C16.225 16.5464 16.1665 16.6634 16.1665 16.8095C16.1665 16.9556 16.225 17.0725 16.3419 17.1894C16.4588 17.2771 16.6049 17.3355 16.751 17.3355C16.8972 17.3355 17.0433 17.2771 17.1602 17.1894Z" fill="white"/>
<path fill-rule="evenodd" clip-rule="evenodd" d="M18.6799 18.68C18.7676 18.5923 18.8261 18.4462 18.8261 18.3001C18.8261 18.1539 18.7676 18.037 18.6799 17.9201C18.4753 17.7155 18.1246 17.7155 17.9201 17.9201C17.8324 18.0078 17.7739 18.1539 17.7739 18.3001C17.7739 18.4462 17.8324 18.5631 17.9201 18.68C18.037 18.7969 18.1539 18.8261 18.3 18.8261C18.4169 18.8261 18.563 18.7677 18.6799 18.68Z" fill="white"/>
<path fill-rule="evenodd" clip-rule="evenodd" d="M20.1707 20.1706C20.2583 20.0829 20.3168 19.9368 20.3168 19.7906C20.3168 19.6445 20.2583 19.5276 20.1707 19.4107C19.9661 19.2061 19.6154 19.2061 19.4108 19.4107C19.3231 19.4984 19.2646 19.6445 19.2646 19.7906C19.2646 19.9368 19.3231 20.0829 19.4108 20.1706C19.5277 20.2875 19.6446 20.3167 19.7907 20.3167C19.9076 20.3167 20.0537 20.2875 20.1707 20.1706Z" fill="white"/>
<path fill-rule="evenodd" clip-rule="evenodd" d="M21.6319 21.6611C21.7488 21.5735 21.8073 21.4273 21.8073 21.2812C21.8073 21.1351 21.7488 21.0182 21.6319 20.9013C21.4274 20.6967 21.0474 20.6967 20.8428 20.9013C20.7259 20.9889 20.6675 21.1351 20.6675 21.2812C20.6675 21.4273 20.7259 21.5735 20.8428 21.6611C20.9597 21.778 21.1059 21.8073 21.252 21.8073C21.3981 21.8365 21.5443 21.778 21.6319 21.6611Z" fill="white"/>
<path fill-rule="evenodd" clip-rule="evenodd" d="M23.2977 22.7718C23.2977 22.6256 23.2393 22.5087 23.1516 22.3918C22.947 22.1873 22.5963 22.1873 22.3917 22.3918C22.2748 22.5087 22.2456 22.6256 22.2456 22.7718C22.2456 22.9179 22.3041 23.0348 22.3917 23.1517C22.4794 23.2394 22.6255 23.2978 22.7717 23.2978C22.9178 23.2978 23.0347 23.2394 23.1516 23.1517C23.2685 23.064 23.2977 22.9179 23.2977 22.7718Z" fill="white"/>
<path fill-rule="evenodd" clip-rule="evenodd" d="M24.6423 24.6714C24.7592 24.5545 24.7885 24.4376 24.7885 24.2914C24.7885 24.1453 24.73 24.0284 24.6423 23.9115C24.4377 23.7069 24.087 23.7069 23.8825 23.9115C23.7656 24.0284 23.7363 24.1453 23.7363 24.2914C23.7363 24.4376 23.7948 24.5545 23.8825 24.6714C23.9701 24.7591 24.1163 24.8175 24.2624 24.8175C24.4085 24.8175 24.5547 24.7591 24.6423 24.6714Z" fill="white"/>
<path fill-rule="evenodd" clip-rule="evenodd" d="M26.1329 26.0738C26.2498 25.9861 26.3083 25.84 26.3083 25.6939C26.3083 25.5478 26.2498 25.4308 26.1329 25.3139C25.8991 25.1094 25.5484 25.1094 25.3438 25.3139C25.2269 25.4308 25.1685 25.5478 25.1685 25.6939C25.1685 25.84 25.2269 25.9569 25.3438 26.0738C25.4607 26.1907 25.6068 26.2199 25.753 26.2199C25.8699 26.2492 26.016 26.1907 26.1329 26.0738Z" fill="white"/>
<path fill-rule="evenodd" clip-rule="evenodd" d="M27.6526 27.5644C27.7403 27.4767 27.7987 27.3306 27.7987 27.1845C27.7987 27.0383 27.7403 26.9214 27.6526 26.8045C27.448 26.5999 27.0973 26.5999 26.8927 26.8045C26.805 26.9214 26.7466 27.0383 26.7466 27.1845C26.7466 27.3306 26.805 27.4475 26.8927 27.5644C27.0096 27.6813 27.1265 27.7105 27.2726 27.7105C27.3896 27.7397 27.5357 27.6813 27.6526 27.5644Z" fill="white"/>
<path fill-rule="evenodd" clip-rule="evenodd" d="M29.1428 29.0841C29.2305 28.9964 29.2889 28.8502 29.2889 28.7041C29.2889 28.558 29.2305 28.4119 29.1428 28.3242C28.9382 28.1196 28.5875 28.1196 28.3829 28.3242C28.2953 28.4119 28.2368 28.558 28.2368 28.7041C28.2368 28.8502 28.2953 28.9672 28.3829 29.0841C28.4998 29.201 28.6168 29.2302 28.7629 29.2302C28.909 29.2302 29.0259 29.1717 29.1428 29.0841Z" fill="white"/>
<path fill-rule="evenodd" clip-rule="evenodd" d="M30.5457 30.5746C30.6626 30.4869 30.6918 30.3408 30.6918 30.1947C30.6918 30.0486 30.6333 29.9317 30.5457 29.8148C30.3411 29.6102 29.9904 29.6102 29.7858 29.8148C29.6981 29.9317 29.6396 30.0486 29.6396 30.1947C29.6396 30.3408 29.6981 30.4869 29.7858 30.5746C29.9027 30.6915 30.0196 30.7208 30.1657 30.7208C30.3118 30.7208 30.458 30.6915 30.5457 30.5746Z" fill="white"/>
<path fill-rule="evenodd" clip-rule="evenodd" d="M32.1238 32.0652C32.2407 31.9775 32.2699 31.8314 32.2699 31.6853C32.2699 31.5391 32.2115 31.4222 32.1238 31.3053C31.9192 31.1007 31.5685 31.1007 31.3639 31.3053C31.247 31.4222 31.2178 31.5391 31.2178 31.6853C31.2178 31.8314 31.2762 31.9775 31.3639 32.0652C31.4516 32.1529 31.5977 32.2113 31.7438 32.2113C31.89 32.2113 32.0361 32.1821 32.1238 32.0652Z" fill="white"/>
<path fill-rule="evenodd" clip-rule="evenodd" d="M33.6144 33.5558C33.7313 33.4389 33.7897 33.322 33.7897 33.1758C33.7897 33.0297 33.7313 32.9128 33.6144 32.7959C33.3806 32.5913 33.0298 32.5913 32.8253 32.7959C32.7084 32.9128 32.6499 33.0297 32.6499 33.1758C32.6499 33.322 32.7084 33.4389 32.8253 33.5558C32.9422 33.6435 33.0883 33.7019 33.2344 33.7019C33.3513 33.7311 33.4975 33.6727 33.6144 33.5558Z" fill="white"/>
<path fill-rule="evenodd" clip-rule="evenodd" d="M19.2061 16.079C20.7259 15.0853 22.3918 14.6177 24.233 14.5885C26.045 14.5885 27.7109 15.0853 29.2598 16.079L32.4747 12.8641C29.9613 10.9645 27.2433 10 24.233 10C21.2227 10 18.4755 10.9645 16.0205 12.8641L19.2061 16.079Z" fill="white"/>
<path fill-rule="evenodd" clip-rule="evenodd" d="M15.9913 29.2604C14.9684 27.7115 14.4716 26.0456 14.4716 24.2628C14.4716 22.4508 14.9684 20.7849 15.9913 19.2652L12.8057 16.0795C10.9352 18.5345 10 21.2525 10 24.292C10 27.2731 10.9352 30.0203 12.8349 32.5045L15.9913 29.2604Z" fill="white"/>
<path fill-rule="evenodd" clip-rule="evenodd" d="M29.2598 32.445C27.74 33.4679 26.0741 33.994 24.2621 34.0232C22.4209 34.0232 20.7258 33.5264 19.2061 32.4742L15.9912 35.6599C18.4754 37.5888 21.2226 38.5532 24.2621 38.524C27.2724 38.4948 29.9904 37.5303 32.4454 35.6599L29.2598 32.445Z" fill="white"/>
<path fill-rule="evenodd" clip-rule="evenodd" d="M32.3872 19.2355C33.4101 20.7844 33.9362 22.4795 33.907 24.3208C33.8777 26.1036 33.3809 27.7402 32.3872 29.2307L35.6021 32.4164C37.5017 29.9614 38.4662 27.2434 38.4662 24.2623C38.4954 21.2228 37.531 18.4756 35.6021 15.9914L32.3872 19.2355Z" fill="white"/>
<path fill-rule="evenodd" clip-rule="evenodd" d="M35.748 33.4393C36.9754 33.4393 37.9983 34.433 37.9983 35.6897C37.9983 36.9172 37.0047 37.9401 35.748 37.9401C34.5205 37.9401 33.4976 36.9464 33.4976 35.6897C33.4976 34.433 34.4912 33.4393 35.748 33.4393Z" fill="white"/>
<path fill-rule="evenodd" clip-rule="evenodd" d="M12.7763 33.4393C14.0038 33.4393 14.9975 34.433 14.9975 35.6897C14.9975 36.9172 14.0038 37.9401 12.7763 37.9401C11.5489 37.9401 10.5552 36.9464 10.5552 35.6897C10.5552 34.433 11.5489 33.4393 12.7763 33.4393Z" fill="white"/>
<path fill-rule="evenodd" clip-rule="evenodd" d="M35.7773 10.4963C37.0048 10.4963 37.9985 11.49 37.9985 12.7467C37.9985 14.0034 37.0048 14.9971 35.7773 14.9971C34.5498 14.9971 33.5562 14.0034 33.5562 12.7467C33.5562 11.49 34.5498 10.4963 35.7773 10.4963Z" fill="white"/>
<path fill-rule="evenodd" clip-rule="evenodd" d="M12.747 10.4963C13.9745 10.4963 14.9974 11.49 14.9974 12.7174C14.9974 13.9449 14.0037 14.9386 12.747 14.9386C11.5195 14.9386 10.4966 13.9449 10.4966 12.7174C10.4966 11.49 11.4903 10.4963 12.747 10.4963Z" fill="white"/>
</svg>
