<svg width="48" height="48" viewBox="0 0 48 48" fill="none" xmlns="http://www.w3.org/2000/svg">
<path d="M24 48C37.2548 48 48 37.2548 48 24C48 10.7452 37.2548 0 24 0C10.7452 0 0 10.7452 0 24C0 37.2548 10.7452 48 24 48Z" fill="#2A5ADA"/>
<path d="M24.5 8L21.6429 9.68807L13.8571 14.3119L11 16V32L13.8571 33.6881L21.7143 38.3119L24.5714 40L27.4286 38.3119L35.1429 33.6881L38 32V16L35.1429 14.3119L27.3571 9.68807L24.5 8V8ZM16.7143 28.6239V19.3761L24.5 14.7523L32.2857 19.3761V28.6239L24.5 33.2477L16.7143 28.6239Z" fill="white"/>
</svg>
