<svg width="48" height="48" viewBox="0 0 48 48" fill="none" xmlns="http://www.w3.org/2000/svg">
<path fill-rule="evenodd" clip-rule="evenodd" d="M48 24C48 10.7452 37.2548 0 24 0C10.7452 0 0 10.7452 0 24C0 37.2548 10.7452 48 24 48C37.2548 48 48 37.2548 48 24Z" fill="#04183D"/>
<path d="M24.5145 9L21.8623 13.4816L31.4366 30.1508L23.6694 38.9999C23.6694 38.9999 29.7745 38.9631 29.7382 38.9999C29.702 39.0367 37 30.6652 37 30.6652L24.5145 9ZM21.0317 15.1343L12 30.7389L19.1168 38.9999H21.7935L25.7065 34.3729H21.3587L17.5254 30.0413L23.6667 19.43L21.0317 15.1343Z" fill="white"/>
</svg>
