<svg width="48" height="49" viewBox="0 0 48 49" fill="none" xmlns="http://www.w3.org/2000/svg">
<path d="M47.9988 24.0002C47.9988 37.2547 37.2548 48.0003 23.9994 48.0003C10.744 48.0003 0 37.2547 0 24.0002C0 10.7457 10.7443 0 23.9994 0C37.2546 0 47.9988 10.7447 47.9988 24.0002Z" fill="white"/>
<path d="M23.9994 0C10.7487 0 -0.0144074 10.7609 0.00246121 23.9994C0.00578382 26.6481 0.428139 29.1959 1.22084 31.5791H8.40126V11.3895L23.9994 26.9875L39.5968 11.3895V31.5794H46.7787C47.5726 29.1964 47.9927 26.6486 47.9975 23.9998C48.0201 10.7475 37.2515 0.00319481 23.9994 0.00319481V0Z" fill="#F26822"/>
<path d="M20.4121 30.5731L13.605 23.7656V36.47H8.40067L3.48975 36.4709C7.70216 43.3819 15.315 48.0049 23.9992 48.0049C32.6835 48.0049 40.2967 43.3809 44.5099 36.4699H34.3919V23.7656L27.5844 30.5731L23.9985 34.1591L20.4124 30.5731H20.4121Z" fill="#4D4D4D"/>
</svg>
