<svg width="50" height="50" viewBox="0 0 50 50" fill="none" xmlns="http://www.w3.org/2000/svg">
<g filter="url(#filter0_d)">
<path d="M25 49C38.2548 49 49 38.2548 49 25C49 11.7452 38.2548 1 25 1C11.7452 1 1 11.7452 1 25C1 38.2548 11.7452 49 25 49Z" fill="white"/>
</g>
<path d="M16.7273 37.1011C17.7356 38.2498 18.962 39.1869 20.3353 39.8579C21.7086 40.5289 23.2014 40.9206 24.7273 41.0102C26.5503 40.9134 28.2702 40.1346 29.5455 38.8284C32.061 36.6739 34.702 34.6704 37.4545 32.8284L39 32.192C39.6364 31.9193 40.7273 31.283 41.7273 30.1011C42.8182 28.6466 43 27.1011 43 26.5557C42.8791 24.8354 42.3154 23.1756 41.3636 21.7375C38.8799 26.1631 35.3204 29.891 31.0142 32.5764C26.7081 35.2618 21.7943 36.818 16.7273 37.1011Z" fill="#0293D6"/>
<path d="M20.1819 11.2833C20.8605 10.5665 21.678 9.99529 22.5845 9.60456C23.491 9.21383 24.4675 9.01173 25.4546 9.01056C26.08 8.96869 26.7075 9.05161 27.3006 9.2545C27.8936 9.45739 28.4404 9.7762 28.9091 10.1924C31.5168 12.0398 34.6229 13.054 37.8182 13.1015C38.6364 13.1924 40.2728 13.4651 41.3637 14.8287C42.1819 15.9196 42.2728 17.1015 42.2728 17.6469C42.1995 19.0516 41.8923 20.4343 41.3637 21.7378L20.1819 11.2833Z" fill="#EBE638"/>
<path d="M16.7273 37.1013C15.9091 37.0103 14.8182 36.7376 13.5454 36.1922C12.2727 35.6467 10.7273 35.0103 9.72727 33.2831C9.09091 32.1922 9 31.1013 9 30.374C9.02219 28.4453 9.48883 26.5476 10.3636 24.8285C11.234 22.7038 11.8149 20.4717 12.0909 18.1922L12.5454 16.374C12.8182 15.4649 13 14.5558 13.6364 13.6467L14.6364 12.5558C16.288 11.5174 18.2426 11.0688 20.1818 11.2831C17.5852 14.9976 15.9165 19.2802 15.3155 23.7722C14.7144 28.2642 15.1985 32.8348 16.7273 37.1013Z" fill="#BAD147"/>
<path d="M20.1818 11.2834C20.0908 11.2834 25.0908 11.5561 28.1817 12.6471L30.7272 13.738C29.7272 13.647 23.3636 13.3743 18.5454 18.1925C12.4545 24.3743 14.4545 32.8288 14.5454 33.2834C13.1339 31.5075 12.4223 29.2758 12.5454 27.0107C12.6651 24.0043 13.4053 21.0553 14.7194 18.3487C16.0336 15.6422 17.8933 13.2367 20.1818 11.2834Z" fill="#78B650"/>
<path d="M32.3637 33.7376C34.0835 30.6112 34.8455 27.0478 34.5545 23.4915C34.2635 19.9351 32.9325 16.5429 30.7273 13.7377C33.3605 14.1779 35.7826 15.4527 37.6364 17.374C38.7273 18.2831 40.0909 19.6468 41.3636 21.7377C39.5661 26.5123 36.444 30.6751 32.3637 33.7376Z" fill="#2F8260"/>
<path d="M35.2728 17.7378C33.8183 15.2832 31.7274 14.1923 30.8183 13.7378C30.091 13.556 23.2728 12.4651 18.091 17.4651C13.9092 21.4651 13.6365 26.6469 13.6365 27.6469C13.6557 31.0729 14.8062 34.3966 16.9092 37.1014C19.6116 37.6217 22.3886 37.6217 25.091 37.1014C26.4546 36.8287 29.6365 36.2832 32.3637 33.9196C32.7274 33.5559 36.7274 29.8287 37.0001 23.9196C37.0001 22.9196 37.0001 20.3741 35.2728 17.7378ZM32.0001 30.9196C31.1559 31.8379 30.13 32.5707 28.9876 33.0715C27.8452 33.5723 26.6111 33.8301 25.3637 33.8287C24.8183 33.8287 21.1819 33.7378 18.6365 30.7378C18.2728 30.2832 16.4547 28.1014 16.5456 24.8287C16.7274 20.4651 20.1819 17.9196 20.9092 17.3741C21.5456 16.9196 23.091 15.9196 25.3637 15.8287C25.9092 15.7378 27.8183 15.6469 29.7274 16.7378C33.9092 19.0105 34.091 24.465 34.091 24.8287C34.091 25.8287 34.091 28.556 32.0001 30.9196Z" fill="#085229"/>
<defs>
<filter id="filter0_d" x="0" y="0" width="50" height="50" filterUnits="userSpaceOnUse" color-interpolation-filters="sRGB">
<feFlood flood-opacity="0" result="BackgroundImageFix"/>
<feColorMatrix in="SourceAlpha" type="matrix" values="0 0 0 0 0 0 0 0 0 0 0 0 0 0 0 0 0 0 127 0"/>
<feOffset/>
<feGaussianBlur stdDeviation="0.5"/>
<feColorMatrix type="matrix" values="0 0 0 0 0 0 0 0 0 0 0 0 0 0 0 0 0 0 0.25 0"/>
<feBlend mode="normal" in2="BackgroundImageFix" result="effect1_dropShadow"/>
<feBlend mode="normal" in="SourceGraphic" in2="effect1_dropShadow" result="shape"/>
</filter>
</defs>
</svg>
