<svg width="48" height="48" viewBox="0 0 48 48" fill="none" xmlns="http://www.w3.org/2000/svg">
<path d="M24 48C37.2548 48 48 37.2548 48 24C48 10.7452 37.2548 0 24 0C10.7452 0 0 10.7452 0 24C0 37.2548 10.7452 48 24 48Z" fill="#67B2E8"/>
<path fill-rule="evenodd" clip-rule="evenodd" d="M9.21796 17.9305C9.07626 16.7502 9.00281 15.5935 9 14.4546C10.9827 13.327 13.0541 12.4395 15.228 11.7858C18.2795 10.868 21.411 10.4427 24.6213 10.5062C25.4729 10.523 26.7047 10.6168 27.642 10.7179C25.2497 11.9994 23.561 14.2884 23.0444 17.0035C22.955 17.4735 22.9052 17.9622 22.8891 18.4847C22.8645 19.288 22.7861 19.9218 22.6197 20.5134C21.952 22.8886 20.0059 24.7438 17.6095 25.2881C14.4608 26.0033 11.2871 24.449 9.91618 21.5214C9.85176 21.3839 9.80277 21.2372 9.76462 21.0706C9.52646 20.0286 9.34403 18.9817 9.21796 17.9305ZM34.1366 30.7711C33.7795 31.3248 33.4034 31.8671 33.0083 32.3982C33.0188 30.8727 32.6527 29.4241 31.9148 28.0625C31.1481 26.6479 30.0714 25.5145 28.6946 24.6692C28.6295 24.6294 28.6295 24.6294 28.5586 24.5866C28.4443 24.5176 28.3964 24.4883 28.3365 24.4502C26.6306 23.3667 25.592 21.8495 25.2262 19.89C24.5647 16.3477 26.7952 12.9093 30.298 12.0618C31.5278 11.7642 32.7442 11.8058 33.9536 12.1862C34.8825 12.4784 35.8208 12.8614 36.9654 13.3971C37.6263 13.7065 38.292 14.0522 39 14.4532C38.9975 15.2641 38.958 16.0932 38.8832 16.9483C38.7732 18.2053 38.5862 19.4474 38.3218 20.6751C37.5439 24.2876 36.1481 27.6516 34.1366 30.7711ZM29.5821 36.2803C27.868 37.9085 26.0155 39.3125 24.0028 40.5C23.6888 40.3281 23.0896 39.9543 22.476 39.5415C20.7239 38.3617 19.1115 37.0163 17.6393 35.505C16.1642 33.9904 14.8606 32.3423 13.729 30.5606C12.8931 29.2445 12.1648 27.8773 11.5443 26.4585C11.8364 26.6293 12.1373 26.783 12.4471 26.9194C13.3261 27.3063 14.2354 27.5466 15.1749 27.6367C17.0935 27.8207 18.9005 27.4322 20.5949 26.4772C21.4025 26.022 22.2556 25.7358 23.1542 25.6231C26.4217 25.2134 29.5415 27.2002 30.5067 30.4322C31.009 32.1138 30.8626 33.7643 30.0822 35.3919C30.016 35.5298 29.9596 35.6422 29.8249 35.9066C29.7916 35.972 29.7916 35.972 29.7582 36.0378C29.7086 36.1355 29.6511 36.2148 29.5821 36.2803Z" fill="white"/>
</svg>
