<?xml version="1.0" encoding="utf-8"?>
<!-- Generator: Adobe Illustrator 17.1.0, SVG Export Plug-In . SVG Version: 6.00 Build 0)  -->
<!DOCTYPE svg PUBLIC "-//W3C//DTD SVG 1.1//EN" "http://www.w3.org/Graphics/SVG/1.1/DTD/svg11.dtd" [
	<!ENTITY ns_flows "http://ns.adobe.com/Flows/1.0/">
	<!ENTITY ns_extend "http://ns.adobe.com/Extensibility/1.0/">
	<!ENTITY ns_ai "http://ns.adobe.com/AdobeIllustrator/10.0/">
	<!ENTITY ns_graphs "http://ns.adobe.com/Graphs/1.0/">
]>
<svg version="1.1" id="_x2014_лой_x5F_1" xmlns:x="&ns_extend;" xmlns:i="&ns_ai;" xmlns:graph="&ns_graphs;"
	 xmlns="http://www.w3.org/2000/svg" xmlns:xlink="http://www.w3.org/1999/xlink" xmlns:a="http://ns.adobe.com/AdobeSVGViewerExtensions/3.0/"
	 x="0px" y="0px" viewBox="0 0 408 82.5" enable-background="new 0 0 408 82.5" xml:space="preserve">
<text transform="matrix(1 0 0 1 117.3467 72.5893)"><tspan x="0" y="0" font-family="'Rubik-Bold'" font-size="86"> </tspan><tspan x="18.1" y="0" fill="#C2129F" font-family="'Rubik-Bold'" font-size="86">ORI</tspan><tspan x="167.6" y="0" fill="#2E99E1" font-family="'Rubik-Bold'" font-size="86">ON</tspan></text>
<path fill-rule="evenodd" clip-rule="evenodd" fill="#2E99E1" fill-opacity="0.9" d="M96.8,5.2l29.3,29.3c3.6,3.6,3.6,9.5,0,13.2
	L96.8,77.1c-3.6,3.6-9.5,3.6-13.2,0L54.3,47.7c-3.6-3.6-3.6-9.5,0-13.2L83.6,5.2C87.2,1.6,93.1,1.6,96.8,5.2z M104.1,32.2
	c-4.7,0-8.5,3.8-8.5,8.5s3.8,8.5,8.5,8.5c4.7,0,8.5-3.8,8.5-8.5S108.8,32.2,104.1,32.2z M71.8,32.2c-4.7,0-8.5,3.8-8.5,8.5
	s3.8,8.5,8.5,8.5c4.7,0,8.5-3.8,8.5-8.5S76.5,32.2,71.8,32.2z"/>
<path fill="#C2129F" fill-opacity="0.95" d="M58.1,6.2l29.3,29.3c3.6,3.6,3.6,9.5,0,13.2L58.1,78.1c-3.6,3.6-9.5,3.6-13.2,0
	L15.6,48.7c-3.6-3.6-3.6-9.5,0-13.2L45,6.2C48.6,2.6,54.5,2.6,58.1,6.2z M37.6,32.2c-4.7,0-8.5,3.8-8.5,8.5s3.8,8.5,8.5,8.5
	s8.5-3.8,8.5-8.5S42.3,32.2,37.6,32.2z M71.8,32.2c-4.7,0-8.5,3.8-8.5,8.5s3.8,8.5,8.5,8.5c4.7,0,8.5-3.8,8.5-8.5
	S76.5,32.2,71.8,32.2z"/>
</svg>
