<svg width="48" height="48" viewBox="0 0 48 48" fill="none" xmlns="http://www.w3.org/2000/svg">
<path d="M24 48C37.2548 48 48 37.2548 48 24C48 10.7452 37.2548 0 24 0C10.7452 0 0 10.7452 0 24C0 37.2548 10.7452 48 24 48Z" fill="#141029"/>
<path d="M17.7899 21.4471L24.0054 15.2341L30.2234 21.4521L33.8379 17.8351L24.0054 8L14.1729 17.8325L17.7899 21.4471Z" fill="white"/>
<path d="M8 24.0025L11.6145 20.3855L15.2316 24.0025L11.6145 27.6171L8 24.0025Z" fill="white"/>
<path d="M17.7899 26.5556L24.0054 32.7711L30.2234 26.553L33.8405 30.1651L24.0079 40.0001L14.1729 30.1726L17.7899 26.5556Z" fill="white"/>
<path d="M32.771 24.0025L36.3855 20.3855L40.0026 24L36.3855 27.6196L32.771 24.0025Z" fill="white"/>
<path d="M27.6726 24L24.005 20.3299L21.2929 23.0421L20.9794 23.353L20.3374 23.995L24.005 27.6601L27.6726 24.0026V24Z" fill="white"/>
</svg>
