<svg width="48" height="48" viewBox="0 0 48 48" fill="none" xmlns="http://www.w3.org/2000/svg">
<path d="M24 48C37.2548 48 48 37.2548 48 24C48 10.7452 37.2548 0 24 0C10.7452 0 0 10.7452 0 24C0 37.2548 10.7452 48 24 48Z" fill="#141029"/>
<path d="M13.9355 25.6546C17.4595 27.5274 21.1366 29.4877 23.9766 31.0045L33.9355 25.6546C30.3295 31.0154 27.3254 35.4782 23.9766 40.4174C20.6223 35.4892 16.9178 30.0517 13.9355 25.6546ZM14.3186 24.1762L23.9875 19.0125L33.5306 24.1378L23.993 29.307L14.3186 24.1762ZM23.9766 17.3588L13.9355 22.6484L23.9328 8.00065L33.9355 22.6813L23.9766 17.3588Z" fill="white"/>
<path d="M23.9764 31.0038L33.9354 25.654C30.3293 31.0148 23.9764 40.4167 23.9764 40.4167V31.0038ZM23.9873 19.0118L33.5304 24.1372L23.9928 29.3063L23.9873 19.0118ZM23.9764 17.3581L23.9326 8L33.9354 22.6806L23.9764 17.3581Z" fill="white"/>
<path d="M14.3184 24.1749L23.9873 24.9689L33.5304 24.1421L23.9928 29.3112L14.3184 24.1749Z" fill="white"/>
<path d="M23.9873 24.9689L33.5304 24.1421L23.9928 29.3112L23.9873 24.9689Z" fill="white"/>
</svg>
