<svg width="48" height="48" viewBox="0 0 48 48" fill="none" xmlns="http://www.w3.org/2000/svg">
<path d="M24 48.0004C37.2548 48.0004 48 37.2552 48 24.0004C48 10.7456 37.2548 0.000396729 24 0.000396729C10.7452 0.000396729 0 10.7456 0 24.0004C0 37.2552 10.7452 48.0004 24 48.0004Z" fill="#141029"/>
<path d="M17.481 12.002C24.653 11.9998 31.8254 11.9998 38.9983 12.002C39.0005 14.3158 39.0005 16.6291 38.9983 18.9421C31.8261 18.9443 24.6537 18.9443 17.481 18.9421C17.4787 16.6283 17.4787 14.315 17.481 12.002Z" fill="white"/>
<path d="M9.009 21.5528C11.3229 21.5409 13.6371 21.5409 15.9518 21.5528C15.9638 23.8622 15.9638 26.1719 15.9518 28.4821C13.6372 28.494 11.323 28.4942 9.009 28.4827C8.997 26.1729 8.997 23.863 9.009 21.5528Z" fill="white"/>
<path d="M17.4864 21.5533C22.663 21.5423 27.8393 21.5423 33.0152 21.5533C33.0262 23.8627 33.0262 26.1724 33.0152 28.4825C27.8387 28.4933 22.6624 28.4933 17.4864 28.4825C17.4756 26.1731 17.4756 23.8634 17.4864 21.5533Z" fill="white"/>
<path d="M17.4929 31.1061C19.8029 31.081 22.1125 31.081 24.4216 31.1061C24.4456 33.41 24.446 35.7151 24.4227 38.0212C22.1127 38.044 19.8032 38.0436 17.4941 38.02C17.4701 35.7163 17.4697 33.4116 17.4929 31.1061Z" fill="white"/>
</svg>
