<svg width="48" height="48" viewBox="0 0 48 48" fill="none" xmlns="http://www.w3.org/2000/svg">
<path d="M24 48C37.2548 48 48 37.2548 48 24C48 10.7452 37.2548 0 24 0C10.7452 0 0 10.7452 0 24C0 37.2548 10.7452 48 24 48Z" fill="#141029"/>
<path d="M36.4138 14.1724C37.8422 14.1724 39.0001 13.0145 39.0001 11.5862C39.0001 10.1579 37.8422 9 36.4138 9C34.9855 9 33.8276 10.1579 33.8276 11.5862C33.8276 13.0145 34.9855 14.1724 36.4138 14.1724Z" fill="white"/>
<path d="M16.5311 28.4382C15.5571 26.7847 15.16 24.8545 15.4021 22.9508C15.6443 21.0471 16.512 19.2778 17.869 17.9209C19.2259 16.5639 20.9952 15.6962 22.8989 15.454C24.8026 15.2119 26.7328 15.609 28.3863 16.583L30.4552 14.5141L30.3518 14.4313C28.1264 12.9645 25.4615 12.3143 22.8106 12.5916C20.1598 12.8689 17.687 14.0564 15.8134 15.952C13.9397 17.8476 12.7811 20.334 12.5347 22.9879C12.2883 25.6418 12.9695 28.2991 14.4621 30.5072L16.5311 28.4382Z" fill="white"/>
<path d="M31.4691 19.6761C32.4431 21.3296 32.8402 23.2598 32.598 25.1635C32.3559 27.0672 31.4882 28.8365 30.1312 30.1935C28.7742 31.5504 27.0049 32.4181 25.1013 32.6603C23.1976 32.9025 21.2674 32.5053 19.6139 31.5313L17.5449 33.6003C19.7609 35.1047 22.432 35.7895 25.0984 35.5368C27.7648 35.2841 30.2597 34.1098 32.1536 32.2159C34.0475 30.322 35.2219 27.8271 35.4746 25.1606C35.7273 22.4942 35.0424 19.8231 33.538 17.6072L31.4691 19.6761Z" fill="white"/>
<path d="M11.5862 39.0003C13.0145 39.0003 14.1724 37.8424 14.1724 36.4141C14.1724 34.9858 13.0145 33.8279 11.5862 33.8279C10.1579 33.8279 9 34.9858 9 36.4141C9 37.8424 10.1579 39.0003 11.5862 39.0003Z" fill="white"/>
</svg>
