<svg width="48" height="48" viewBox="0 0 48 48" fill="none" xmlns="http://www.w3.org/2000/svg">
<path d="M24 48C37.2548 48 48 37.2548 48 24C48 10.7452 37.2548 0 24 0C10.7452 0 0 10.7452 0 24C0 37.2548 10.7452 48 24 48Z" fill="#141029"/>
<path d="M15.7273 36.1011C16.7356 37.2498 17.962 38.1869 19.3353 38.8579C20.7086 39.529 22.2014 39.9206 23.7273 40.0102C25.5503 39.9134 27.2702 39.1346 28.5455 37.8284C31.061 35.6739 33.702 33.6704 36.4545 31.8284L38 31.1921C38.6364 30.9193 39.7273 30.283 40.7273 29.1012C41.8182 27.6466 42 26.1012 42 25.5557C41.8791 23.8354 41.3154 22.1756 40.3636 20.7375C37.8799 25.1631 34.3204 28.891 30.0142 31.5764C25.7081 34.2618 20.7943 35.818 15.7273 36.1011Z" fill="#E4E4E4"/>
<path d="M19.1819 10.2833C19.8605 9.56646 20.678 8.99529 21.5845 8.60456C22.491 8.21383 23.4675 8.01173 24.4546 8.01056C25.08 7.96869 25.7075 8.05161 26.3006 8.2545C26.8936 8.45739 27.4404 8.7762 27.9091 9.19238C30.5168 11.0398 33.6229 12.054 36.8182 12.1015C37.6364 12.1924 39.2728 12.4651 40.3637 13.8287C41.1819 14.9196 41.2728 16.1015 41.2728 16.6469C41.1995 18.0516 40.8923 19.4343 40.3637 20.7378L19.1819 10.2833Z" fill="#EFEFEF"/>
<path d="M15.7273 36.1013C14.9091 36.0103 13.8182 35.7376 12.5454 35.1922C11.2727 34.6467 9.72727 34.0103 8.72727 32.2831C8.09091 31.1922 8 30.1013 8 29.374C8.02219 27.4453 8.48883 25.5476 9.36363 23.8285C10.234 21.7038 10.8149 19.4717 11.0909 17.1922L11.5454 15.374C11.8182 14.4649 12 13.5558 12.6364 12.6467L13.6364 11.5558C15.288 10.5174 17.2426 10.0688 19.1818 10.2831C16.5852 13.9976 14.9165 18.2801 14.3155 22.7722C13.7144 27.2642 14.1985 31.8348 15.7273 36.1013Z" fill="#E8E8E8"/>
<path d="M19.1818 10.2834C19.0908 10.2834 24.0908 10.5561 27.1817 11.647L29.7272 12.7379C28.7272 12.647 22.3636 12.3743 17.5454 17.1925C11.4545 23.3743 13.4545 31.8288 13.5454 32.2834C12.1339 30.5075 11.4223 28.2758 11.5454 26.0107C11.6651 23.0043 12.4053 20.0552 13.7194 17.3487C15.0336 14.6422 16.8933 12.2367 19.1818 10.2834Z" fill="white"/>
<path d="M31.3637 32.7376C33.0835 29.6112 33.8455 26.0478 33.5545 22.4915C33.2635 18.9351 31.9325 15.5429 29.7273 12.7377C32.3605 13.1779 34.7826 14.4527 36.6364 16.374C37.7273 17.2831 39.0909 18.6467 40.3636 20.7377C38.5661 25.5123 35.444 29.6751 31.3637 32.7376Z" fill="#F5F5F5"/>
<path d="M34.2728 16.7378C32.8183 14.2833 30.7274 13.1923 29.8183 12.7378C29.091 12.556 22.2728 11.4651 17.091 16.4651C12.9092 20.4651 12.6365 25.6469 12.6365 26.6469C12.6557 30.0729 13.8062 33.3966 15.9092 36.1014C18.6116 36.6218 21.3886 36.6218 24.091 36.1014C25.4546 35.8287 28.6365 35.2832 31.3637 32.9196C31.7274 32.556 35.7274 28.8287 36.0001 22.9196C36.0001 21.9196 36.0001 19.3742 34.2728 16.7378ZM31.0001 29.9196C30.1559 30.8379 29.13 31.5707 27.9876 32.0715C26.8452 32.5723 25.6111 32.8302 24.3637 32.8287C23.8183 32.8287 20.1819 32.7378 17.6365 29.7378C17.2728 29.2832 15.4547 27.1014 15.5456 23.8287C15.7274 19.4651 19.1819 16.9196 19.9092 16.3742C20.5456 15.9196 22.091 14.9196 24.3637 14.8287C24.9092 14.7378 26.8183 14.6469 28.7274 15.7378C32.9092 18.0105 33.091 23.4651 33.091 23.8287C33.091 24.8287 33.091 27.556 31.0001 29.9196Z" fill="white"/>
</svg>
