<svg width="48" height="48" viewBox="0 0 48 48" fill="none" xmlns="http://www.w3.org/2000/svg">
<path d="M24 48C37.2548 48 48 37.2548 48 24C48 10.7452 37.2548 0 24 0C10.7452 0 0 10.7452 0 24C0 37.2548 10.7452 48 24 48Z" fill="#141029"/>
<path d="M39.7692 16.8944C38.4079 15.9423 36.9521 14.9272 35.5279 13.92C35.4964 13.8964 35.4649 13.8728 35.4256 13.8492C35.2682 13.7312 35.0872 13.6053 34.8669 13.5344L34.8511 13.5266C31.0426 12.6059 27.1711 11.6616 23.4256 10.7489C20.0262 9.92263 16.6347 9.0964 13.2354 8.27017C13.1488 8.24657 13.0623 8.22296 12.9679 8.19935C12.661 8.11279 12.3069 8.01837 11.9292 8.06558C11.819 8.08132 11.7246 8.12066 11.638 8.17575L11.5436 8.25443C11.3941 8.39607 11.3154 8.57706 11.276 8.67935L11.2524 8.7423V9.10427L11.2682 9.15935C13.4164 15.179 15.6197 21.2853 17.7442 27.1948C19.381 31.743 21.0806 36.4564 22.741 41.0833C22.8433 41.398 23.1344 41.6026 23.4964 41.6341H23.5751C23.9134 41.6341 24.2124 41.4689 24.3619 41.2013L30.5941 32.1128C32.1128 29.9016 33.6315 27.6826 35.1501 25.4715C35.7718 24.5666 36.3934 23.6538 37.0151 22.7489C38.038 21.2538 39.0924 19.7115 40.139 18.2085L40.1941 18.1298V18.0354C40.2177 17.76 40.2256 17.1934 39.7692 16.8944ZM32.4669 20.2072C31.0033 20.9705 29.5082 21.7574 28.0052 22.5364C28.8787 21.6 29.76 20.6557 30.6334 19.7194C31.7272 18.539 32.8682 17.3194 33.9856 16.1233L34.0092 16.0997C34.1036 15.9738 34.2216 15.8557 34.3475 15.7298C34.4341 15.6433 34.5285 15.5567 34.6151 15.4544C35.1974 15.8557 35.7875 16.2649 36.3541 16.6662C36.7633 16.9574 37.1803 17.2485 37.6052 17.5397C35.8741 18.421 34.1429 19.3259 32.4669 20.2072ZM28.7056 19.8295C27.5803 21.0492 26.4157 22.3003 25.259 23.5357C23.0164 20.8131 20.7265 18.0512 18.5075 15.3836C17.5003 14.1718 16.4852 12.9521 15.478 11.7403L15.4701 11.7325C15.242 11.4728 15.0216 11.1895 14.8013 10.922C14.6597 10.741 14.5101 10.5679 14.3606 10.3869C15.2734 10.623 16.1941 10.8433 17.099 11.0557C17.8938 11.2446 18.72 11.4413 19.5305 11.6459C24.0944 12.7554 28.6662 13.8649 33.2301 14.9744C31.7115 16.5954 30.1849 18.24 28.7056 19.8295ZM24.7475 35.1659C24.8341 34.3397 24.9285 33.4898 25.0072 32.6557C25.078 31.9869 25.1488 31.3023 25.2197 30.6492C25.3298 29.6026 25.4479 28.5167 25.5423 27.4544L25.5659 27.2656C25.6446 26.5889 25.7233 25.8885 25.7705 25.1882C25.857 25.141 25.9515 25.0938 26.0538 25.0544C26.1718 24.9993 26.2898 24.9521 26.4079 24.8813C28.2256 23.9292 30.0433 22.9771 31.8688 22.0328C33.6865 21.0885 35.5515 20.1128 37.4006 19.1449C35.7167 21.5843 34.0249 24.0472 32.3882 26.4472C30.9797 28.501 29.5318 30.6177 28.0918 32.703C27.5252 33.5371 26.9351 34.3869 26.3764 35.2053C25.7469 36.118 25.1016 37.0544 24.4721 37.9908C24.5508 37.0466 24.6452 36.0944 24.7475 35.1659ZM13.7783 12.2439C13.676 11.9607 13.5659 11.6695 13.4715 11.3941C15.596 13.9594 17.7364 16.5403 19.8216 19.0426C20.8997 20.341 21.9777 21.6315 23.0557 22.9377C23.2682 23.1816 23.4806 23.4413 23.6852 23.6931C23.9528 24.0157 24.2203 24.3541 24.5115 24.6767C24.417 25.4872 24.3383 26.3056 24.2518 27.0925C24.1967 27.6433 24.1416 28.1941 24.0787 28.7528V28.7607C24.0551 29.1148 24.0079 29.4689 23.9685 29.8151C23.9134 30.2951 23.7875 31.381 23.7875 31.381L23.7797 31.4361C23.638 33.0256 23.4649 34.6308 23.2997 36.1889C23.2288 36.8341 23.1659 37.4951 23.0951 38.1561C23.0557 38.038 23.0085 37.92 22.9692 37.8098C22.8511 37.4951 22.7331 37.1646 22.6229 36.842L21.781 34.5049C19.1134 27.0846 16.4459 19.6721 13.7783 12.2439Z" fill="white"/>
</svg>
