<svg width="48" height="48" viewBox="0 0 48 48" fill="none" xmlns="http://www.w3.org/2000/svg">
<path d="M24 48C37.2548 48 48 37.2548 48 24C48 10.7452 37.2548 0 24 0C10.7452 0 0 10.7452 0 24C0 37.2548 10.7452 48 24 48Z" fill="#141029"/>
<path d="M37.0502 12.5998L32.7002 14.8498L11.4002 25.6498C11.4002 25.0498 11.2502 24.5998 11.2502 23.9998C11.2502 16.9498 16.9502 11.3998 23.8502 11.3998C25.9502 11.3998 28.0502 11.9998 30.0002 13.0498L32.5502 11.6998L33.0002 11.5498C26.1002 6.44981 16.5002 7.94981 11.5502 14.8498C9.6002 17.5498 8.5502 20.6998 8.5502 23.9998V25.1998C8.7002 26.3998 8.1002 27.4498 7.0502 27.8998L5.7002 28.4998V31.6498L9.6002 29.6998L10.8002 29.0998L12.1502 28.4998L34.5002 17.0998L37.0502 15.7498L42.3002 13.0498V9.89981L37.0502 12.5998ZM42.3002 16.3498L13.5002 30.8998L10.9502 32.2498L5.7002 34.9498V38.0998L10.8002 35.5498L15.1502 33.2998L36.4502 22.4998C36.4502 23.0998 36.6002 23.5498 36.6002 24.1498C36.6002 31.1998 30.9002 36.7498 24.0002 36.7498C21.9002 36.7498 19.6502 36.1498 17.8502 35.0998L17.7002 35.2498L15.0002 36.5998C21.9002 41.5498 31.5002 40.0498 36.6002 33.1498C38.5502 30.4498 39.6002 27.2998 39.6002 24.1498V22.9498C39.4502 21.7498 40.0502 20.6998 41.1002 20.2498L42.4502 19.4998V16.3498H42.3002Z" fill="white"/>
</svg>
