<svg width="48" height="48" viewBox="0 0 48 48" fill="none" xmlns="http://www.w3.org/2000/svg">
<path d="M24 48C37.2548 48 48 37.2548 48 24C48 10.7452 37.2548 0 24 0C10.7452 0 0 10.7452 0 24C0 37.2548 10.7452 48 24 48Z" fill="#F0B90B"/>
<path d="M17.7897 21.4471L24.0051 15.2341L30.2232 21.4521L33.8377 17.8351L24.0051 8L14.1726 17.8325L17.7897 21.4471Z" fill="white"/>
<path d="M8 24.0025L11.6145 20.3855L15.2316 24.0025L11.6145 27.617L8 24.0025Z" fill="white"/>
<path d="M17.7897 26.5556L24.0051 32.7711L30.2232 26.5531L33.8402 30.1651L24.0077 40.0001L14.1726 30.1726L17.7897 26.5556Z" fill="white"/>
<path d="M32.7708 24.0025L36.3853 20.3855L40.0023 24L36.3853 27.6196L32.7708 24.0025Z" fill="white"/>
<path d="M27.6729 24L24.0053 20.3299L21.2931 23.0421L20.9797 23.353L20.3376 23.995L24.0053 27.6601L27.6729 24.0026V24Z" fill="white"/>
</svg>
