<svg width="48" height="48" viewBox="0 0 48 48" fill="none" xmlns="http://www.w3.org/2000/svg">
<path id="Combined Shape" fill-rule="evenodd" clip-rule="evenodd" d="M18.192 47.2815C31.0522 50.4877 44.0758 42.663 47.2816 29.8059C50.4875 16.948 42.6626 3.92366 29.8033 0.718189C16.9469 -2.48728 3.92326 5.33814 0.718922 18.1968C-2.48842 31.0531 5.33716 44.076 18.192 47.2815ZM29.3 14.5255C32.6251 15.6708 35.0568 17.3875 34.579 20.581C34.2332 22.9187 32.9371 24.0505 31.2164 24.4472C33.5792 25.6772 34.7816 27.5634 33.6362 30.8334C32.2148 34.8946 28.8379 35.2373 24.3472 34.3876L23.2573 38.7548L20.6238 38.0986L21.6994 33.7899C21.0168 33.6204 20.3193 33.4404 19.6007 33.2454L18.5213 37.5743L15.8908 36.9181L16.9807 32.5426C16.7361 32.48 16.49 32.4158 16.2422 32.3512L16.2396 32.3505L16.2384 32.3502L16.2381 32.3502C15.864 32.2526 15.4859 32.154 15.1032 32.0581L11.6761 31.2039L12.9835 28.1897C12.9835 28.1897 14.9239 28.7057 14.8977 28.6674C15.6433 28.8519 15.974 28.3659 16.1046 28.0419L19.0599 16.1913C19.0921 15.6318 18.8994 14.926 17.8327 14.6598C17.874 14.632 15.92 14.1843 15.92 14.1843L16.6206 11.3718L20.2525 12.2786L20.2495 12.2921C20.7956 12.4278 21.3581 12.5568 21.9312 12.6873L23.0105 8.36286L25.6426 9.0191L24.585 13.2588C25.2915 13.4201 26.0026 13.5828 26.6949 13.7553L27.7451 9.54335L30.3786 10.1996L29.3 14.5255ZM20.9699 30.2099C23.1188 30.7774 27.8152 32.0177 28.5619 29.0177C29.327 25.9502 24.7722 24.9283 22.5497 24.4296L22.5496 24.4296L22.5488 24.4294C22.3008 24.3738 22.0819 24.3247 21.9027 24.2799L20.4565 30.0766C20.6038 30.1132 20.7765 30.1588 20.9697 30.2098L20.9699 30.2099ZM29.3765 20.5337C28.6958 23.2604 24.7878 22.2176 22.9962 21.7396C22.8334 21.6961 22.6881 21.6573 22.5642 21.6265L23.8754 16.369C24.0256 16.4065 24.2096 16.4472 24.4181 16.4933L24.4184 16.4934C26.2734 16.904 30.0716 17.7447 29.3765 20.5337Z" fill="#F7931A"/>
</svg>
