<svg width="48" height="48" viewBox="0 0 48 48" fill="none" xmlns="http://www.w3.org/2000/svg">
<path d="M24 48C37.2548 48 48 37.2548 48 24C48 10.7452 37.2548 0 24 0C10.7452 0 0 10.7452 0 24C0 37.2548 10.7452 48 24 48Z" fill="#2DA5FE"/>
<path d="M21.9269 25.1316C20.2373 28.9432 18.7215 32.8621 17.4046 36.8348H10C11.2175 32.4327 12.5842 28.0574 14.2987 23.87C15.5162 21.1321 16.7834 18.3137 18.7464 16.0858C19.6906 14.9853 20.9578 14.2606 22.3245 13.9116C22.4238 17.1058 22.4984 20.3269 22.4735 23.5211C22.4984 23.5479 22.1257 24.4874 21.9269 25.1316Z" fill="white"/>
<path d="M36 10.0732C35.0607 9.85843 34.1213 10.1537 33.2356 10.4758C30.6591 11.6569 28.6193 13.7505 27.009 16.0321C24.9961 18.8774 22.8758 22.6621 22.5 23.5479C22.1243 24.4337 21.2386 26.3395 21.2386 26.3395C19.6283 29.7753 18.5815 32.6474 16.998 36.8347C23.332 36.8079 29.666 36.8347 36 36.8347V10.0732Z" fill="white"/>
</svg>
