<svg width="48" height="48" viewBox="0 0 48 48" fill="none" xmlns="http://www.w3.org/2000/svg">
<path d="M24 48C37.2548 48 48 37.2548 48 24C48 10.7452 37.2548 0 24 0C10.7452 0 0 10.7452 0 24C0 37.2548 10.7452 48 24 48Z" fill="#3075EE"/>
<path d="M22.2776 22.2777C23.4093 22.5548 24.5913 22.5548 25.723 22.2777C26.0393 20.9916 26.7016 19.8166 27.6381 18.88C28.5746 17.9435 29.7496 17.2812 31.0357 16.965C31.2964 15.8988 31.3114 14.7874 31.0795 13.7146C30.8477 12.6418 30.375 11.6358 29.6974 10.7725C29.0197 9.90912 28.1547 9.21108 27.1677 8.73107C26.1806 8.25106 25.0974 8.00163 23.9999 8.00163C22.9024 8.00163 21.8192 8.25106 20.8322 8.73107C19.8451 9.21108 18.9801 9.90912 18.3024 10.7725C17.6248 11.6358 17.1521 12.6418 16.9203 13.7146C16.6884 14.7874 16.7034 15.8988 16.9641 16.965C18.2505 17.2809 19.4258 17.943 20.3625 18.8796C21.2992 19.8161 21.9615 20.9913 22.2776 22.2777Z" fill="white"/>
<path d="M25.7232 25.7215C24.5914 25.4444 23.4095 25.4444 22.2778 25.7215C21.9615 27.0076 21.2992 28.1826 20.3627 29.1192C19.4262 30.0557 18.2512 30.718 16.9651 31.0342C16.7044 32.1004 16.6894 33.2118 16.9213 34.2846C17.1531 35.3574 17.6257 36.3634 18.3034 37.2267C18.9811 38.0901 19.8461 38.7881 20.8331 39.2681C21.8201 39.7481 22.9033 39.9976 24.0009 39.9976C25.0984 39.9976 26.1816 39.7481 27.1686 39.2681C28.1556 38.7881 29.0207 38.0901 29.6983 37.2267C30.376 36.3634 30.8486 35.3574 31.0805 34.2846C31.3123 33.2118 31.2974 32.1004 31.0367 31.0342C29.7503 30.7183 28.575 30.0562 27.6383 29.1196C26.7016 28.1831 26.0393 27.0079 25.7232 25.7215Z" fill="white"/>
<path d="M32.7585 16.7565C32.1783 16.7564 31.6002 16.8262 31.0366 16.9642C30.7207 18.2502 30.0586 19.4252 29.1222 20.3616C28.1857 21.2981 27.0108 21.9602 25.7247 22.2761C25.4476 23.4078 25.4476 24.5898 25.7247 25.7215C27.0108 26.0377 28.1857 26.6999 29.1222 27.6365C30.0586 28.573 30.7206 29.7481 31.0366 31.0342C32.0314 31.2772 33.0665 31.3065 34.0735 31.1201C35.0805 30.9337 36.0365 30.5359 36.8785 29.9529C37.7204 29.3699 38.4292 28.615 38.958 27.738C39.4868 26.861 39.8236 25.8819 39.9462 24.8651C40.0688 23.8484 39.9744 22.8173 39.6693 21.8397C39.3641 20.8621 38.8551 19.9604 38.1759 19.194C37.4966 18.4275 36.6626 17.8139 35.7288 17.3934C34.795 16.973 33.7826 16.7554 32.7585 16.7549V16.7565Z" fill="white"/>
<path d="M22.2778 25.7215C22.5549 24.5898 22.5549 23.4078 22.2778 22.2761C20.9916 21.9601 19.8166 21.298 18.88 20.3616C17.9435 19.4252 17.2812 18.2503 16.965 16.9642C15.8989 16.7035 14.7875 16.6885 13.7147 16.9204C12.6419 17.1522 11.6359 17.6249 10.7725 18.3025C9.90919 18.9802 9.21115 19.8452 8.73114 20.8322C8.25113 21.8193 8.00171 22.9025 8.00171 24C8.00171 25.0975 8.25113 26.1807 8.73114 27.1677C9.21115 28.1548 9.90919 29.0198 10.7725 29.6975C11.6359 30.3751 12.6419 30.8478 13.7147 31.0796C14.7875 31.3115 15.8989 31.2965 16.965 31.0358C17.2809 29.7493 17.943 28.5739 18.8796 27.6371C19.8161 26.7002 20.9914 26.0377 22.2778 25.7215Z" fill="white"/>
<path d="M25.7231 22.2777C27.0093 21.9614 28.1843 21.2991 29.1208 20.3626C30.0573 19.4261 30.7196 18.2511 31.0358 16.965C29.7497 17.2812 28.5747 17.9435 27.6382 18.88C26.7017 19.8166 26.0394 20.9916 25.7231 22.2777Z" fill="#F6F6F6"/>
<path d="M25.7231 25.7215C26.0392 27.0077 26.7014 28.1829 27.6379 29.1194C28.5745 30.056 29.7496 30.7182 31.0358 31.0342C30.7196 29.7481 30.0573 28.5731 29.1208 27.6366C28.1843 26.7001 27.0093 26.0378 25.7231 25.7215Z" fill="#F5F5F5"/>
<path d="M22.2778 22.2777C21.9615 20.9916 21.2992 19.8166 20.3627 18.88C19.4262 17.9435 18.2512 17.2812 16.9651 16.965C17.2814 18.2511 17.9436 19.4261 18.8802 20.3626C19.8167 21.2991 20.9917 21.9614 22.2778 22.2777Z" fill="white"/>
<path d="M22.2778 25.7215C20.9917 26.0378 19.8167 26.7001 18.8802 27.6366C17.9436 28.5731 17.2814 29.7481 16.9651 31.0342C18.2512 30.7179 19.4262 30.0557 20.3627 29.1191C21.2992 28.1826 21.9615 27.0076 22.2778 25.7215Z" fill="#F1F1F1"/>
<path opacity="0.8" d="M22.2776 22.2777C23.4093 22.5548 24.5913 22.5548 25.723 22.2777C26.0393 20.9916 26.7016 19.8166 27.6381 18.88C28.5746 17.9435 29.7496 17.2812 31.0357 16.965C31.2964 15.8988 31.3114 14.7874 31.0795 13.7146C30.8477 12.6418 30.375 11.6358 29.6974 10.7725C29.0197 9.90912 28.1547 9.21108 27.1677 8.73107C26.1806 8.25106 25.0974 8.00163 23.9999 8.00163C22.9024 8.00163 21.8192 8.25106 20.8322 8.73107C19.8451 9.21108 18.9801 9.90912 18.3024 10.7725C17.6248 11.6358 17.1521 12.6418 16.9203 13.7146C16.6884 14.7874 16.7034 15.8988 16.9641 16.965C18.2505 17.2809 19.4258 17.943 20.3625 18.8796C21.2992 19.8161 21.9615 20.9913 22.2776 22.2777Z" fill="#F3F3F3"/>
<path opacity="0.95" d="M25.7232 25.7215C24.5914 25.4444 23.4095 25.4444 22.2778 25.7215C21.9615 27.0076 21.2992 28.1826 20.3627 29.1192C19.4262 30.0557 18.2512 30.718 16.9651 31.0342C16.7044 32.1004 16.6894 33.2118 16.9213 34.2846C17.1531 35.3574 17.6257 36.3634 18.3034 37.2267C18.9811 38.0901 19.8461 38.7881 20.8331 39.2681C21.8201 39.7481 22.9033 39.9976 24.0009 39.9976C25.0984 39.9976 26.1816 39.7481 27.1686 39.2681C28.1556 38.7881 29.0207 38.0901 29.6983 37.2267C30.376 36.3634 30.8486 35.3574 31.0805 34.2846C31.3123 33.2118 31.2974 32.1004 31.0367 31.0342C29.7503 30.7183 28.575 30.0562 27.6383 29.1196C26.7016 28.1831 26.0393 27.0079 25.7232 25.7215Z" fill="#F0F0F0"/>
<path opacity="0.9" d="M32.7585 16.7565C32.1783 16.7564 31.6002 16.8262 31.0366 16.9642C30.7207 18.2502 30.0586 19.4252 29.1222 20.3616C28.1857 21.2981 27.0108 21.9602 25.7247 22.2761C25.4476 23.4078 25.4476 24.5898 25.7247 25.7215C27.0108 26.0377 28.1857 26.6999 29.1222 27.6365C30.0586 28.573 30.7206 29.7481 31.0366 31.0342C32.0314 31.2772 33.0665 31.3065 34.0735 31.1201C35.0805 30.9337 36.0365 30.5359 36.8785 29.9529C37.7204 29.3699 38.4292 28.615 38.958 27.738C39.4868 26.861 39.8236 25.8819 39.9462 24.8651C40.0688 23.8484 39.9744 22.8173 39.6693 21.8397C39.3641 20.8621 38.8551 19.9604 38.1759 19.194C37.4966 18.4275 36.6626 17.8139 35.7288 17.3934C34.795 16.973 33.7826 16.7554 32.7585 16.7549V16.7565Z" fill="white"/>
<path d="M22.2778 25.7215C22.5549 24.5898 22.5549 23.4078 22.2778 22.2761C20.9916 21.9601 19.8166 21.298 18.88 20.3616C17.9435 19.4252 17.2812 18.2503 16.965 16.9642C15.8989 16.7035 14.7875 16.6885 13.7147 16.9204C12.6419 17.1522 11.6359 17.6249 10.7725 18.3025C9.90919 18.9802 9.21115 19.8452 8.73114 20.8322C8.25113 21.8193 8.00171 22.9025 8.00171 24C8.00171 25.0975 8.25113 26.1807 8.73114 27.1677C9.21115 28.1548 9.90919 29.0198 10.7725 29.6975C11.6359 30.3751 12.6419 30.8478 13.7147 31.0796C14.7875 31.3115 15.8989 31.2965 16.965 31.0358C17.2809 29.7493 17.943 28.5739 18.8796 27.6371C19.8161 26.7002 20.9914 26.0377 22.2778 25.7215Z" fill="white"/>
</svg>
