<?xml version="1.0" standalone="no"?>
<!DOCTYPE svg PUBLIC "-//W3C//DTD SVG 1.1//EN" "http://www.w3.org/Graphics/SVG/1.1/DTD/svg11.dtd" >
<svg xmlns="http://www.w3.org/2000/svg">
<metadata>Generated by IcoMoon</metadata>
<defs>
<font id="orion" horiz-adv-x="1024">
<font-face units-per-em="1024" ascent="960" descent="-64" />
<missing-glyph horiz-adv-x="1024" />
<glyph unicode="&#x20;" horiz-adv-x="512" d="" />
<glyph unicode="&#xe900;" glyph-name="binance" d="M501.765 960c-277.114 0-501.765-224.65-501.765-501.765 0-277.112 224.65-501.765 501.765-501.765 277.112 0 501.765 224.652 501.765 501.765s-224.652 501.765-501.765 501.765zM501.882 792.706l205.529-205.529-75.529-75.647-130 130-130-129.882-75.529 75.529 205.529 205.529zM501.882 534.941l76.706-76.706-76.706-76.471-76.706 76.588 13.412 13.412 6.588 6.471 56.706 56.706zM242.824 533.765l75.647-75.529-75.647-75.647-75.529 75.647 75.529 75.529zM760.706 533.765l75.647-75.529-75.647-75.647-75.529 75.647 75.529 75.529zM371.882 404.824l130-130 130 130 75.647-75.412-205.647-205.647-205.529 205.412 75.529 75.647z" />
<glyph unicode="&#xe901;" glyph-name="ethereum" d="M512 960c-282.77 0-512-229.23-512-512s229.23-512 512-512c282.77 0 512 229.23 512 512s-229.23 512-512 512zM513.619 806.381l219.905-365.143-220-129.905-219.905 130 220 365.048zM290.286 399.619l219.905-129.905 220.095 129.905-220.095-310-219.905 310z" />
<glyph unicode="&#xe902;" glyph-name="bitmax" d="M501.765 960c-277.114 0-501.765-224.65-501.765-501.765 0-277.112 224.65-501.765 501.765-501.765 277.112 0 501.765 224.652 501.765 501.765s-224.652 501.765-501.765 501.765zM737.882 750.941c4.892 0.053 9.797-0.407 14.706-1.529v-559.529c-129.559 0-259.145 0.501-388.706 0h-154.824c25.455 92.034 54.038 183.515 89.882 271.059 25.455 57.24 51.902 116.128 92.941 162.706 19.74 23.008 46.252 38.234 74.824 45.529 2.078-66.78 3.696-134.161 3.176-200.941 0.104-0.112-1.888-5.272-2.353-6.706 1.029 2.35 1.997 4.169 2.824 6.118 7.856 18.519 52.27 97.691 94.353 157.176 33.667 47.7 76.249 91.426 130.118 116.118 13.887 5.051 28.382 9.842 43.059 10z" />
<glyph unicode="&#xe903;" glyph-name="chart" d="M152 480c24.203 0 46.109 9.711 62.297 25.305l88.804-44.398c-0.445-3.617-1.101-7.172-1.101-10.907 0-49.626 40.375-90.002 90-90.002s90 40.376 90 90.002c0 13.852-3.406 26.821-9.023 38.555l120.467 120.469c11.735-5.617 24.704-9.023 38.559-9.023 49.623 0 89.999 40.375 89.999 90 0 9.344-1.838 18.18-4.495 26.656l104.673 78.484c14.28-9.539 31.396-15.14 49.818-15.14 49.628 0 90.004 40.375 90.004 90s-40.376 90-90.004 90c-49.623 0-89.999-40.375-89.999-90 0-9.344 1.838-18.18 4.495-26.656l-104.673-78.484c-14.28 9.539-31.396 15.141-49.818 15.141-49.628 0-90.004-40.375-90.004-90 0-13.852 3.41-26.82 9.027-38.555l-120.47-120.468c-11.735 5.617-24.703 9.023-38.555 9.023-24.203 0-46.109-9.711-62.297-25.305l-88.804 44.399c0.445 3.617 1.101 7.172 1.101 10.906 0 49.625-40.375 90-90 90s-90-40.375-90-90c0-49.625 40.375-90 90-90zM994.002-8.842h-32v582.862c0 15.241-13.425 27.58-30.003 27.58h-119.997c-16.579 0-30.003-12.339-30.003-27.58v-582.862h-59.996v417.382c0 15.242-13.425 27.581-30.003 27.581h-119.997c-16.579 0-30.003-12.339-30.003-27.581v-417.382h-59.998v196.741c0 15.242-13.422 27.581-30 27.581h-119.999c-16.579 0-30-12.339-30-27.581v-196.741h-60v307.062c0 15.242-13.422 27.581-30 27.581h-119.999c-16.579 0-30-12.339-30-27.581v-307.062h-32c-16.578 0-30-12.339-30-27.576 0-15.242 13.422-27.581 30-27.581h964.002c16.579 0 29.998 12.339 29.998 27.581 0 15.237-13.42 27.576-29.998 27.576z" />
<glyph unicode="&#xe904;" glyph-name="wanchain" d="M512 960c-282.77 0-512-229.23-512-512v0c0-282.77 229.23-512 512-512v0c282.77 0 512 229.23 512 512v0c0 282.77-229.23 512-512 512v0zM512 784l280.25-163.25-75.625-31.25-204.625 118.25-202.625-118.25-75.688 31.25 278.312 163.25zM224 605.125l85.375-36.187v-203.25l202.625 121.188 204.625-121.188v203.25l83.375 36.187v-383.187l-288 170.125-288-170.125v383.187zM356.875 278.625l156.062-90.375 154.187 90.375 65-36.125-219.187-130.5-219.125 130.5 63.063 36.125z" />
<glyph unicode="&#xe905;" glyph-name="wallet" d="M772.512 865.412c-16.992 40.784-63.834 60.070-104.614 43.077l-550.519-229.045c-44.141-18.284-75.243-57.777-83.331-103.898-1.343-6.76-2.047-13.749-2.047-20.903v-480c0-58.912 47.756-106.669 106.667-106.669h746.664c58.912 0 106.669 47.757 106.669 106.669v480c0 58.91-47.757 106.667-106.669 106.667h-106.662v173.333c0 10.562-2.093 21.020-6.157 30.769zM672 661.31h-320l311.136 129.641c4.218 1.756 8.864-1.341 8.864-5.908v-123.733zM218.667 554.643h647.464c10.605 0 19.2-8.596 19.2-19.2v-441.6c0-10.605-8.595-19.2-19.2-19.2h-708.264c-10.604 0-19.2 8.595-19.2 19.2v441.6c0 10.604 8.596 19.2 19.2 19.2h60.8zM725.331 314.643c0-44.186-35.814-80-80-80-44.18 0-79.998 35.814-79.998 80 0 44.183 35.818 80 79.998 80 44.186 0 80-35.817 80-80z" />
<glyph unicode="&#xe909;" glyph-name="copy" d="M719.879 960h-554.345c-51.047 0-92.391-41.344-92.391-92.392v-646.739h92.391v646.739h554.345v92.392zM858.47 775.219h-508.15c-51.045 0-92.391-41.344-92.391-92.391v-646.739c0-51.039 41.344-92.387 92.391-92.387h508.15c51.046 0 92.394 41.34 92.394 92.387v646.739c-0.007 51.045-41.348 92.391-92.394 92.391zM858.47 36.089h-508.15v646.739h508.15v-646.739z" />
<glyph unicode="&#xe90a;" glyph-name="spinn" d="M977.44 471.273h-186.185c-25.702 0-46.543-20.842-46.543-46.546 0-25.702 20.841-46.543 46.543-46.543h186.185c25.702 0 46.543 20.841 46.543 46.543 0 25.704-20.836 46.546-46.543 46.546zM232.728 471.273h-186.183c-25.704 0-46.546-20.842-46.546-46.546 0-25.702 20.842-46.543 46.546-46.543h186.183c25.704 0 46.546 20.841 46.546 46.543 0 25.704-20.842 46.546-46.546 46.546zM808.211 786.768l-131.654-131.655c-18.179-18.173-18.179-47.645 0-65.822 9.081-9.092 20.997-13.637 32.908-13.637s23.827 4.541 32.914 13.637l131.654 131.655c18.179 18.173 18.179 47.645 0 65.822-18.173 18.178-47.648 18.178-65.822 0zM512.019 145.457c-25.704 0-46.546-20.846-46.546-46.549v-93.092c0-25.702 20.842-46.543 46.546-46.543s46.546 20.841 46.546 46.543v93.092c0 25.702-20.842 46.549-46.546 46.549zM281.625 260.166l-131.65-131.654c-18.178-18.179-18.178-47.648 0-65.827 9.086-9.081 21-13.63 32.914-13.63s23.827 4.549 32.909 13.63l131.65 131.659c18.178 18.173 18.178 47.643 0 65.822-18.173 18.179-47.645 18.179-65.822 0zM512.019 936.73c-25.704 0-46.546-20.842-46.546-46.545v-186.183c0-25.704 20.842-46.546 46.546-46.546s46.546 20.842 46.546 46.546v186.183c0 25.704-20.842 46.545-46.546 46.545zM215.771 786.768c-18.173 18.178-47.645 18.178-65.822 0s-18.178-47.645 0-65.822l131.65-131.655c9.086-9.092 21-13.637 32.914-13.637 11.909 0 23.827 4.545 32.909 13.637 18.178 18.173 18.178 47.645 0 65.822l-131.65 131.655z" />
<glyph unicode="&#xe90b;" glyph-name="close" d="M942.994 937.874c-28.526 28.526-74.606 28.526-103.131 0l-357.669-356.937-357.669 357.669c-28.526 28.526-74.606 28.526-103.131 0s-28.526-74.606 0-103.131l357.669-357.669-357.669-357.669c-28.526-28.526-28.526-74.606 0-103.131s74.606-28.526 103.131 0l357.669 357.669 357.669-357.669c28.526-28.526 74.606-28.526 103.131 0s28.526 74.606 0 103.131l-357.669 357.669 357.669 357.669c27.794 27.794 27.794 74.606 0 102.4z" />
<glyph unicode="&#xe90c;" glyph-name="alert" d="M512 960c-283.006 0-512-229.014-512-512 0-283.005 229.014-512 512-512 283.005 0 512 229.012 512 512 0 283.006-229.012 512-512 512zM512 15.997c-238.786 0-432 193.234-432 432.003 0 238.786 193.23 432 432 432 238.785 0 432.003-193.23 432.003-432 0-238.785-193.234-432.003-432.003-432.003zM512 702.246c-22.092 0-40-17.908-40-40v-257.585c0-22.094 17.907-40.003 40-40.003s40 17.909 40 40.003v257.585c0 22.092-17.907 40-40 40zM512 207.679c29.823 0 54 24.178 54 53.999 0 29.827-24.177 54.005-54 54.005s-54-24.178-54-54.005c0-29.821 24.177-53.999 54-53.999z" />
<glyph unicode="&#xe914;" glyph-name="zoom" d="M420.842 960c232.428 0 420.844-188.417 420.844-420.842 0-90.891-28.817-175.052-77.806-243.848l184.001-184.001c23.522-23.522 23.522-61.657 0-85.185l-14.011-14.005c-23.522-23.522-61.663-23.522-85.185 0l-184.001 184.001c-68.793-48.989-152.953-77.806-243.842-77.806-232.425 0-420.842 188.416-420.842 420.844 0 232.425 188.417 420.842 420.842 420.842zM420.848 819.719c-154.95 0-280.561-125.612-280.561-280.562s125.611-280.562 280.561-280.562c154.95 0 280.562 125.612 280.562 280.562s-125.612 280.562-280.562 280.562z" />
<glyph unicode="&#xe915;" glyph-name="prev" d="M743.265 779.092l-331.094-331.094 331.094-331.093c33.28-33.28 33.28-87.040 0-120.32s-87.040-33.28-120.32 0l-391.68 391.68c-33.28 33.28-33.28 87.040 0 120.32l391.68 391.68c33.28 33.28 87.040 33.28 120.32 0 32.426-33.28 33.28-87.893 0-121.173z" />
<glyph unicode="&#xe916;" glyph-name="next" d="M280.735 779.092l331.094-331.094-331.094-331.093c-33.28-33.28-33.28-87.040 0-120.32s87.040-33.28 120.32 0l391.68 391.68c33.28 33.28 33.28 87.040 0 120.32l-391.68 391.68c-33.28 33.28-87.040 33.28-120.32 0-32.427-33.28-33.28-87.893 0-121.173z" />
<glyph unicode="&#xe917;" glyph-name="arrow" d="M64.461 383.546h719.93l-314.526-314.528c-25.136-25.136-25.136-66.383 0-91.518s65.741-25.136 90.877 0l424.742 424.737c25.136 25.136 25.136 65.741 0 90.877l-424.097 425.384c-25.136 25.136-65.741 25.136-90.877 0s-25.136-65.741 0-90.877l313.881-315.171h-719.93c-35.449 0-64.452-29.003-64.452-64.452s29.003-64.452 64.452-64.452z" />
<glyph unicode="&#xe918;" glyph-name="date" d="M245.333 928c-29.455 0-53.333-23.878-53.333-53.333v-106.667h-106.667c-29.455 0-53.333-23.878-53.333-53.333v-693.336c0-29.453 23.878-53.331 53.333-53.331h853.336c29.453 0 53.331 23.878 53.331 53.331v693.336c0 29.455-23.878 53.333-53.331 53.333h-106.669v106.667c0 29.455-23.878 53.333-53.331 53.333-29.459 0-53.338-23.878-53.338-53.333v-106.667h-426.664v106.667c0 29.455-23.878 53.333-53.334 53.333zM245.333 661.333h620.798c10.605 0 19.2-8.596 19.2-19.2v-548.264c0-10.605-8.595-19.2-19.2-19.2h-708.264c-10.604 0-19.2 8.595-19.2 19.2v548.264c0 10.604 8.596 19.2 19.2 19.2h87.466zM405.333 474.667c0-44.183-35.817-80-80-80s-80 35.817-80 80c0 44.182 35.818 80 80 80s80-35.818 80-80z" />
<glyph unicode="&#xe919;" glyph-name="change" d="M665.088 550.4v-91.648c0-23.040-27.648-34.304-43.52-18.432l-142.336 142.848c-9.728 10.24-9.728 26.112 0 36.352l142.336 142.848c15.872 16.384 43.52 5.12 43.52-17.92v-91.648h307.712c28.16 0 51.2-23.040 51.2-51.2s-23.040-51.2-51.2-51.2h-307.712zM51.2 345.6h307.712v92.16c0 22.528 27.648 34.304 43.52 17.92l142.336-142.848c9.728-10.24 9.728-26.112 0-36.352l-142.336-142.848c-15.872-16.384-43.52-5.12-43.52 17.92v91.648h-307.712c-28.16 0-51.2 23.040-51.2 51.2s23.040 51.2 51.2 51.2z" />
<glyph unicode="&#xe91a;" glyph-name="carret" d="M146.133 730.24l331.094-331.093 331.093 331.093c33.28 33.28 87.040 33.28 120.32 0s33.28-87.040 0-120.32l-391.68-391.68c-33.28-33.28-87.040-33.28-120.32 0l-391.68 391.68c-33.28 33.28-33.28 87.040 0 120.32 33.28 32.427 87.893 33.28 121.173 0z" />
<glyph unicode="&#xe91b;" glyph-name="add" d="M950.857 374.857h-365.714v-365.714c0-40.229-32.914-73.143-73.143-73.143s-73.143 32.914-73.143 73.143v365.714h-365.714c-40.229 0-73.143 32.914-73.143 73.143s32.914 73.143 73.143 73.143h365.714v365.714c0 40.229 32.914 73.143 73.143 73.143s73.143-32.914 73.143-73.143v-365.714h365.714c40.229 0 73.143-32.914 73.143-73.143s-32.914-73.143-73.143-73.143z" />
<glyph unicode="&#xe91c;" glyph-name="dash" d="M512-64c-282.77 0-512 229.233-512 512 0 282.77 229.23 512 512 512 282.767 0 512-229.23 512-512 0-282.767-229.233-512-512-512zM846.131 582.758c-0.686 11.473-4.055 22.626-9.83 32.563-5.12 10.24-14.234 18.227-24.883 22.323-10.86 5.412-22.892 8.051-35.021 7.68h-454.451l-32.563-97.587h411.75l-65.024-199.475h-411.648l-32.563-97.587h456.602c13.604 0.394 27.059 2.985 39.834 7.68 2.34 1.326 4.736 2.662 7.173 4.014 10.9 6.047 22.533 12.498 32.66 20.869 12.099 9.539 23.025 20.465 32.563 32.563 7.885 11.853 14.602 24.438 20.070 37.581l60.314 189.645c5.489 12.478 7.229 26.281 5.018 39.731zM209.408 493.261l-32.563-90.214h244.736l30.106 90.214h-242.278z" />
<glyph unicode="&#xe91e;" glyph-name="bitcoin" d="M388.051-48.671c274.318-68.398 552.124 98.524 620.507 372.813 68.383 274.3-98.529 552.153-372.828 620.537-274.238 68.384-552.044-98.559-620.395-372.876-68.415-274.269 98.511-552.091 372.716-620.473zM624.993 650.122c70.927-24.432 122.798-61.055 112.604-129.183-7.373-49.871-35.021-74.014-71.726-82.478 50.401-26.24 76.047-66.483 51.615-136.238-30.316-86.641-102.349-93.952-198.139-75.827l-23.249-93.164-56.176 13.998 22.944 91.919c-14.56 3.615-29.44 7.455-44.768 11.617l-23.024-92.355-56.112 14.003 23.248 93.343c-5.244 1.341-10.521 2.719-15.836 4.106l-0.020 0.005c-7.975 2.079-16.035 4.178-24.192 6.221l-73.103 18.227 27.888 64.302c0 0 41.392-11.008 40.831-10.194 15.904-3.932 22.96 6.436 25.744 13.348l63.039 252.812c0.688 11.936-3.424 26.992-26.176 32.672 0.88 0.592-40.799 10.144-40.799 10.144l14.944 60 77.471-19.344-0.064-0.288c11.648-2.896 23.648-5.648 35.872-8.432l23.024 92.255 56.145-14-22.564-90.447c15.073-3.44 30.244-6.912 45.010-10.592l22.4 89.855 56.177-14-23.009-92.287zM447.307 315.52c45.837-12.104 146.014-38.564 161.943 25.436 16.323 65.439-80.835 87.24-128.245 97.879h-0.008c-5.294 1.188-9.968 2.237-13.793 3.195l-30.847-123.663c3.135-0.778 6.81-1.751 10.922-2.836l0.030-0.010zM626.627 521.947c-14.52-58.169-97.879-35.923-136.097-25.724-3.473 0.927-6.573 1.754-9.215 2.413l27.968 112.159c3.204-0.799 7.131-1.668 11.58-2.653l0.005-0.001c39.567-8.759 120.586-26.695 105.759-86.193z" />
<glyph unicode="&#xe91f;" glyph-name="clock" d="M1024 448c0 282.77-229.228 512-512 512-282.77 0-512-229.23-512-512 0-282.772 229.23-512 512-512 282.772 0 512 229.228 512 512zM113.778 448c0 219.932 178.29 398.222 398.222 398.222s398.222-178.29 398.222-398.222c0-219.932-178.29-398.222-398.222-398.222s-398.222 178.29-398.222 398.222zM455.111 618.667c0 31.419 25.47 56.889 56.889 56.889s56.889-25.47 56.889-56.889v-170.667c0-0.206-0.001-0.412-0.003-0.617l104.827-104.832c22.221-22.215 22.221-58.231 0-80.452-22.215-22.215-58.231-22.215-80.452 0l-120.678 120.684c-9.368 9.365-14.786 21.187-16.254 33.394-0.794 2.888-1.217 5.928-1.217 9.068v193.422z" />
<glyph unicode="&#xe920;" glyph-name="grid" d="M56.889 960h341.333c31.419 0 56.889-25.47 56.889-56.889v-455.111c0-31.419-25.47-56.889-56.889-56.889h-341.333c-31.419 0-56.889 25.47-56.889 56.889v455.111c0 31.419 25.47 56.889 56.889 56.889zM113.778 846.222v-341.333h227.556v341.333h-227.556zM625.778 960h341.333c31.42 0 56.889-25.47 56.889-56.889v-227.556c0-31.419-25.469-56.889-56.889-56.889h-341.333c-31.42 0-56.889 25.47-56.889 56.889v227.556c0 31.419 25.469 56.889 56.889 56.889zM682.667 846.222v-113.778h227.556v113.778h-227.556zM967.111 504.889h-341.333c-31.42 0-56.889-25.47-56.889-56.889v-455.111c0-31.42 25.469-56.889 56.889-56.889h341.333c31.42 0 56.889 25.469 56.889 56.889v455.111c0 31.419-25.469 56.889-56.889 56.889zM910.222 49.778h-227.556v341.333h227.556v-341.333zM56.889 277.333h341.333c31.419 0 56.889-25.469 56.889-56.889v-227.556c0-31.42-25.47-56.889-56.889-56.889h-341.333c-31.419 0-56.889 25.469-56.889 56.889v227.556c0 31.42 25.47 56.889 56.889 56.889zM113.778 163.556v-113.778h227.556v113.778h-227.556z" />
<glyph unicode="&#xe921;" glyph-name="swap" horiz-adv-x="896" d="M852.433 729.457c0.529-1.51 1.058-3.023 1.374-4.617 0.563-2.848 0.879-5.76 0.879-8.72s-0.316-5.856-0.879-8.704c-0.311-1.517-0.806-2.959-1.301-4.396-0.111-0.321-0.222-0.642-0.329-0.964-0.145-0.41-0.265-0.829-0.38-1.248-0.149-0.546-0.299-1.091-0.516-1.616-0.832-1.952-1.907-3.776-2.991-5.584-0.158-0.272-0.299-0.555-0.444-0.838-0.192-0.385-0.384-0.771-0.614-1.13-1.617-2.384-3.439-4.624-5.47-6.656l-199.889-199.872c-8.593-8.593-19.84-12.894-31.104-12.894s-22.515 4.301-31.104 12.894c-17.186 17.199-17.186 45.056 0 62.225l124.783 124.784h-651.104c-24.304 0-44 19.696-44 44s19.696 44 44 44h651.104l-124.753 124.768c-17.182 17.2-17.182 45.056 0 62.224 17.199 17.184 45.043 17.184 62.225 0l199.842-199.84c2.031-2.032 3.853-4.272 5.47-6.656 0.23-0.359 0.422-0.745 0.614-1.13 0.145-0.284 0.286-0.567 0.444-0.838 1.101-1.824 2.159-3.632 2.991-5.584 0.23-0.535 0.38-1.091 0.529-1.647 0.111-0.409 0.222-0.817 0.367-1.217 0.085-0.248 0.171-0.495 0.256-0.743zM150.24 238.665h651.104c24.303 0 43.985-19.712 43.985-44.015 0-24.307-19.699-44.002-44.002-44.002h-651.103l124.752-124.766c17.184-17.203 17.184-45.056 0-62.225-8.592-8.593-19.84-12.898-31.104-12.898s-22.512 4.305-31.104 12.898l-199.856 199.855c-2.032 2.031-3.856 4.271-5.472 6.656-0.216 0.341-0.397 0.704-0.576 1.067-0.139 0.277-0.278 0.555-0.432 0.823-1.104 1.839-2.192 3.678-3.024 5.662-0.215 0.512-0.36 1.045-0.505 1.574-0.114 0.418-0.227 0.836-0.375 1.242-0.103 0.299-0.207 0.597-0.311 0.9-0.515 1.472-1.031 2.953-1.337 4.51-0.576 2.846-0.88 5.743-0.88 8.704 0 2.957 0.304 5.854 0.88 8.704 0.304 1.481 0.789 2.897 1.272 4.301 0.126 0.367 0.253 0.738 0.376 1.105 0.152 0.422 0.271 0.849 0.39 1.28 0.144 0.521 0.288 1.037 0.49 1.536 0.816 2.001 1.92 3.84 3.024 5.666 0.154 0.265 0.293 0.542 0.432 0.823 0.179 0.358 0.36 0.721 0.576 1.062 1.616 2.385 3.44 4.625 5.472 6.656l199.888 199.889c17.2 17.182 45.040 17.199 62.224 0s17.184-45.056 0-62.225l-124.784-124.783z" />
<glyph unicode="&#xe922;" glyph-name="home" d="M997.053 690.526l-432.705 240.392c-32.555 18.086-72.14 18.086-104.695 0l-432.705-240.392v-700.632c0-29.766 24.129-53.895 53.895-53.895h377.263v269.474c0 29.766 24.129 53.895 53.895 53.895s53.895-24.129 53.895-53.895v-269.474h377.263c29.766 0 53.895 24.129 53.895 53.895v700.632zM134.737 627.102l377.263 209.591 377.263-209.591v-583.313h-215.579v161.684c0 89.298-72.386 161.684-161.684 161.684-89.295 0-161.684-72.386-161.684-161.684v-161.684h-215.579v583.313z" />
<glyph unicode="&#xe923;" glyph-name="moon" d="M929.28 212.907c-105.387 0-280.32 56.747-370.347 231.68-99.413 192.426-21.333 361.813 22.613 429.653-228.694-8.107-411.734-195.413-411.734-426.24 0-5.973 0.853-11.947 0.853-17.92 26.027 11.093 54.613 17.92 84.48 17.92 0 131.84 73.813 246.186 183.468 302.933-21.334-93.44-23.041-215.040 44.373-345.6 66.987-129.707 178.347-211.2 290.133-250.027-52.48-31.573-113.067-49.067-176.213-49.067-21.333 0-42.667 2.133-63.147 5.973-15.787-29.867-40.107-54.187-69.973-69.973 41.813-13.653 86.613-21.333 132.693-21.333 149.333 0 280.747 76.8 357.12 192.853-7.253-0.427-15.787-0.853-24.32-0.853zM384 277.333h-7.68c-17.92 49.493-64.853 85.333-120.32 85.333-70.827 0-128-57.173-128-128s57.173-128 128-128c26.453 0 106.24 0 128 0 46.933 0 85.333 38.4 85.333 85.333s-38.4 85.333-85.333 85.333z" />
</font>
</defs>
</svg>
