<svg width="35" height="35" viewBox="0 0 35 35" fill="none" xmlns="http://www.w3.org/2000/svg">
<path d="M27.7083 8.72681H30.625C30.6236 7.5669 30.1623 6.45489 29.3421 5.63471C28.5219 4.81453 27.4099 4.35316 26.25 4.35181V7.26847C26.6366 7.26891 27.0073 7.42269 27.2807 7.69609C27.5541 7.96949 27.7079 8.34017 27.7083 8.72681Z" fill="#00BBFF"/>
<path d="M26.25 0V2.91667C27.7966 2.9184 29.2793 3.53354 30.3729 4.62713C31.4665 5.72071 32.0816 7.20344 32.0833 8.75H35C34.9974 6.43014 34.0747 4.20603 32.4344 2.56564C30.794 0.925251 28.5699 0.00255728 26.25 0V0Z" fill="#00BBFF"/>
<path d="M18.9583 23.3333V20.4167C18.9597 19.2568 19.4211 18.1447 20.2412 17.3246C21.0614 16.5044 22.1734 16.043 23.3333 16.0417H29.1667V14.5833C29.1649 13.0368 28.5498 11.554 27.4562 10.4605C26.3626 9.36688 24.8799 8.75174 23.3333 8.75H1.45833C1.07156 8.75 0.700626 8.90365 0.427136 9.17714C0.153645 9.45063 0 9.82156 0 10.2083L0 33.5417C0 33.9284 0.153645 34.2994 0.427136 34.5729C0.700626 34.8464 1.07156 35 1.45833 35H23.3333C24.8799 34.9983 26.3626 34.3831 27.4562 33.2895C28.5498 32.196 29.1649 30.7132 29.1667 29.1667V27.7083H23.3333C22.1734 27.707 21.0614 27.2456 20.2412 26.4254C19.4211 25.6053 18.9597 24.4932 18.9583 23.3333ZM14.5833 18.9583H9.47917C9.28578 18.9583 9.10031 19.0352 8.96357 19.1719C8.82682 19.3086 8.75 19.4941 8.75 19.6875C8.75 19.8809 8.82682 20.0664 8.96357 20.2031C9.10031 20.3398 9.28578 20.4167 9.47917 20.4167H10.9375C11.8416 20.4158 12.7138 20.7508 13.3848 21.3568C14.0558 21.9628 14.4777 22.7965 14.5685 23.6961C14.6594 24.5957 14.4128 25.4969 13.8765 26.2248C13.3403 26.9528 12.5527 27.4555 11.6667 27.6354V29.1667H8.75V27.7083H5.83333V24.7917H10.9375C11.1309 24.7917 11.3164 24.7148 11.4531 24.5781C11.5898 24.4414 11.6667 24.2559 11.6667 24.0625C11.6667 23.8691 11.5898 23.6836 11.4531 23.5469C11.3164 23.4102 11.1309 23.3333 10.9375 23.3333H9.47917C8.57504 23.3342 7.70282 22.9992 7.03184 22.3932C6.36086 21.7872 5.93899 20.9535 5.84813 20.0539C5.75726 19.1543 6.00389 18.2531 6.54012 17.5252C7.07636 16.7972 7.86395 16.2945 8.75 16.1146V14.5833H11.6667V16.0417H14.5833V18.9583Z" fill="#00BBFF"/>
<path d="M30.6254 17.5H23.3337C22.5601 17.5 21.8183 17.8073 21.2713 18.3543C20.7243 18.9013 20.417 19.6431 20.417 20.4167V23.3333C20.417 24.1069 20.7243 24.8487 21.2713 25.3957C21.8183 25.9427 22.5601 26.25 23.3337 26.25H30.6254C31.0121 26.25 31.3831 26.0964 31.6566 25.8229C31.93 25.5494 32.0837 25.1784 32.0837 24.7917V18.9583C32.0837 18.5716 31.93 18.2006 31.6566 17.9271C31.3831 17.6536 31.0121 17.5 30.6254 17.5Z" fill="#00BBFF"/>
</svg>
