<svg width="48" height="48" viewBox="0 0 48 48" fill="none" xmlns="http://www.w3.org/2000/svg">
<path d="M48 24C48 37.2518 37.254 47.9962 23.9942 47.9981C10.7441 47.9981 -0.00191928 37.2518 1.02915e-06 23.9981C-0.00383959 10.7443 10.7422 0 23.9981 0C37.254 0 48 10.7462 48 24Z" fill="#EAB300"/>
<path d="M33.4423 18.1209C33.1332 14.9068 30.3583 13.8297 26.8519 13.5225V9.06235H24.1385V13.4035C23.426 13.4035 22.6963 13.4169 21.9724 13.4323V9.06235H19.259L19.257 13.5187C18.6694 13.5302 18.0914 13.5417 17.5288 13.5417V13.5283L13.7861 13.5263V16.4255C13.7861 16.4255 15.7909 16.3871 15.7563 16.4236C16.8567 16.4236 17.2138 17.0611 17.3175 17.6121V22.6924C17.3944 22.6924 17.4923 22.6963 17.6037 22.7116H17.3175L17.3156 29.8291C17.2676 30.1747 17.0641 30.7257 16.2959 30.7276C16.3305 30.7584 14.3238 30.7276 14.3238 30.7276L13.7842 33.9686H17.3175C17.9743 33.9686 18.6214 33.9801 19.2551 33.984L19.257 38.494H21.9685V34.032C22.7117 34.0473 23.4318 34.0531 24.1365 34.0531L24.1346 38.494H26.848V33.9936C31.4107 33.7324 34.608 32.5824 35.0035 28.2969C35.3242 24.8467 33.7016 23.3049 31.1111 22.6828C32.6877 21.8841 33.6728 20.4729 33.4423 18.1209ZM29.644 27.7631C29.644 31.1328 23.8735 30.7507 22.0319 30.7507V24.7737C23.8735 24.7776 29.644 24.2495 29.644 27.7631ZM28.3804 19.3324C28.3804 22.3987 23.5643 22.0396 22.0319 22.0415V16.6233C23.5662 16.6233 28.3823 16.1356 28.3804 19.3324Z" fill="white"/>
<path d="M17.3213 22.5735H17.7245V22.8711H17.3213V22.5735Z" fill="white"/>
</svg>
