<svg width="48" height="48" viewBox="0 0 48 48" fill="none" xmlns="http://www.w3.org/2000/svg">
<path d="M24 48C37.2548 48 48 37.2548 48 24C48 10.7452 37.2548 0 24 0C10.7452 0 0 10.7452 0 24C0 37.2548 10.7452 48 24 48Z" fill="#3CC8C8"/>
<path d="M23.5829 8.09469C24.3239 7.7011 25.2285 8.61418 24.8348 9.36829C24.6061 9.98301 23.7391 10.1465 23.2963 9.6779C22.8271 9.2282 22.9801 8.33937 23.5829 8.09469ZM15.6124 8.96985C16.0626 8.7811 16.6324 9.20119 16.5865 9.70093C16.6343 10.2434 15.983 10.6427 15.5242 10.3849C14.9163 10.1451 14.9858 9.13989 15.6124 8.96985ZM31.9369 10.4002C31.2334 10.3136 31.1221 9.18699 31.7994 8.96015C32.3247 8.6992 32.8066 9.18855 32.8835 9.69573C32.7733 10.1288 32.4173 10.5253 31.9369 10.4002ZM17.426 12.4253C18.1786 11.9404 19.2525 12.6625 19.1367 13.5529C19.0976 14.4519 17.9253 14.9728 17.2638 14.365C16.6243 13.8876 16.7212 12.7924 17.426 12.4253ZM28.9148 12.9397C29.2506 12.0583 30.6111 12.0317 30.9932 12.8897C31.371 13.5574 30.9064 14.3842 30.2333 14.6112C29.3418 14.7808 28.4951 13.7991 28.9148 12.9397ZM22.6231 14.5612C22.6158 13.8036 23.2932 13.2391 24.0001 13.1875C24.4689 13.2833 24.98 13.4867 25.1811 13.9686C25.5559 14.6334 25.2231 15.5487 24.5458 15.8538C24.236 16.0306 23.8699 15.9643 23.5326 15.9437C23.017 15.6859 22.5828 15.1802 22.6231 14.5612ZM10.7698 15.6651C11.4573 15.2346 12.3848 16.0202 12.1245 16.7809C11.9812 17.4389 11.1129 17.7066 10.6165 17.2866C10.0866 16.893 10.1705 15.9466 10.7698 15.6651ZM36.2231 15.6637C36.8064 15.2024 37.7689 15.7316 37.6994 16.4817C37.7385 17.1657 36.9064 17.6815 36.3273 17.3293C35.6897 17.0374 35.6246 16.0381 36.2231 15.6637ZM25.9565 17.0256C26.919 16.6734 28.0622 17.0949 28.6108 17.969C29.3345 19.0376 28.9495 20.6649 27.8265 21.2781C26.6628 22.0033 24.9636 21.3886 24.5339 20.0649C24.046 18.88 24.7568 17.397 25.9565 17.0256ZM20.309 17.1421C21.3758 16.6292 22.8114 17.0595 23.3267 18.1711C23.9331 19.253 23.4642 20.7595 22.3802 21.3181C21.2947 21.946 19.7633 21.4699 19.238 20.3084C18.649 19.1851 19.1721 17.6594 20.309 17.1421ZM14.6543 19.1113C14.7354 18.4112 15.3838 17.9557 16.0379 17.9086C16.7428 17.9951 17.3058 18.5527 17.3825 19.2793C17.3362 19.9986 16.7905 20.7016 16.0422 20.6973C15.2189 20.7695 14.4971 19.9352 14.6543 19.1113ZM31.3565 18.0608C32.2018 17.5596 33.3754 18.2892 33.3379 19.2783C33.3958 20.3262 32.0969 21.0647 31.2552 20.45C30.3809 19.9382 30.4491 18.4966 31.3565 18.0608ZM18.0108 21.7543C18.9994 21.4772 20.1297 21.9518 20.6145 22.8774C21.1456 23.809 20.9285 25.1032 20.1037 25.7865C19.0458 26.7887 17.0947 26.3863 16.5316 25.0185C15.8846 23.7647 16.6705 22.0843 18.0108 21.7543ZM28.7224 21.7491C29.6834 21.4691 30.8123 21.8464 31.329 22.7382C32.012 23.7581 31.686 25.2793 30.669 25.9368C29.6038 26.7002 27.9538 26.2994 27.3676 25.1056C26.657 23.8708 27.372 22.1257 28.7224 21.7491ZM11.6526 22.9127C12.5065 22.5837 13.4531 23.5435 13.1071 24.4059C12.8958 25.1915 11.8088 25.4819 11.2473 24.9027C10.5903 24.3588 10.8335 23.1486 11.6526 22.9127ZM34.7982 24.1641C34.7735 23.4434 35.2912 22.8052 36.0167 22.7654C36.6015 22.8597 37.1702 23.3402 37.124 23.9887C37.1775 24.8452 36.1643 25.4273 35.4479 25.0249C35.1122 24.8511 34.94 24.5002 34.7982 24.1641ZM7.45393 23.3357C7.96768 23.1073 8.60314 23.5609 8.48584 24.142C8.4583 24.8 7.50459 25.053 7.15422 24.5032C6.84465 24.1214 7.02995 23.5326 7.45393 23.3357ZM39.8463 23.3226C40.2081 23.0602 40.7885 23.2488 40.9318 23.6793C41.1749 24.1494 40.7292 24.7936 40.2096 24.7141C39.4803 24.7818 39.2444 23.6497 39.8463 23.3226ZM20.8012 26.4812C22.153 26.1231 23.6062 27.2713 23.6147 28.6892C23.7029 30.1219 22.2717 31.3924 20.8879 31.0615C19.8182 30.8861 18.979 29.8365 19.0136 28.7356C19.0107 27.6826 19.7909 26.7039 20.8012 26.4812ZM26.1548 26.4783C27.5269 26.0876 29.0234 27.2564 29.0017 28.707C29.0741 30.1132 27.6876 31.3409 26.3327 31.062C25.0577 30.894 24.1169 29.4672 24.4729 28.2069C24.6525 27.3671 25.3414 26.6841 26.1548 26.4783ZM15.8326 27.351C16.782 27.186 17.6722 28.2649 17.2871 29.1832C17.0063 30.1617 15.6082 30.4272 14.9901 29.6279C14.265 28.8603 14.8063 27.457 15.8326 27.351ZM31.533 27.3941C32.3796 27.0329 33.4188 27.7789 33.3537 28.7148C33.3877 29.7451 32.1047 30.4556 31.2768 29.8542C30.3391 29.3143 30.5097 27.7254 31.533 27.3941ZM35.9214 31.8776C35.5899 31.2481 36.192 30.4138 36.8781 30.5304C37.2197 30.5245 37.4585 30.7986 37.6771 31.0286C37.722 31.4016 37.7973 31.8466 37.4934 32.134C37.0806 32.6661 36.1456 32.5143 35.9214 31.8776ZM10.7669 30.7056C11.4081 30.2708 12.3309 30.9193 12.1867 31.6829C12.1101 32.3583 11.2749 32.7442 10.7247 32.361C10.1343 32.0132 10.1561 31.0227 10.7669 30.7056ZM23.4353 32.1193C24.2748 31.742 25.3443 32.4864 25.2647 33.4282C25.3269 34.4689 24.0042 35.1896 23.1834 34.5647C22.2717 34.028 22.4237 32.4493 23.4353 32.1193ZM17.5678 33.5136C18.2828 33.1304 19.2423 33.7922 19.1772 34.6073C19.1989 35.2765 18.5577 35.8469 17.9093 35.748C17.3723 35.7363 17.0221 35.2459 16.8499 34.7796C16.8587 34.2713 17.0641 33.7053 17.5678 33.5136ZM29.4532 33.5254C30.1884 33.0625 31.2334 33.7273 31.1639 34.599C31.1828 35.51 30.0018 36.0935 29.3172 35.4951C28.6544 35.026 28.7353 33.8983 29.4532 33.5254ZM31.5201 38.73C31.193 38.226 31.578 37.6187 32.1091 37.5037C32.5362 37.5922 32.9877 37.9193 32.8979 38.4235C32.8357 39.106 31.8558 39.3153 31.5201 38.73ZM15.1131 38.2923C15.2434 37.8928 15.5589 37.4958 16.0206 37.5997C16.6936 37.6483 16.8934 38.6816 16.3043 39C15.7746 39.3638 15.1601 38.8656 15.1131 38.2923ZM23.0285 38.7506C23.1574 38.1597 23.9085 37.8722 24.4035 38.1861C24.7306 38.3292 24.8261 38.702 24.9101 39.0189C24.8652 39.1839 24.8251 39.3491 24.7857 39.5141C24.583 39.7588 24.3226 40.0035 23.9853 39.9946C23.3585 40.0694 22.7931 39.3477 23.0285 38.7506Z" fill="white"/>
</svg>
