<svg width="48" height="48" viewBox="0 0 48 48" fill="none" xmlns="http://www.w3.org/2000/svg">
<path d="M24 48C37.2548 48 48 37.2548 48 24C48 10.7452 37.2548 0 24 0C10.7452 0 0 10.7452 0 24C0 37.2548 10.7452 48 24 48Z" fill="#2CA6E0"/>
<path d="M27.462 16.4606C27.462 11.5871 25.1127 7.38836 23.3132 6.01377C23.3132 6.01377 23.1882 5.93879 23.1882 6.13873C23.0383 15.5609 18.2647 18.1351 15.6155 21.5591C9.54234 29.5067 15.1906 38.2041 20.9389 39.8036C24.163 40.7034 20.1891 38.2041 19.6893 32.9557C19.0895 26.5826 27.462 21.7341 27.462 16.4606Z" fill="white"/>
<path d="M30.6112 19.6847C30.5862 19.6597 30.5362 19.6597 30.4862 19.6847C30.4862 19.6847 30.4862 19.6847 30.4612 19.7097C30.3612 20.8844 29.0616 23.4336 27.4371 25.7579C21.9138 33.6555 25.0628 37.4544 26.8373 39.5038C27.862 40.7034 26.8373 39.5038 29.4115 38.2791C29.6115 38.1792 34.41 35.6299 34.9349 29.8567C35.4597 24.2334 31.8858 20.7094 30.6112 19.6847Z" fill="white"/>
</svg>
