<svg width="48" height="48" viewBox="0 0 48 48" fill="none" xmlns="http://www.w3.org/2000/svg">
<path d="M24 48C37.2548 48 48 37.2548 48 24C48 10.7452 37.2548 0 24 0C10.7452 0 0 10.7452 0 24C0 37.2548 10.7452 48 24 48Z" fill="#48A3FF"/>
<path d="M10.35 10.8003L10.5 11.1003L32.4 33.0003C32.7 33.3003 32.7 33.4503 32.4 33.7503C30.5133 35.5089 28.1527 36.6763 25.6098 37.1082C23.067 37.54 20.4533 37.2175 18.0918 36.1803C15.7302 35.1431 13.7243 33.4368 12.3218 31.2722C10.9192 29.1076 10.1816 26.5795 10.2 24.0003V11.1003V10.9503L10.35 10.8003ZM37.8 37.2003L37.5 36.9003L15.6 15.0003C15.3 14.7003 15.3 14.5503 15.6 14.4003C17.4774 12.6504 19.8242 11.4858 22.3532 11.0489C24.8822 10.612 27.4837 10.9219 29.8394 11.9406C32.195 12.9592 34.2026 14.6425 35.6165 16.7844C37.0304 18.9263 37.7892 21.4339 37.8 24.0003V37.0503V37.2003Z" fill="white"/>
</svg>
