<svg width="28" height="34" viewBox="0 0 28 34" fill="none" xmlns="http://www.w3.org/2000/svg">
<path fill-rule="evenodd" clip-rule="evenodd" d="M20.2334 17.457C19.8832 16.4524 19.2781 15.556 18.4774 14.8555L18.1733 14.6018L18.1564 14.5853C18.0592 14.5064 17.9577 14.433 17.8524 14.3654L17.8355 14.3485C17.7343 14.2809 17.6329 14.2136 17.5145 14.1459C17.4976 14.1459 17.4976 14.129 17.482 14.129C17.3786 14.066 17.2714 14.0095 17.161 13.9599C17.1441 13.9599 17.1441 13.9433 17.1285 13.9433C17.027 13.8926 16.9087 13.8419 16.7906 13.7911C16.7737 13.7911 16.7737 13.7742 16.7581 13.7742C16.6567 13.7417 16.5552 13.6897 16.4541 13.6559C16.18 13.5517 15.897 13.4725 15.6086 13.4195C15.3891 13.8422 15.085 14.2136 14.7471 14.5345C15.2574 14.5727 15.7583 14.6925 16.2307 14.8893C16.4995 15.0037 16.759 15.1388 17.0069 15.2935C17.0192 15.2956 17.0306 15.3015 17.0394 15.3104C17.107 15.343 17.1574 15.395 17.2251 15.4457C17.2572 15.4629 17.2858 15.4858 17.3096 15.5134C17.37 15.553 17.4265 15.5982 17.4784 15.6483C17.5109 15.6808 17.5461 15.699 17.5799 15.7329C17.6306 15.7836 17.6813 15.8174 17.7321 15.8681L17.8332 15.9693L17.9685 16.1046L18.0699 16.2057C18.1049 16.2544 18.1444 16.2997 18.188 16.341C18.2205 16.3735 18.2556 16.4255 18.2894 16.4593L18.3909 16.6112C18.4234 16.6619 18.4582 16.6958 18.4751 16.7465L18.5766 16.8984C18.6091 16.9491 18.6273 16.9998 18.6611 17.0336C18.6937 17.0844 18.7119 17.1351 18.7454 17.1855C18.7789 17.2359 18.7961 17.287 18.8299 17.3377C18.8468 17.3884 18.8806 17.4391 18.8976 17.4896C18.9301 17.5572 18.9483 17.6248 18.9821 17.6756C19.1231 18.0224 19.2196 18.3857 19.2692 18.7568L19.4211 19.348C19.4887 19.6013 20.0969 21.7636 21.516 22.49C23.1377 23.3355 25.283 24.382 26.1275 24.7875L14.9965 31.4442V26.8831C14.9965 26.1566 16.4326 25.312 17.0914 25.0249L17.124 25.008C17.2589 24.9404 17.3942 24.8727 17.5291 24.7885L17.5799 24.756C17.8675 24.5837 18.1389 24.3859 18.3909 24.1648C18.4078 24.1479 18.4413 24.1322 18.4582 24.0971C18.4907 24.0802 18.5089 24.0464 18.5428 24.0295C18.6273 23.9619 18.695 23.8776 18.7792 23.81L18.8117 23.7775C18.8993 23.6954 18.9786 23.6049 19.0484 23.5072C19.065 23.4747 19.0988 23.4565 19.1158 23.4227C19.1834 23.355 19.2341 23.2705 19.3018 23.1863C19.3187 23.1694 19.3343 23.1355 19.3525 23.1186L19.5551 22.8146C19.5551 22.7977 19.572 22.7977 19.572 22.7821C19.6565 22.6468 19.7408 22.4949 19.8253 22.3593C19.4874 21.9541 19.2341 21.5138 19.0315 21.1093C18.945 21.36 18.8376 21.603 18.7106 21.8357C18.6598 21.9372 18.5922 22.0383 18.5415 22.1398C18.5246 22.1567 18.5246 22.1723 18.5089 22.1723C18.4567 22.2539 18.4004 22.3328 18.3402 22.4087C18.3233 22.4256 18.3077 22.4595 18.2894 22.4764C18.2369 22.557 18.1744 22.6308 18.1034 22.6959C18.0868 22.7128 18.0868 22.7284 18.0709 22.7284C17.6643 23.1917 17.1707 23.5706 16.618 23.8435L16.5165 23.8942C16.2294 24.0123 13.7462 25.1442 13.7462 26.8502V31.4104L2.5973 24.7716C3.32378 24.3322 5.41834 23.0806 7.14153 22.5417C7.81728 22.3219 9.25301 23.2344 10.064 23.8932L10.1144 23.9436C10.2192 24.0483 10.3322 24.1444 10.4523 24.2311L10.4848 24.2636C10.7382 24.4665 11.0087 24.6691 11.3128 24.8213L11.5154 24.9225C11.5277 24.9245 11.5391 24.9304 11.5479 24.9394C11.7351 25.0406 11.9277 25.1315 12.1248 25.2119C12.1573 25.2288 12.1755 25.2288 12.2093 25.2444C12.2262 25.2444 12.2418 25.2613 12.277 25.2613C12.5593 25.3614 12.8469 25.446 13.1384 25.515C13.3579 25.0922 13.6789 24.7208 14.0164 24.3999C13.5421 24.3688 13.0752 24.2663 12.6314 24.0958C12.6145 24.0789 12.5807 24.0789 12.5638 24.0633C12.5102 24.0479 12.4589 24.0252 12.4116 23.9957C12.3947 23.9788 12.3609 23.9788 12.344 23.9632C12.2974 23.9441 12.2523 23.9216 12.209 23.8958C11.8777 23.7349 11.566 23.5364 11.2799 23.3043L10.8409 22.8965C10.434 22.5384 9.99264 22.2216 9.52324 21.9505C8.42604 21.3255 7.49632 21.1226 6.78675 21.3421C5.31688 21.8153 3.64572 22.7105 2.63112 23.3017L13.7634 3.3024V12.0696C13.7634 12.3736 13.3082 13.1847 11.77 13.8773L11.6689 13.9277C11.5167 13.995 11.3814 14.0796 11.2295 14.1641L11.197 14.1811C10.9067 14.357 10.63 14.5547 10.3694 14.7722C10.2056 14.9056 10.0533 15.0526 9.91412 15.2116L9.89721 15.2285C9.74774 15.3734 9.61129 15.5312 9.48942 15.7L9.47251 15.7169C9.4052 15.8015 9.35447 15.8857 9.28683 15.9703C9.28683 15.9872 9.26992 15.9872 9.26992 16.0028C9.21919 16.0873 9.16846 16.155 9.11773 16.2392C9.11773 16.2561 9.10114 16.2561 9.10114 16.2717L8.94895 16.5293C8.93204 16.5462 8.93204 16.5618 8.91643 16.5969C8.8657 16.6815 8.83188 16.766 8.79806 16.8336C8.7961 16.846 8.79029 16.8573 8.78148 16.8662C8.74896 16.9507 8.71384 17.0184 8.68002 17.1029C8.66311 17.1354 8.66311 17.1536 8.6475 17.1871L8.54604 17.4408C8.52913 17.4733 8.52913 17.4912 8.51352 17.525C8.49849 17.5894 8.4759 17.6519 8.4462 17.711C8.42929 17.7435 8.42929 17.7786 8.41369 17.8121C8.39678 17.8967 8.36296 17.9812 8.34605 18.0489C8.32914 18.0814 8.32914 18.1331 8.31353 18.1669C8.29662 18.2177 8.29662 18.2853 8.28101 18.336C8.2654 18.3868 8.2641 18.4375 8.24849 18.4879C8.23158 18.5555 8.23158 18.6232 8.21597 18.6908C8.21597 18.7415 8.19906 18.775 8.19906 18.8258C8.19906 18.8934 8.18215 18.9441 8.18215 19.0118C8.18492 19.0742 8.17923 19.1366 8.16524 19.1975V19.4508C8.1619 19.7563 8.18453 20.0616 8.23288 20.3633C8.67221 20.4644 9.12813 20.6504 9.6182 20.8868C9.485 20.4424 9.41119 19.9822 9.39869 19.5184V19.4339C9.3959 19.321 9.40155 19.208 9.4156 19.096V19.0118C9.41823 18.9153 9.42911 18.8192 9.44812 18.7246V18.6921C9.46503 18.5907 9.48064 18.4892 9.49885 18.3711C9.49885 18.3386 9.51576 18.3204 9.51576 18.2866C9.53267 18.202 9.56649 18.1178 9.5834 18.0333C9.5834 18.0164 9.60031 18.0008 9.60031 17.9825L9.70177 17.6785C9.71868 17.6616 9.71868 17.6278 9.73429 17.6108C9.76681 17.5263 9.80161 17.4421 9.83543 17.3744C9.85233 17.3575 9.85233 17.3419 9.86794 17.3068C9.91867 17.2053 9.95249 17.1211 10.0201 17.0366C10.037 17.0197 10.037 17.004 10.0527 16.9858C10.1031 16.9013 10.1369 16.834 10.1876 16.7494C10.2045 16.7325 10.2045 16.7169 10.2201 16.6987C10.2765 16.6103 10.3385 16.5257 10.4058 16.4454C10.4058 16.4431 10.4062 16.4409 10.407 16.4388C10.4078 16.4368 10.4091 16.4349 10.4107 16.4333C10.4122 16.4317 10.4141 16.4305 10.4162 16.4296C10.4183 16.4288 10.4205 16.4284 10.4227 16.4285C10.4904 16.3439 10.5411 16.2763 10.6087 16.192C10.6256 16.1751 10.6256 16.1595 10.6413 16.1413C10.9447 15.8047 11.2912 15.5094 11.6718 15.2633L12.1953 15.01C12.4825 14.8919 14.9487 13.7261 14.9487 12.0201V3.305L26.1796 23.4708C25.1829 22.9807 23.4093 22.1024 22.0409 21.3928C21.2471 20.9876 20.7232 19.5516 20.5713 19.028L20.4191 18.4199C20.4191 18.099 20.3349 17.778 20.2334 17.457ZM27.8351 23.8087L15.4528 1.59449C15.3469 1.4002 15.1906 1.23804 15.0003 1.12506C14.81 1.01208 14.5928 0.952454 14.3715 0.952454C14.1502 0.952454 13.933 1.01208 13.7428 1.12506C13.5525 1.23804 13.3962 1.4002 13.2903 1.59449L0.907929 23.8087C0.586964 24.383 0.772649 25.1264 1.34726 25.4642L13.7465 32.8786C13.9424 32.9892 14.1635 33.0474 14.3884 33.0474C14.6134 33.0474 14.8345 32.9892 15.0304 32.8786L27.4127 25.4811C27.9704 25.1264 28.173 24.383 27.8355 23.8087H27.8351Z" fill="white"/>
</svg>
