<svg width="48" height="49" viewBox="0 0 48 49" fill="none" xmlns="http://www.w3.org/2000/svg">
<path d="M24 48.0063C37.2461 48.0063 48 37.2524 48 24.0063C48 10.7601 37.2524 0 24 0C10.7476 0 0 10.7539 0 24C0 37.2461 10.7539 48.0063 24 48.0063Z" fill="#A6E000"/>
<path d="M27.528 41.6783C25.0044 41.6783 23.165 41.0882 22.0099 39.8703C20.8547 38.6524 20.296 37.378 20.296 35.9718C20.296 35.4759 20.3902 35.0364 20.6099 34.6911C20.7982 34.3459 21.0745 34.0696 21.4197 33.8813C21.765 33.693 22.1982 33.5674 22.7004 33.5674C23.2026 33.5674 23.6358 33.6616 23.9811 33.8813C24.3264 34.0696 24.6026 34.3459 24.7909 34.6911C24.9792 35.0364 25.1048 35.4696 25.1048 35.9718C25.1048 36.5933 24.9479 37.0955 24.6654 37.4659C24.3829 37.8426 24.0125 38.1188 23.6044 38.2444C23.9497 38.7089 24.5084 39.0542 25.2555 39.2739C26.0025 39.4936 26.7496 39.5878 27.5029 39.5878C28.5639 39.5878 29.4993 39.3053 30.3405 38.7466C31.1817 38.1879 31.8032 37.3466 32.2113 36.2543C32.6193 35.162 32.8014 33.919 32.8014 32.5127C32.8014 30.9872 32.5817 29.7066 32.1485 28.6456C31.709 27.5533 31.0875 26.7435 30.2463 26.2475C29.4051 25.7202 28.5011 25.4691 27.5029 25.4691C26.85 25.4691 26.0716 25.7516 25.1048 26.2789L23.347 27.1201V26.2475L31.2947 15.6506H20.296V26.6556C20.296 27.5596 20.4843 28.3066 20.8861 28.903C21.2942 29.4931 21.9157 29.7756 22.7255 29.7756C23.3784 29.7756 23.9748 29.5559 24.5649 29.1227C25.155 28.6833 25.6572 28.156 26.0904 27.5658C26.1532 27.4403 26.216 27.3461 26.2787 27.3147C26.3729 27.252 26.4357 27.2206 26.5299 27.2206C26.6868 27.2206 26.8438 27.2833 27.0572 27.4403C27.2455 27.66 27.3397 27.9048 27.3397 28.1873C27.3397 28.3129 27.2769 28.5012 27.2455 28.7461C26.8061 29.7756 26.1846 30.5541 25.3747 31.0814C24.5649 31.6087 23.6923 31.8912 22.7255 31.8912C20.3274 31.8912 18.7015 31.4267 17.7661 30.4913C16.8621 29.5559 16.3975 28.2752 16.3975 26.687V15.6506H10.7852V13.5915H16.4289V8.91452L15.1482 7.63385V6.57291H18.8898L20.2897 7.28857V13.5601L34.8479 13.5287L36.2793 14.96L27.3711 23.9122C27.8984 23.6924 28.4634 23.5669 29.0535 23.5041C30.0203 23.5041 31.1127 23.818 32.2929 24.4395C33.5108 25.0296 34.4462 25.8708 35.099 26.9318C35.7519 27.9927 36.1914 28.9909 36.3797 29.9577C36.5681 30.9245 36.6936 31.7657 36.6936 32.5441C36.6936 34.258 36.3169 35.8463 35.6013 37.3153C34.8856 38.778 33.7933 39.9017 32.2992 40.6174C30.8302 41.333 29.2419 41.6783 27.528 41.6783Z" fill="white"/>
</svg>
