<svg width="48" height="48" viewBox="0 0 48 48" fill="none" xmlns="http://www.w3.org/2000/svg">
<path d="M24 48C37.2548 48 48 37.2548 48 24C48 10.7452 37.2548 0 24 0C10.7452 0 0 10.7452 0 24C0 37.2548 10.7452 48 24 48Z" fill="black"/>
<path d="M16.6558 21.6654H16.6705L16.9208 21.7535L17.1563 21.8416L17.4065 21.915L17.642 22.0177L17.8922 22.1058L18.1278 22.1939L18.378 22.2819L18.6135 22.37L18.849 22.4581L19.0845 22.5461L19.3348 22.6342L19.5703 22.737L19.8205 22.8104L20.056 22.8984L20.3062 22.9865L20.5418 23.0893L20.792 23.1773L21.0275 23.2507L21.263 23.3388L21.5132 23.4415L21.7635 23.5296V23.148V23.0893V22.781V22.5608V22.3994V22.0177V21.6508V21.2691V20.9022V20.5058V20.1389V20.0948H21.4691H21.1894H21.16H20.8509H20.6154H20.527H20.2179H20.056H19.8941H19.5703H19.482H19.2612H18.952H18.9373H18.9226H18.6282H18.3633H18.3191H17.9953H17.7892H17.2299H16.6705H16.6558H16.332L16.0965 20.2123L15.5371 20.5058L14.9631 20.8141L14.389 21.093L13.8444 21.3866L13.2703 21.6948L12.6963 21.9737L12.1369 22.2819L11.5629 22.5755L11.0035 22.8544L10.4442 23.1626L9.929 23.4269L9.87012 31.8376L10.4442 32.2339L11.0035 32.6302L11.5629 33.0119L12.1369 33.4229L12.6963 33.8192L13.2703 34.2155L13.5206 34.4063L13.8444 33.9953L14.389 33.2614L14.4479 33.188L14.389 33.144L13.8444 32.7477L13.2703 32.3514L12.6963 31.955L12.1369 31.5587L11.5629 31.1477L11.4157 31.0597L11.4598 24.2489L11.5629 24.1901L12.1369 23.9112L12.6963 23.6324L13.2703 23.3535L13.8444 23.0746L14.389 22.781L14.9631 22.5021L15.5371 22.2379L16.0965 21.9443L16.6558 21.6654Z" fill="url(#paint0_linear)"/>
<path d="M26.4002 37.7094L25.9292 37.9002L25.3993 38.1204L24.8694 38.3259L24.3395 38.5461L24.104 38.6342L23.8243 38.5021L23.2944 38.2232L22.7645 37.9736L22.2493 37.6947L21.7194 37.4305L21.1895 37.181L20.6596 36.9021L20.1297 36.6379L19.5998 36.3737L19.0699 36.1095L18.54 35.8306L18.0395 35.5811L17.5096 35.3168L17.4508 35.2875V28.418H16.9797H16.4498H15.9199V36.2269L16.4498 36.4764L16.9797 36.7407L17.5096 37.0195L18.0395 37.2691L18.54 37.548L19.0699 37.8122L19.5998 38.0764L20.1297 38.3406L20.6596 38.6048L21.1895 38.869L21.7194 39.1332L22.2493 39.4121L22.7645 39.6617L23.2944 39.9406L23.8243 40.1901L24.0304 40.3075L24.3395 40.1607L24.8694 39.9699L25.3993 39.7497L25.9292 39.5296L26.4444 39.3241L26.9743 39.1186L26.4444 37.7975L26.4002 37.7094Z" fill="url(#paint1_linear)"/>
<path d="M35.806 28.1687L35.8354 31.398L35.7029 31.5154L34.805 32.1319L33.9072 32.7778L33.0093 33.4236L32.1114 34.0548L31.2135 34.686L30.3303 35.3318L29.4324 35.963L28.9025 36.3446L28.5345 36.0658L27.6514 35.3759L26.7535 34.7007L25.8556 34.0108L24.9724 33.3356L24.8105 33.2181V29.7393L24.9724 29.5926L25.8556 28.6531L26.7535 27.7284L27.6514 26.789L28.5345 25.8642L29.403 24.9542H28.5345H27.6514H26.7535H25.8556H24.9724H24.0598H23.1619H22.2787H21.3809H20.483H19.5998H18.7019L19.5998 25.8936L20.483 26.8183L21.3809 27.7431L22.2787 28.6825L23.1619 29.6072L23.2944 29.7393V33.9521L24.0598 34.5539L24.9724 35.2438L25.8556 35.919L26.7535 36.6089L27.6514 37.2841L28.5345 37.9739L28.8584 38.2235L29.4324 37.8125L30.3303 37.196L31.2135 36.5501L32.1114 35.9043L33.0093 35.2878L33.9072 34.6419L34.805 33.9961L35.7029 33.3796L36.6008 32.7337L37.3368 32.1906L37.484 28.2275L36.6008 28.1981L35.806 28.1687Z" fill="url(#paint2_linear)"/>
<path d="M11.3274 20.6528H11.4305L11.4452 16.3373L12.0193 15.9704L12.7405 15.5447L13.4471 15.119L14.1536 14.6787L14.8601 14.253L15.5814 13.8127L16.2732 13.387L16.9945 12.9613L17.701 12.521L18.4222 12.0806H18.437L19.1141 12.4769L19.8353 12.8732L20.5419 13.2842L21.2484 13.6805L21.9549 14.0769L22.6615 14.4732L23.368 14.8842L24.0598 15.2805L24.0893 15.2218L24.7958 13.9448L24.0893 13.5338L23.368 13.1374L22.6615 12.7411L21.9549 12.3448L21.2484 11.9338L20.5419 11.5375L19.8353 11.1412L19.1141 10.7302L18.4222 10.3339L18.3928 10.3192L17.701 10.7302L16.9945 11.1705L16.2732 11.6109L15.5814 12.0512L14.8601 12.4769L14.1536 12.9026L13.4471 13.3429L12.7405 13.7686L12.0193 14.209L11.3274 14.6346L10.6062 15.0603L9.9291 15.486L9.89966 20.6381H10.6062L11.3274 20.6528Z" fill="url(#paint3_linear)"/>
<path d="M39.0001 16.7051L38.6321 16.4115L38.2641 16.118L37.8961 15.8097L37.5281 15.5161L37.1601 15.2226L36.7774 14.929L36.4094 14.6354L36.0414 14.3419L35.6587 14.0336L35.3791 13.8281L35.276 13.9456L34.908 14.4006L34.5401 14.8703L34.437 14.9877L34.5401 15.0905L34.908 15.3987L35.276 15.707L35.6587 16.0152L36.0414 16.3235L36.4094 16.6464L36.7774 16.9546L37.1601 17.2629L37.3368 17.4097L37.3515 24.3526L37.1601 24.4847L36.7774 24.7195L36.4094 24.9544L36.0414 25.1892L35.6587 25.4241L35.276 25.659L34.908 25.8938L34.5401 26.1287L34.1721 26.3635L33.8041 26.5984L33.4361 26.8332L33.0534 27.0681L32.6854 27.3029L32.3174 27.5378L31.9494 27.7727L31.5667 28.0075L31.1987 28.2424L31.5667 28.8295L31.9494 29.4166L32.0083 29.5194L32.3174 29.3286L32.6854 29.1084L33.0534 28.8735L33.4361 28.6534L33.8041 28.4038L34.1721 28.1837L34.5401 27.9488L34.908 27.7286L35.276 27.4938L35.6587 27.2736L36.0414 27.0241L36.4094 26.8039L36.7774 26.569L37.1601 26.3488L37.5281 26.114L37.8961 25.8938L38.2641 25.6443L38.6321 25.4241L39.0001 25.1892V16.7051Z" fill="url(#paint4_linear)"/>
<path d="M26.8565 20.844V21.2257V21.6073V21.9889V22.3853V22.7816V23.1632V23.5449V23.8384L26.9742 23.7944L27.4747 23.6036L27.9751 23.3981L28.4609 23.2073L28.9613 23.0018L29.4618 22.7963L29.9475 22.6054L30.448 22.3999L30.9485 22.2091L31.4342 22.0036L31.9347 21.8128L32.4204 21.6073V21.2257V21.0789V20.0661V12.5213L31.8611 12.1691L31.287 11.8461L30.713 11.5232L30.1536 11.1709L29.5796 10.848L29.0055 10.5251L28.4462 10.1875L27.8721 9.84987L27.3128 9.51227L26.7387 9.18934L26.1646 8.85174L25.6053 8.51413L25.046 8.19121L24.4719 7.86828L24.1628 7.69214L23.8978 7.83892L23.3238 8.14717L22.7497 8.44074L22.2051 8.76367L21.631 9.07191L21.057 9.36548L20.4829 9.68841L21.057 10.0113L21.631 10.3343L21.9843 10.5544L22.2051 10.437L22.7497 10.1434L23.3238 9.83519L23.8978 9.54162L24.1186 9.4242L24.4719 9.62969L25.046 9.95262L25.6053 10.2755L26.1646 10.6132L26.7387 10.9508L27.3128 11.2737L27.8721 11.6113L28.4462 11.9489L29.0055 12.2718L29.5796 12.5947L30.1536 12.947L30.713 13.2699L30.9043 13.3727V20.0661H30.7718H30.713H30.448H30.1536H30.1242H29.7856H29.5796H29.4618H29.138H29.0055H28.8141H28.4903H28.4462H28.1665H27.8721H27.8427H27.5041H27.3128H27.1803H26.9301H26.8859" fill="url(#paint5_linear)"/>
<path d="M26.8564 23.8387L32.4204 21.6076L26.8564 20.0663" fill="url(#paint6_linear)"/>
<path d="M21.7636 23.8384V20.1247L16.6707 21.6366L21.7636 23.8237" fill="url(#paint7_linear)"/>
<defs>
<linearGradient id="paint0_linear" x1="15.8131" y1="20.0993" x2="15.8131" y2="34.4005" gradientUnits="userSpaceOnUse">
<stop stop-color="#F6E93D"/>
<stop offset="0.13" stop-color="#F8E330"/>
<stop offset="0.35" stop-color="#F7C730"/>
<stop offset="0.64" stop-color="#F59C2E"/>
<stop offset="0.98" stop-color="#EB5E2C"/>
<stop offset="1" stop-color="#EB5C2C"/>
</linearGradient>
<linearGradient id="paint1_linear" x1="21.4493" y1="28.4238" x2="21.4493" y2="40.306" gradientUnits="userSpaceOnUse">
<stop stop-color="#F6E93D"/>
<stop offset="0.13" stop-color="#F8E330"/>
<stop offset="0.35" stop-color="#F7C730"/>
<stop offset="0.64" stop-color="#F59C2E"/>
<stop offset="0.98" stop-color="#EB5E2C"/>
<stop offset="1" stop-color="#EB5C2C"/>
</linearGradient>
<linearGradient id="paint2_linear" x1="28.0922" y1="24.9527" x2="28.0922" y2="38.2279" gradientUnits="userSpaceOnUse">
<stop stop-color="#F6E93D"/>
<stop offset="0.13" stop-color="#F8E330"/>
<stop offset="0.35" stop-color="#F7C730"/>
<stop offset="0.64" stop-color="#F59C2E"/>
<stop offset="0.98" stop-color="#EB5E2C"/>
<stop offset="1" stop-color="#EB5C2C"/>
</linearGradient>
<linearGradient id="paint3_linear" x1="17.347" y1="10.3236" x2="17.347" y2="20.6543" gradientUnits="userSpaceOnUse">
<stop stop-color="#F6E93D"/>
<stop offset="0.13" stop-color="#F8E330"/>
<stop offset="0.35" stop-color="#F7C730"/>
<stop offset="0.64" stop-color="#F59C2E"/>
<stop offset="0.98" stop-color="#EB5E2C"/>
<stop offset="1" stop-color="#EB5C2C"/>
</linearGradient>
<linearGradient id="paint4_linear" x1="35.1053" y1="13.8252" x2="35.1053" y2="29.5209" gradientUnits="userSpaceOnUse">
<stop stop-color="#F6E93D"/>
<stop offset="0.13" stop-color="#F8E330"/>
<stop offset="0.35" stop-color="#F7C730"/>
<stop offset="0.64" stop-color="#F59C2E"/>
<stop offset="0.98" stop-color="#EB5E2C"/>
<stop offset="1" stop-color="#EB5C2C"/>
</linearGradient>
<linearGradient id="paint5_linear" x1="26.4502" y1="7.69214" x2="26.4502" y2="23.8428" gradientUnits="userSpaceOnUse">
<stop stop-color="#F6E93D"/>
<stop offset="0.13" stop-color="#F8E330"/>
<stop offset="0.35" stop-color="#F7C730"/>
<stop offset="0.64" stop-color="#F59C2E"/>
<stop offset="0.98" stop-color="#EB5E2C"/>
<stop offset="1" stop-color="#EB5C2C"/>
</linearGradient>
<linearGradient id="paint6_linear" x1="29.6325" y1="20.0766" x2="29.6325" y2="23.8475" gradientUnits="userSpaceOnUse">
<stop stop-color="#F6E93D"/>
<stop offset="0.13" stop-color="#F8E330"/>
<stop offset="0.35" stop-color="#F7C730"/>
<stop offset="0.64" stop-color="#F59C2E"/>
<stop offset="0.98" stop-color="#EB5E2C"/>
<stop offset="1" stop-color="#EB5C2C"/>
</linearGradient>
<linearGradient id="paint7_linear" x1="19.1557" y1="22.9059" x2="20.3509" y2="19.6129" gradientUnits="userSpaceOnUse">
<stop stop-color="#F6E93D"/>
<stop offset="0.13" stop-color="#F8E330"/>
<stop offset="0.35" stop-color="#F7C730"/>
<stop offset="0.64" stop-color="#F59C2E"/>
<stop offset="0.98" stop-color="#EB5E2C"/>
<stop offset="1" stop-color="#EB5C2C"/>
</linearGradient>
</defs>
</svg>
