<svg width="32" height="30" viewBox="0 0 32 30" fill="none" xmlns="http://www.w3.org/2000/svg">
<path d="M13.823 27.9921L0.542965 0.943124C0.327169 0.511532 0.65164 0.000762939 1.12981 0.000762939H5.73138C5.97823 0.000762939 6.20955 0.140487 6.31822 0.356283L16.0166 19.9797C16.8814 21.7403 19.3824 21.7403 20.2472 19.9797L29.9145 0.371808C30.0232 0.156012 30.2545 0.0162878 30.5013 0.0162878H31.0727C31.4127 0.0162878 31.6285 0.371808 31.4748 0.665228L18.055 27.9921C17.1903 29.7511 14.6877 29.7511 13.823 27.9921Z" fill="white"/>
<path opacity="0.1" d="M13.823 27.9917L6.31823 0.371328C6.20955 0.140007 5.96271 0.0158081 5.76244 0.0158081H1.14533C0.636117 0.0158081 0.342696 0.525025 0.542967 0.958169L13.823 27.9917Z" fill="white"/>
<path opacity="0.1" d="M16.0166 19.993L0.542938 0.942361C0.358192 0.495244 0.636088 0.0465747 1.06768 0H5.74688C6.00925 0.0155249 6.20952 0.184746 6.30267 0.35552L16.0166 19.993Z" fill="white"/>
</svg>
