<svg width="48" height="48" viewBox="0 0 48 48" fill="none" xmlns="http://www.w3.org/2000/svg">
<path d="M24.2505 44.1142C13.3141 44.1142 4.38672 35.1779 4.38672 24.2506C4.38672 13.3143 13.3232 4.38687 24.2505 4.38687C35.1868 4.38687 44.114 13.3233 44.114 24.2506C44.114 35.1869 35.1868 44.1142 24.2505 44.1142Z" fill="url(#paint0_linear)"/>
<path d="M24 48C10.8 48 0 37.2 0 24C0 10.8 10.8 0 24 0C37.2 0 48 10.8 48 24C48 37.2 37.2 48 24 48ZM24 5.33645C13.7364 5.33645 5.33645 13.7364 5.33645 24C5.33645 34.2636 13.7364 42.6636 24 42.6636C34.2636 42.6636 42.6636 34.2636 42.6636 24C42.6636 13.7364 34.2636 5.33645 24 5.33645Z" fill="black"/>
<path d="M23.4441 30.501H33.8442V35.7011H27.7079V40.101H22.3714V35.8374H15.9715C15.9715 34.101 15.7079 32.3737 16.1078 30.7738C16.2441 29.9737 17.1715 29.1737 17.844 28.3738C19.8441 25.9738 21.8442 23.5738 23.9806 21.1738C24.7804 20.2374 25.5805 19.4374 26.5169 18.3739H16.5169V13.1737H22.3804V8.77444H27.5806V13.0368H33.9805C33.9805 14.7731 34.2441 16.5005 33.8442 18.1005C33.7079 18.9005 32.7805 19.7004 32.1077 20.5005C30.1079 22.9005 28.1078 25.3005 25.9714 27.7005C25.1712 28.6374 24.3715 29.5646 23.4441 30.501Z" fill="black"/>
<defs>
<linearGradient id="paint0_linear" x1="10.6117" y1="37.8716" x2="38.0329" y2="10.4504" gradientUnits="userSpaceOnUse">
<stop stop-color="#CF8724"/>
<stop offset="1" stop-color="#FDCE58"/>
</linearGradient>
</defs>
</svg>
