<svg width="52" height="52" viewBox="0 0 52 52" fill="none" xmlns="http://www.w3.org/2000/svg">
<g filter="url(#filter0_d)">
<path d="M26 50C39.2548 50 50 39.2548 50 26C50 12.7452 39.2548 2 26 2C12.7452 2 2 12.7452 2 26C2 39.2548 12.7452 50 26 50Z" fill="white"/>
</g>
<path d="M39.0715 24.4342C39.1031 24.3941 39.1436 24.362 39.1897 24.3407C39.2358 24.3194 39.2862 24.3094 39.3368 24.3116L39.3653 24.3018C39.418 24.2607 39.4725 24.2215 39.5276 24.1835C38.9946 21.4381 37.6639 18.9163 35.706 16.9411C30.2544 11.4263 21.4233 11.549 15.9747 17.0637C10.5261 22.5784 11.0713 31.7649 16.5199 37.2796C21.9685 42.7944 30.2574 42.4296 35.706 36.9118C36.3222 36.2878 36.8795 35.607 37.3706 34.8782C37.192 34.5498 37.0379 34.2084 36.9096 33.8568C36.5641 32.8952 36.4047 31.8752 36.4402 30.8526C36.3476 30.1708 36.3823 29.4774 36.5426 28.8086C36.5529 28.7625 36.5737 28.7195 36.6031 28.6829C36.6098 28.6523 36.6159 28.6216 36.6237 28.5916C36.6783 28.3946 36.7575 28.2054 36.8594 28.0288C36.9127 27.8163 36.9857 27.6094 37.0774 27.4108C37.1888 27.0074 37.3416 26.6169 37.5336 26.2459C37.5802 26.1533 37.6317 26.0571 37.688 25.959C37.7011 25.8942 37.7358 25.836 37.7862 25.794C38.1078 25.2692 38.5482 24.7285 39.0715 24.4342ZM31.5228 32.676C30.399 33.8134 28.9672 34.588 27.4084 34.9018C25.8496 35.2157 24.2339 35.0546 22.7656 34.439C21.2972 33.8234 20.0422 32.781 19.1593 31.4435C18.2763 30.106 17.805 28.5335 17.805 26.9249C17.805 25.3163 18.2763 23.7438 19.1593 22.4063C20.0422 21.0688 21.2972 20.0264 22.7656 19.4108C24.2339 18.7952 25.8496 18.6341 27.4084 18.9479C28.9672 19.2618 30.399 20.0364 31.5228 21.1738C32.269 21.9291 32.8609 22.8257 33.2648 23.8124C33.6686 24.7992 33.8764 25.8568 33.8764 26.9249C33.8764 27.993 33.6686 29.0506 33.2648 30.0373C32.8609 31.0241 32.269 31.9207 31.5228 32.676Z" fill="url(#paint0_linear)"/>
<path d="M40.8539 19.7175C41.2144 19.5421 41.6063 19.4425 42.0059 19.4248C42.4056 19.4071 42.8046 19.4716 43.1788 19.6144C43.5531 19.7572 43.8949 19.9753 44.1835 20.2556C44.4721 20.536 44.7015 20.8726 44.8579 21.2452C45.0143 21.6178 45.0944 22.0187 45.0933 22.4235C45.0923 22.8284 45.0101 23.2288 44.8518 23.6006C44.6935 23.9724 44.4623 24.3078 44.1722 24.5866C43.8822 24.8653 43.5392 25.0817 43.1642 25.2225V25.2286C41.5902 25.8971 40.2673 27.0553 39.387 28.5355C38.5066 30.0157 38.1145 31.741 38.2674 33.4617L32.4154 33.9522C32.1059 30.3534 33.1071 26.6387 35.5828 23.6523C37.0049 21.9343 38.8121 20.5852 40.8539 19.7175Z" fill="url(#paint1_linear)"/>
<path d="M35.2848 22.7389L35.2915 22.7297C35.2937 22.7268 35.2957 22.7237 35.2975 22.7205C35.7495 22.0715 36.4376 21.6308 37.2106 21.4953C37.9835 21.3598 38.778 21.5406 39.4193 21.998C40.0605 22.4554 40.496 23.1519 40.6299 23.9342C40.7637 24.7166 40.5851 25.5207 40.1331 26.1697C39.2167 27.4149 38.9586 28.4731 38.9029 29.2352C38.8423 30.0874 38.8738 30.1376 38.8193 31.4018C38.7775 32.3779 38.4977 33.2184 38.2596 33.6672C37.5576 34.989 34.7463 34.962 32.9897 33.2607C32.8891 33.0617 32.7896 32.854 32.6911 32.6378C32.5768 32.3869 32.4712 32.1416 32.3743 31.9021C32.3688 31.8825 32.393 31.9892 32.3743 31.9021C32.347 31.7728 32.3416 31.6397 32.3585 31.5085C32.367 31.4178 32.367 31.4178 32.3821 31.1738C32.4148 30.6385 32.4324 30.0426 32.6396 29.1506C32.6826 28.9593 32.7292 28.7515 32.8098 28.4486C32.9836 27.8012 33.1787 27.2476 33.4204 26.5615C33.4234 26.5609 34.2872 23.9651 35.2848 22.7389Z" fill="url(#paint2_linear)"/>
<path d="M12.8864 22.1519C12.3969 23.4767 12.1066 24.8684 12.025 26.2804C12.0189 26.4478 12.0111 26.6145 12.0038 26.7831C11.9236 30.2613 13.1147 33.6471 15.3488 36.2911C17.5829 38.9352 20.7028 40.6516 24.1101 41.111C24.7764 41.1361 26.2387 41.2912 27.67 41.1012C29.2922 40.886 30.872 40.3152 31.193 40.2042C31.5217 40.0693 31.8464 39.9214 32.167 39.7604C32.8769 39.3698 33.9333 38.6672 34.5821 38.2092C34.8523 38.0192 35.3035 37.6188 35.8178 37.0983C36.8015 36.0959 37.6351 34.9533 38.2922 33.7067C38.4704 33.2993 38.5475 32.8539 38.517 32.4094C38.4067 30.9779 37.105 29.7045 35.7718 29.6125C35.2311 29.5738 34.6902 29.6863 34.2084 29.9377C33.7266 30.1891 33.3224 30.5697 33.0399 31.038C32.7177 31.4967 32.3615 31.93 31.9744 32.334C31.6206 32.7019 29.9924 34.3505 28.0613 34.9703C24.7073 36.0487 21.3891 33.7306 20.9548 33.4186C19.2169 32.4395 12.8864 22.1519 12.8864 22.1519Z" fill="url(#paint3_linear)"/>
<path d="M39.6364 17.6551C41.1793 17.6551 42.4301 16.3892 42.4301 14.8276C42.4301 13.2659 41.1793 12 39.6364 12C38.0935 12 36.8428 13.2659 36.8428 14.8276C36.8428 16.3892 38.0935 17.6551 39.6364 17.6551Z" fill="url(#paint4_linear)"/>
<path d="M32.336 31.8541C32.3281 31.8658 32.333 31.7726 32.3172 31.7928C30.7895 33.8847 28.6119 34.613 28.2588 34.7258C28.1522 34.7595 27.0164 35.0937 25.8909 35.0937C24.3947 35.1006 22.9263 34.6845 21.6511 33.8924C20.3759 33.1003 19.3445 31.9636 18.6731 30.6102C18.0016 29.2569 17.7169 27.7407 17.8508 26.2324C17.9848 24.7241 18.5321 23.2836 19.4312 22.0731C20.3303 20.8627 21.5455 19.9303 22.9398 19.3811C24.3342 18.8318 25.8524 18.6875 27.3234 18.9644C28.7944 19.2412 30.1598 19.9283 31.2659 20.9481C32.3719 21.9679 33.1747 23.2801 33.5838 24.7368C33.5917 24.7644 33.7425 25.4167 33.7989 25.4903C33.8594 25.3266 33.8994 25.245 33.9697 25.0844C34.0399 24.9238 34.1253 24.6552 34.2186 24.5075C34.2184 24.5061 34.2184 24.5046 34.2186 24.5032L34.3634 24.177C34.3634 24.177 34.3555 24.1617 34.2756 23.822C34.2089 23.5425 34.2041 23.5106 34.2023 23.502C33.3131 18.2295 28.7646 14.2266 23.3057 14.253C21.8605 14.26 20.431 14.5551 19.0986 15.1214C17.7661 15.6877 16.557 16.5141 15.5401 17.5534C14.5233 18.5926 13.7186 19.8245 13.1721 21.1785C12.6256 22.5325 12.348 23.9823 12.3551 25.4449C12.386 32.1386 18.3713 36.5565 23.4104 36.5295C28.4187 36.5025 31.6673 32.6928 32.1646 32.0809" fill="url(#paint5_linear)"/>
<defs>
<filter id="filter0_d" x="0" y="0" width="52" height="52" filterUnits="userSpaceOnUse" color-interpolation-filters="sRGB">
<feFlood flood-opacity="0" result="BackgroundImageFix"/>
<feColorMatrix in="SourceAlpha" type="matrix" values="0 0 0 0 0 0 0 0 0 0 0 0 0 0 0 0 0 0 127 0"/>
<feOffset/>
<feGaussianBlur stdDeviation="1"/>
<feColorMatrix type="matrix" values="0 0 0 0 0 0 0 0 0 0 0 0 0 0 0 0 0 0 0.25 0"/>
<feBlend mode="normal" in2="BackgroundImageFix" result="effect1_dropShadow"/>
<feBlend mode="normal" in="SourceGraphic" in2="effect1_dropShadow" result="shape"/>
</filter>
<linearGradient id="paint0_linear" x1="39.7907" y1="27.0498" x2="12.1511" y2="27.0498" gradientUnits="userSpaceOnUse">
<stop offset="0.09" stop-color="#6DC1D6"/>
<stop offset="0.31" stop-color="#72C6D7"/>
<stop offset="0.61" stop-color="#589AC5"/>
<stop offset="1" stop-color="#3864AF"/>
</linearGradient>
<linearGradient id="paint1_linear" x1="37.9562" y1="35.0507" x2="40.7183" y2="19.3191" gradientUnits="userSpaceOnUse">
<stop offset="0.47" stop-color="#FFDF7F"/>
<stop offset="0.57" stop-color="#FFBE6B"/>
<stop offset="0.69" stop-color="#FF9E58"/>
<stop offset="0.8" stop-color="#FF884A"/>
<stop offset="0.91" stop-color="#FF7A42"/>
<stop offset="1" stop-color="#FF753F"/>
</linearGradient>
<linearGradient id="paint2_linear" x1="41.3317" y1="27.4114" x2="34.2758" y2="28.998" gradientUnits="userSpaceOnUse">
<stop offset="0.01" stop-color="#E670A7"/>
<stop offset="0.12" stop-color="#CB65A2"/>
<stop offset="0.31" stop-color="#A2559B"/>
<stop offset="0.5" stop-color="#824895"/>
<stop offset="0.68" stop-color="#6C3F90"/>
<stop offset="0.85" stop-color="#5E3A8E"/>
<stop offset="1" stop-color="#59388D"/>
</linearGradient>
<linearGradient id="paint3_linear" x1="14.6551" y1="35.5582" x2="34.2445" y2="24.3839" gradientUnits="userSpaceOnUse">
<stop stop-color="#15ADFF"/>
<stop offset="0.06" stop-color="#40A3D4"/>
<stop offset="0.13" stop-color="#6D99A7"/>
<stop offset="0.21" stop-color="#949080"/>
<stop offset="0.3" stop-color="#B5885F"/>
<stop offset="0.38" stop-color="#D08244"/>
<stop offset="0.48" stop-color="#E57D2F"/>
<stop offset="0.59" stop-color="#F47A20"/>
<stop offset="0.72" stop-color="#FC7818"/>
<stop offset="0.92" stop-color="#FF7715"/>
</linearGradient>
<linearGradient id="paint4_linear" x1="38.0318" y1="17.1426" x2="41.2931" y2="12.5495" gradientUnits="userSpaceOnUse">
<stop stop-color="#55398D"/>
<stop offset="1" stop-color="#C05B9D"/>
</linearGradient>
<linearGradient id="paint5_linear" x1="12.3485" y1="25.3907" x2="34.3582" y2="25.39" gradientUnits="userSpaceOnUse">
<stop stop-color="#A3D6D9"/>
<stop offset="0.52" stop-color="#34A4DD"/>
<stop offset="0.56" stop-color="#349DD8"/>
<stop offset="0.74" stop-color="#367EC2"/>
<stop offset="0.89" stop-color="#386BB4"/>
<stop offset="1" stop-color="#3864AF"/>
</linearGradient>
</defs>
</svg>
