<svg width="48" height="48" viewBox="0 0 48 48" fill="none" xmlns="http://www.w3.org/2000/svg">
<path d="M24 48C37.2548 48 48 37.2548 48 24C48 10.7452 37.2548 0 24 0C10.7452 0 0 10.7452 0 24C0 37.2548 10.7452 48 24 48Z" fill="#026C79"/>
<path d="M8.33838 13H14.7963L22.3005 24.0005L18.6841 24.8046L15.6766 24.0005L8.33838 13Z" fill="white"/>
<path d="M8 35H14.4579L22.3005 24.0005H15.6766L8 35Z" fill="white"/>
<path d="M17.8193 13H24.2783L31.7815 24.0005L28.233 24.8495L25.1502 24.0005L17.8193 13Z" fill="white"/>
<path d="M32.6692 13H39.1281L33.2477 21.8723L29.9321 17.0153L32.6692 13Z" fill="white"/>
<path d="M27.1951 13H29.6836L28.4587 14.8494L27.1951 13Z" fill="white"/>
<path d="M33.0451 35H39.5041L33.2707 26.0233L29.9321 30.662L33.0451 35Z" fill="white"/>
<path d="M26.8118 35H30.0522L28.4513 32.7224L26.8118 35Z" fill="white"/>
<path d="M17.481 35H23.872L31.7814 24.0005H25.1502L17.481 35Z" fill="white"/>
</svg>
