<svg xmlns="http://www.w3.org/2000/svg" width="20" height="20" viewBox="0 0 20 20"><g><g><path fill="#141029" fill-opacity=".4" d="M14.406 8.575c-.144.974-.684 1.446-1.4 1.611.984.513 1.485 1.299 1.007 2.661-.592 1.692-1.999 1.835-3.87 1.481l-.454 1.82-1.097-.274.448-1.795c-.284-.07-.575-.146-.874-.227l-.45 1.804-1.096-.273.454-1.824c-.256-.065-.516-.135-.782-.201l-1.428-.356.545-1.256s.809.215.798.199c.31.077.448-.126.502-.26l1.232-4.939c.013-.233-.067-.527-.512-.638.018-.011-.796-.198-.796-.198l.291-1.172 1.514.378-.002.006c.228.056.462.11.7.164l.45-1.801 1.097.273-.44 1.767c.294.067.59.135.879.206l.437-1.755 1.097.274-.45 1.802c1.386.477 2.4 1.193 2.2 2.523zm-5.281 1.542l-.602 2.415c.743.185 3.037.921 3.376-.441.355-1.421-2.03-1.789-2.774-1.974zm3.114-1.561c.322-1.293-1.673-1.581-2.292-1.736L9.4 9.011c.619.154 2.528.784 2.838-.455zm.178-8.257C7.06-1.036 1.634 2.224.3 7.582c-1.337 5.357 1.924 10.783 7.28 12.119 5.357 1.336 10.783-1.925 12.118-7.282C21.034 7.062 17.774 1.635 12.417.3z"/></g></g></svg>