<svg width="48" height="48" viewBox="0 0 48 48" fill="none" xmlns="http://www.w3.org/2000/svg">
<path d="M24 48C37.2548 48 48 37.2548 48 24C48 10.7452 37.2548 0 24 0C10.7452 0 0 10.7452 0 24C0 37.2548 10.7452 48 24 48Z" fill="#141029"/>
<path d="M24 46.5C36.4264 46.5 46.5 36.4264 46.5 24C46.5 11.5736 36.4264 1.5 24 1.5C11.5736 1.5 1.5 11.5736 1.5 24C1.5 36.4264 11.5736 46.5 24 46.5Z" fill="#141029"/>
<path d="M36.7499 36.9H32.5499L29.6999 26.55L23.6999 36.9H18.8999L28.1999 21L26.6999 15.45L14.2499 36.9H9.1499L25.0499 9.75H29.3999L31.1999 16.5H35.5499L32.6999 21.6L36.7499 36.9Z" fill="white"/>
</svg>
