<svg width="48" height="48" viewBox="0 0 48 48" fill="none" xmlns="http://www.w3.org/2000/svg">
<path d="M47.2816 29.8059C44.0758 42.663 31.0522 50.4877 18.192 47.2815C5.33716 44.076 -2.48842 31.0531 0.718922 18.1968C3.92326 5.33814 16.9469 -2.48728 29.8033 0.718189C42.6626 3.92366 50.4875 16.948 47.2816 29.8059Z" fill="#141029"/>
<path d="M7 13H42V36H7V13Z" fill="white"/>
<path d="M9.19238 15H17.9366C16.4136 16.0775 15.1807 17.5072 14.3208 19.1753C13.4609 20.8433 13.0154 22.6875 13.0154 24.5627C13.0154 26.438 13.4609 28.2925 14.3208 29.9605C15.1807 31.6285 16.4136 33.0583 17.9366 34.1358H9.19238V15ZM24.4948 15C21.9979 15 19.6046 16.005 17.833 17.7973C16.0717 19.5897 15.0771 22.0244 15.0771 24.5627C15.0771 27.101 16.0717 29.5357 17.833 31.3281C19.5943 33.1205 21.9979 34.1254 24.4948 34.1254C26.9917 34.1254 29.3849 33.1205 31.1566 31.3281C32.9178 29.5357 33.9125 27.101 33.9125 24.5627C33.9125 22.0244 32.9178 19.5897 31.1566 17.7973C29.3953 16.005 26.9917 15 24.4948 15ZM39.8076 15H31.0633C32.5863 16.0775 33.8192 17.5072 34.6791 19.1753C35.539 20.8433 35.9845 22.6875 35.9845 24.5731C35.9845 26.4483 35.539 28.3028 34.6791 29.9709C33.8192 31.6389 32.5863 33.0687 31.0633 34.1461H39.8076V15Z" fill="#141029"/>
<path d="M28.6863 20.5696C28.156 19.0564 26.7075 18.8753 25.0132 19.1469L24.483 17L23.1896 17.3233L23.7069 19.4185C23.3707 19.5091 23.0215 19.5996 22.6852 19.6902L22.1679 17.582L20.8745 17.9053L21.4048 20.0523C21.1332 20.1299 20.8487 20.2075 20.59 20.2722V20.2592L18.8052 20.7119L19.1544 22.1087C19.1544 22.1087 20.0985 21.85 20.0856 21.8759C20.6029 21.7466 20.8487 22.0052 20.9651 22.2639L21.5729 24.7213C21.6247 24.7083 21.6635 24.6954 21.7152 24.6954L21.5729 24.7342L22.4136 28.1745C22.4265 28.3426 22.4007 28.6401 22.0385 28.7306C22.0644 28.7435 21.0944 28.9634 21.0944 28.9634L21.2237 30.593L22.9051 30.1662C23.2155 30.0886 23.5259 30.011 23.8233 29.9464L24.3536 32.1192L25.647 31.7958L25.1167 29.636C25.4788 29.5584 25.8151 29.4678 26.1514 29.3902L26.6816 31.5372L27.975 31.2138L27.4447 29.041C29.5787 28.3685 30.9626 27.4243 30.6393 25.3033C30.3806 23.596 29.4235 23.0528 28.1172 23.0658C28.7768 22.4838 29.0743 21.6819 28.6863 20.5696ZM28.0267 25.6783C28.4276 27.3079 25.634 27.8123 24.7675 28.0322L24.0561 25.1481C24.9356 24.9411 27.6128 23.997 28.0267 25.6783ZM26.4359 21.7724C26.798 23.2468 24.47 23.6607 23.7457 23.8418L23.0991 21.2292C23.8233 21.0352 26.0479 20.2204 26.4359 21.7724Z" fill="white"/>
</svg>
