<svg width="48" height="48" viewBox="0 0 48 48" fill="none" xmlns="http://www.w3.org/2000/svg">
<path d="M24 48C37.2548 48 48 37.2548 48 24C48 10.7452 37.2548 0 24 0C10.7452 0 0 10.7452 0 24C0 37.2548 10.7452 48 24 48Z" fill="#141029"/>
<path d="M23.9285 5.87463L28.4059 10.4599L17.1315 21.7343L12.6541 17.2569L23.9285 5.87463Z" fill="white" stroke="white"/>
<path d="M30.7255 12.6716L35.2029 17.2569L17.1315 35.3284L12.6541 30.851L30.7255 12.6716Z" fill="white" stroke="white"/>
<path d="M10.3343 19.4687L14.8117 24.0539L10.3343 28.5313L5.85693 24.0539L10.3343 19.4687Z" fill="white" stroke="white"/>
<path d="M37.5224 19.4687L41.9998 24.0539L23.9283 42.1254L19.4509 37.648L37.5224 19.4687Z" fill="white" stroke="white"/>
</svg>
