<svg width="48" height="48" viewBox="0 0 48 48" fill="none" xmlns="http://www.w3.org/2000/svg">
<path id="Combined Shape" fill-rule="evenodd" clip-rule="evenodd" d="M24 48C37.2548 48 48 37.2548 48 24C48 10.7452 37.2548 0 24 0C10.7452 0 0 10.7452 0 24C0 37.2548 10.7452 48 24 48ZM39.6624 17.6832C39.6302 17.1454 39.4724 16.6226 39.2016 16.1568C38.9616 15.6768 38.5344 15.3024 38.0352 15.1104C37.5261 14.8567 36.9621 14.733 36.3936 14.7504H15.0912L13.5648 19.3248H32.8656L29.8176 28.6752H10.5216L8.9952 33.2496H30.3984C31.0361 33.2311 31.6667 33.1096 32.2656 32.8896C32.375 32.8275 32.4872 32.7652 32.6011 32.702L32.6019 32.7016C33.1129 32.418 33.6581 32.1155 34.1328 31.7232C34.6998 31.2762 35.2122 30.7638 35.6592 30.1968C36.0287 29.6412 36.3438 29.0513 36.6 28.4352L39.4272 19.5456C39.6844 18.9607 39.7661 18.3137 39.6624 17.6832ZM9.816 21.8784H21.1728L19.7616 26.1072H8.2896L9.816 21.8784Z" fill="#141029"/>
</svg>
