<svg width="48" height="48" viewBox="0 0 48 48" fill="none" xmlns="http://www.w3.org/2000/svg">
<path d="M24 48C37.2548 48 48 37.2548 48 24C48 10.7452 37.2548 0 24 0C10.7452 0 0 10.7452 0 24C0 37.2548 10.7452 48 24 48Z" fill="#141029"/>
<path d="M39.7499 32.9997V14.9999L23.9492 6L8.25024 14.9999V32.9997L23.9492 41.9996L39.7499 32.9997ZM9.56358 32.1733V15.7457L23.9492 7.54198L38.3042 15.7457V32.1733L23.9492 40.3871L9.56358 32.1733Z" fill="white"/>
<path d="M30.0897 13.7727H17.8399L16.4319 20.3076L31.5681 20.3181L30.0897 13.7727Z" fill="white"/>
<path d="M20.1907 24.657L16.5057 22.364L12.3411 25.3948L18.0267 35.0456H20.2927L22.9773 32.593V31.3767L20.1907 28.7646V24.657Z" fill="white"/>
<path d="M31.8896 22.364L28.2244 24.6869V28.7945L25.4319 31.3967L25.4422 32.6329L28.1423 35.0456H30.3907L36.0681 25.4247L31.8896 22.364Z" fill="white"/>
<path d="M20.1138 21.1362L21.4912 24.6174L21.0666 28.4998L27.3427 28.4898L26.9491 24.6174L28.2955 21.1362H20.1138Z" fill="white"/>
</svg>
