<svg width="48" height="48" viewBox="0 0 48 48" fill="none" xmlns="http://www.w3.org/2000/svg">
<path d="M24 48C37.3001 48 48 37.3001 48 24C48 10.6999 37.3001 0 24 0C10.6999 0 0 10.6999 0 24C0 37.3001 10.6999 48 24 48Z" fill="#141029"/>
<path d="M22.3198 26.1394H29.2309C31.7987 26.1394 33.9021 24.0633 33.9021 21.4682C33.9021 18.8731 31.826 16.8244 29.2583 16.8244H27.0456L22.3198 12.7269H29.2309C34.066 12.6996 37.9996 16.6059 37.9996 21.4409C38.0269 25.0194 35.8416 28.2428 32.5089 29.5813L37.9723 34.307H31.7441L22.3198 26.1394Z" fill="white"/>
<path d="M25.7073 20.9227H18.7962C16.2284 20.9227 14.1251 22.9987 14.1251 25.5938C14.1251 28.1889 16.2011 30.265 18.7962 30.265H21.0089L25.7073 34.3625H18.7962C13.9612 34.3625 10.0276 30.4562 10.0003 25.6484C9.97294 22.0427 12.1583 18.8193 15.4909 17.4808L10.0276 12.7277H16.2831L25.7073 20.9227Z" fill="white"/>
<path d="M25.7073 20.9227H18.7962C16.2284 20.9227 14.1251 22.9987 14.1251 25.5938C14.1251 28.1889 16.2011 30.265 18.7962 30.265H21.0089L25.7073 34.3625H18.7962C13.9612 34.3625 10.0276 30.4562 10.0003 25.6484C9.97294 22.0427 12.1583 18.8193 15.4909 17.4808L10.0276 12.7277H16.2831L25.7073 20.9227Z" fill="white"/>
</svg>
