<svg width="48" height="48" viewBox="0 0 48 48" fill="none" xmlns="http://www.w3.org/2000/svg">
<path d="M24 0C10.7451 0 0 10.7451 0 24C0 37.2549 10.7451 48 24 48C37.2549 48 48 37.2549 48 24C48 10.7451 37.2549 0 24 0Z" fill="#141029"/>
<path d="M28.61 38.7896H19.263L11.7212 33.2562L8.84668 24.3188L11.715 15.3813L19.2569 9.84798H28.61L36.1518 15.3813L39.0201 24.3188L36.1518 33.2562L36.0467 33.3615L28.61 38.7896ZM19.4732 38.1459H28.3998L35.6263 32.8292L38.3896 24.3188L35.6263 15.8084L28.3998 10.4917H19.4732L12.2529 15.8084L9.48959 24.3188L12.2529 32.8292L19.4732 38.1459Z" fill="white"/>
<path d="M40.0894 37.2979L35.7313 33.3615L31.4782 31.7646L23.9364 32.724L16.2894 31.7646L12.0364 33.3615L11.8262 32.724L16.1782 31.0219H16.2894L23.9364 32.0865L31.5894 31.0219L31.6945 31.1271L36.1578 32.8292L40.5098 36.8709L40.0894 37.2979Z" fill="white"/>
<path d="M28.3995 39.1055L23.9362 32.9347L19.2628 39.1055L15.8628 31.5545L16.4995 31.2326L19.473 37.8305L23.9362 31.7649L28.2944 37.8305L31.2679 31.2326L35.3046 23.1493L36.2628 33.0399H35.6261L34.8781 25.4889L31.9046 31.5545L28.3995 39.1055Z" fill="white"/>
<path d="M9.27344 23.9974H38.8102V24.6349H9.27344V23.9974Z" fill="white"/>
<path d="M35.3048 25.489L31.5895 18.1484L28.3997 25.0619L23.9364 17.0838L19.368 25.0619L16.1782 18.1484L12.463 25.489L11.6099 15.7036L12.2528 15.5983L12.8895 23.2546L16.1782 16.7681L19.368 23.6817L23.9364 15.8088L28.2946 23.6817L31.5895 16.7681L34.8782 23.1494L35.4099 15.5983H36.0528L35.3048 25.489Z" fill="white"/>
<path d="M31.268 17.6158L28.2946 10.9127L23.9364 17.0835L19.4731 10.9127L16.4997 17.6158L15.968 17.3002L19.263 9.6377L23.9364 15.9137L28.3997 9.6377L31.9048 17.3002L31.268 17.6158ZM35.6262 33.0398L34.8782 25.4887L31.5895 32.0866L28.2946 25.0617L23.9364 33.0398L19.368 25.0617L16.1782 32.0866L12.8895 25.4887L12.2528 33.0398H11.6099L12.463 23.1491L16.1782 30.595L19.368 23.6814L23.9364 31.6595L28.3997 23.6814L31.5895 30.7002L35.3048 23.1491L36.263 33.0398H35.6262Z" fill="white"/>
<path d="M31.5894 17.8322L23.8313 16.7676L16.1782 17.8322L11.8262 15.9135L12.0364 15.276L16.2894 17.0833L23.8313 16.1301L31.5894 17.0833L35.7313 15.276L36.0527 15.9135L31.5894 17.8322Z" fill="white"/>
<path d="M19.3682 39.7429C20.0715 39.7429 20.6416 39.1721 20.6416 38.4679C20.6416 37.7638 20.0715 37.1929 19.3682 37.1929C18.6649 37.1929 18.0947 37.7638 18.0947 38.4679C18.0947 39.1721 18.6649 39.7429 19.3682 39.7429Z" fill="white"/>
<path d="M28.2949 39.7429C28.9982 39.7429 29.5684 39.1721 29.5684 38.4679C29.5684 37.7638 28.9982 37.1929 28.2949 37.1929C27.5916 37.1929 27.0215 37.7638 27.0215 38.4679C27.0215 39.1721 27.5916 39.7429 28.2949 39.7429Z" fill="white"/>
<path d="M19.3682 11.55C20.0715 11.55 20.6416 10.9792 20.6416 10.275C20.6416 9.57084 20.0715 9 19.3682 9C18.6649 9 18.0947 9.57084 18.0947 10.275C18.0947 10.9792 18.6649 11.55 19.3682 11.55Z" fill="white"/>
<path d="M28.2949 11.55C28.9982 11.55 29.5684 10.9792 29.5684 10.275C29.5684 9.57084 28.9982 9 28.2949 9C27.5916 9 27.0215 9.57084 27.0215 10.275C27.0215 10.9792 27.5916 11.55 28.2949 11.55Z" fill="white"/>
<path d="M35.7315 16.8729C36.4348 16.8729 37.0049 16.3021 37.0049 15.5979C37.0049 14.8937 36.4348 14.3229 35.7315 14.3229C35.0282 14.3229 34.458 14.8937 34.458 15.5979C34.458 16.3021 35.0282 16.8729 35.7315 16.8729Z" fill="white"/>
<path d="M11.9317 16.8729C12.635 16.8729 13.2051 16.3021 13.2051 15.5979C13.2051 14.8937 12.635 14.3229 11.9317 14.3229C11.2283 14.3229 10.6582 14.8937 10.6582 15.5979C10.6582 16.3021 11.2283 16.8729 11.9317 16.8729Z" fill="white"/>
<path d="M11.9317 34.4263C12.635 34.4263 13.2051 33.8555 13.2051 33.1513C13.2051 32.4471 12.635 31.8763 11.9317 31.8763C11.2283 31.8763 10.6582 32.4471 10.6582 33.1513C10.6582 33.8555 11.2283 34.4263 11.9317 34.4263Z" fill="white"/>
<path d="M9.27346 25.5936C9.97676 25.5936 10.5469 25.0227 10.5469 24.3185C10.5469 23.6144 9.97676 23.0435 9.27346 23.0435C8.57015 23.0435 8 23.6144 8 24.3185C8 25.0227 8.57015 25.5936 9.27346 25.5936Z" fill="white"/>
<path d="M38.7051 25.5936C39.4084 25.5936 39.9785 25.0227 39.9785 24.3185C39.9785 23.6144 39.4084 23.0435 38.7051 23.0435C38.0018 23.0435 37.4316 23.6144 37.4316 24.3185C37.4316 25.0227 38.0018 25.5936 38.7051 25.5936Z" fill="white"/>
<path d="M35.0947 25.5936C35.7981 25.5936 36.3682 25.0227 36.3682 24.3185C36.3682 23.6144 35.7981 23.0435 35.0947 23.0435C34.3914 23.0435 33.8213 23.6144 33.8213 24.3185C33.8213 25.0227 34.3914 25.5936 35.0947 25.5936Z" fill="white"/>
<path d="M12.6734 25.5936C13.3767 25.5936 13.9468 25.0227 13.9468 24.3185C13.9468 23.6144 13.3767 23.0435 12.6734 23.0435C11.97 23.0435 11.3999 23.6144 11.3999 24.3185C11.3999 25.0227 11.97 25.5936 12.6734 25.5936Z" fill="white"/>
<path d="M19.3682 25.5936C20.0715 25.5936 20.6416 25.0227 20.6416 24.3185C20.6416 23.6144 20.0715 23.0435 19.3682 23.0435C18.6649 23.0435 18.0947 23.6144 18.0947 24.3185C18.0947 25.0227 18.6649 25.5936 19.3682 25.5936Z" fill="white"/>
<path d="M28.2949 25.5936C28.9982 25.5936 29.5684 25.0227 29.5684 24.3185C29.5684 23.6144 28.9982 23.0435 28.2949 23.0435C27.5916 23.0435 27.0215 23.6144 27.0215 24.3185C27.0215 25.0227 27.5916 25.5936 28.2949 25.5936Z" fill="white"/>
<path d="M25.1941 16.6514C25.3068 15.9563 24.8353 15.3014 24.1411 15.1886C23.4469 15.0758 22.7928 15.5478 22.6801 16.2428C22.5674 16.9379 23.0389 17.5928 23.7331 17.7057C24.4273 17.8185 25.0814 17.3465 25.1941 16.6514Z" fill="white"/>
<path d="M16.1787 18.7855C16.882 18.7855 17.4522 18.2147 17.4522 17.5105C17.4522 16.8064 16.882 16.2355 16.1787 16.2355C15.4754 16.2355 14.9053 16.8064 14.9053 17.5105C14.9053 18.2147 15.4754 18.7855 16.1787 18.7855Z" fill="white"/>
<path d="M31.5899 18.7855C32.2932 18.7855 32.8633 18.2147 32.8633 17.5105C32.8633 16.8064 32.2932 16.2355 31.5899 16.2355C30.8866 16.2355 30.3164 16.8064 30.3164 17.5105C30.3164 18.2147 30.8866 18.7855 31.5899 18.7855Z" fill="white"/>
<path d="M23.9365 33.6771C24.6398 33.6771 25.21 33.1063 25.21 32.4021C25.21 31.698 24.6398 31.1271 23.9365 31.1271C23.2332 31.1271 22.6631 31.698 22.6631 32.4021C22.6631 33.1063 23.2332 33.6771 23.9365 33.6771Z" fill="white"/>
<path d="M16.1787 32.6126C16.882 32.6126 17.4522 32.0417 17.4522 31.3376C17.4522 30.6334 16.882 30.0625 16.1787 30.0625C15.4754 30.0625 14.9053 30.6334 14.9053 31.3376C14.9053 32.0417 15.4754 32.6126 16.1787 32.6126Z" fill="white"/>
<path d="M31.5899 32.6126C32.2932 32.6126 32.8633 32.0417 32.8633 31.3376C32.8633 30.6334 32.2932 30.0625 31.5899 30.0625C30.8866 30.0625 30.3164 30.6334 30.3164 31.3376C30.3164 32.0417 30.8866 32.6126 31.5899 32.6126Z" fill="white"/>
<path d="M40.3001 38.7896C41.239 38.7896 42.0001 38.0275 42.0001 37.0875C42.0001 36.1475 41.239 35.3854 40.3001 35.3854C39.3612 35.3854 38.6001 36.1475 38.6001 37.0875C38.6001 38.0275 39.3612 38.7896 40.3001 38.7896Z" fill="white"/>
</svg>
