<svg width="48" height="48" viewBox="0 0 48 48" fill="none" xmlns="http://www.w3.org/2000/svg">
<path d="M24 48C10.8 48 0 37.2 0 24C0 10.8 10.8 0 24 0C37.2 0 48 10.8 48 24C48 37.2 37.2 48 24 48Z" fill="#141029"/>
<path d="M36.0961 38.4H11.9041C10.6369 38.4 9.6001 37.3632 9.6001 36.096V11.904C9.6001 10.6368 10.6369 9.60001 11.9041 9.60001H36.0961C37.3633 9.60001 38.4001 10.6368 38.4001 11.904V36.096C38.4001 37.3632 37.3633 38.4 36.0961 38.4Z" fill="white"/>
<path d="M15.2197 35.5004C15.1438 35.5004 15.0824 35.4313 15.0824 35.3555V31.4857C15.0824 31.4099 15.021 31.3408 14.9451 31.3408H13.579C13.5022 31.3408 13.4341 31.2793 13.4341 31.2035V30.4556C13.4341 30.3798 13.5032 30.3107 13.579 30.3107H17.7838C17.8597 30.3107 17.9288 30.3788 17.9288 30.4556V31.2035C17.9288 31.2793 17.8597 31.3408 17.7838 31.3408H16.4254C16.3496 31.3408 16.2805 31.4089 16.2805 31.4857V35.3555C16.2805 35.4313 16.219 35.5004 16.1432 35.5004H15.2197Z" fill="#141029"/>
<path d="M22.126 30.4556C22.126 30.3798 22.1875 30.3107 22.2633 30.3107H23.1791C23.255 30.3107 23.3241 30.3788 23.3241 30.4556V33.0966C23.3241 34.6614 22.439 35.5696 21.0345 35.5696C19.6377 35.5696 18.7603 34.6614 18.7603 33.0966V30.4556C18.7603 30.3798 18.8217 30.3107 18.8975 30.3107H19.8134C19.8892 30.3107 19.9583 30.3788 19.9583 30.4556V33.134C19.9583 33.9049 20.3548 34.454 21.0422 34.454C21.7295 34.454 22.126 33.9049 22.126 33.134V30.4556Z" fill="#141029"/>
<path d="M27.5296 32.0051C27.4077 32.0051 27.3693 31.959 27.3232 31.8678C27.1629 31.4934 26.8115 31.2573 26.2778 31.2573C25.7968 31.2573 25.3926 31.4253 25.3926 31.7459C25.3926 32.0973 25.767 32.2422 26.5907 32.3411C27.8426 32.4861 28.5597 32.8681 28.5597 33.8598C28.5597 34.9744 27.5824 35.5619 26.3315 35.5619C25.2477 35.5619 24.3165 35.0349 24.1715 33.9289C24.1562 33.8224 24.2099 33.784 24.3165 33.784H25.1565C25.263 33.784 25.3245 33.8301 25.3552 33.9136C25.4694 34.2803 25.8592 34.5625 26.4237 34.5625C26.92 34.5625 27.3549 34.3792 27.3549 33.9904C27.3549 33.5248 26.897 33.4413 25.9811 33.3261C24.928 33.1888 24.1955 32.8835 24.1955 31.9139C24.1955 30.9443 25.0278 30.2502 26.3325 30.2502C27.5075 30.2502 28.3245 30.8838 28.4925 31.8304C28.5155 31.9369 28.4848 32.0061 28.3706 32.0061H27.5296V32.0051Z" fill="#141029"/>
<path d="M29.5977 35.5004C29.5219 35.5004 29.4604 35.4313 29.4604 35.3555V30.4556C29.4604 30.3798 29.5219 30.3107 29.5977 30.3107H31.6732C33.215 30.3107 34.4131 31.3715 34.4131 32.9209C34.4131 34.4473 33.2304 35.5004 31.6732 35.5004H29.5977ZM31.6732 34.4694C32.5056 34.4694 33.1536 33.8128 33.1536 32.9046C33.1536 31.9964 32.5046 31.3398 31.6656 31.3398H30.8035C30.7276 31.3398 30.6662 31.408 30.6662 31.4848V34.3312C30.6662 34.407 30.7276 34.4684 30.8035 34.4684H31.6732V34.4694Z" fill="#141029"/>
<path d="M37.6319 27.456H10.3679C10.1567 27.456 9.98389 27.2832 9.98389 27.072V11.904C9.98389 10.848 10.8479 9.98399 11.9039 9.98399H36.0959C37.1519 9.98399 38.0159 10.848 38.0159 11.904V27.072C38.0159 27.2832 37.8431 27.456 37.6319 27.456Z" fill="#141029"/>
<path d="M25.4139 24.3417H22.9179C22.7595 24.3417 22.6299 24.2121 22.6299 24.0537V13.4937C22.6299 13.3353 22.7595 13.2057 22.9179 13.2057H25.4139C25.5723 13.2057 25.7019 13.3353 25.7019 13.4937V24.0537C25.7019 24.2121 25.5723 24.3417 25.4139 24.3417Z" fill="white"/>
<path d="M29.6639 16.2777H18.3359C18.1775 16.2777 18.0479 16.1481 18.0479 15.9897V13.4937C18.0479 13.3353 18.1775 13.2057 18.3359 13.2057H29.6639C29.8223 13.2057 29.9519 13.3353 29.9519 13.4937V15.9897C29.9519 16.1481 29.8223 16.2777 29.6639 16.2777Z" fill="white"/>
</svg>
