<svg width="48" height="48" viewBox="0 0 48 48" fill="none" xmlns="http://www.w3.org/2000/svg">
<path d="M24 48C37.2548 48 48 37.2548 48 24C48 10.7452 37.2548 0 24 0C10.7452 0 0 10.7452 0 24C0 37.2548 10.7452 48 24 48Z" fill="#141029"/>
<path fill-rule="evenodd" clip-rule="evenodd" d="M26.8838 26.0745V26.0715C26.7179 26.0822 25.867 26.1333 23.9704 26.1333C22.4551 26.1333 21.3888 26.0903 21.0132 26.0707V26.0753C15.1822 25.8184 10.8284 24.8027 10.8284 23.5878C10.8284 22.3751 15.1822 21.3586 21.0132 21.0994V25.065C21.3949 25.0915 22.4874 25.156 23.9953 25.156C25.8059 25.156 26.7141 25.0808 26.8838 25.065V21.1014C32.7033 21.3606 37.046 22.377 37.046 23.5878C37.046 24.802 32.7033 25.8153 26.8838 26.0745ZM26.8838 20.6886V17.1396H35.0039V11.7275H12.892V17.1396H21.0132V20.6878C14.4134 20.9908 9.4502 22.2979 9.4502 23.8639C9.4502 25.4298 14.4134 26.7366 21.0132 27.0418V38.414H26.8838V27.0388C33.4721 26.7346 38.4249 25.4287 38.4249 23.8639C38.4249 22.2994 33.4721 20.9931 26.8838 20.6886Z" fill="white"/>
</svg>
