<svg width="48" height="48" viewBox="0 0 48 48" fill="none" xmlns="http://www.w3.org/2000/svg">
<path d="M24 48C37.2548 48 48 37.2548 48 24C48 10.7452 37.2548 0 24 0C10.7452 0 0 10.7452 0 24C0 37.2548 10.7452 48 24 48Z" fill="#141029"/>
<path d="M34.2001 11.5503H38.4001L29.7001 20.5503C28.9704 21.3315 28.0878 21.9544 27.1073 22.3802C26.1267 22.8061 25.0691 23.0258 24.0001 23.0258C22.9311 23.0258 21.8735 22.8061 20.8929 22.3802C19.9124 21.9544 19.0298 21.3315 18.3001 20.5503L9.6001 11.5503H13.8001L20.4001 18.4503C20.8628 18.9406 21.4208 19.3312 22.0398 19.5982C22.6589 19.8652 23.3259 20.0029 24.0001 20.0029C24.6743 20.0029 25.3413 19.8652 25.9604 19.5982C26.5794 19.3312 27.1374 18.9406 27.6001 18.4503L34.2001 11.5503ZM13.8001 36.4503H9.6001L18.3001 27.4503C19.0298 26.6691 19.9124 26.0462 20.8929 25.6204C21.8735 25.1945 22.9311 24.9748 24.0001 24.9748C25.0691 24.9748 26.1267 25.1945 27.1073 25.6204C28.0878 26.0462 28.9704 26.6691 29.7001 27.4503L38.4001 36.4503H34.2001L27.6001 29.5503C27.1374 29.06 26.5794 28.6694 25.9604 28.4024C25.3413 28.1354 24.6743 27.9977 24.0001 27.9977C23.3259 27.9977 22.6589 28.1354 22.0398 28.4024C21.4208 28.6694 20.8628 29.06 20.4001 29.5503L13.8001 36.4503Z" fill="white"/>
</svg>
