<svg width="48" height="48" viewBox="0 0 48 48" fill="none" xmlns="http://www.w3.org/2000/svg">
<path d="M24 48C37.2548 48 48 37.2548 48 24C48 10.7452 37.2548 0 24 0C10.7452 0 0 10.7452 0 24C0 37.2548 10.7452 48 24 48Z" fill="#141029"/>
<path fill-rule="evenodd" clip-rule="evenodd" d="M23.2436 40.5C22.8389 40.4576 22.4335 40.4206 22.0295 40.3718C19.8307 40.1066 17.7702 39.4227 15.8464 38.3268C15.8175 38.3103 15.7915 38.289 15.7359 38.2503C19.0456 35.7772 22.3395 33.3159 25.6519 30.8409C25.9881 31.1686 26.3188 31.4902 26.6488 31.8127C27.203 32.3543 27.7621 32.8911 28.3068 33.4421C28.4407 33.5775 28.5383 33.5754 28.6969 33.4951C30.3685 32.6491 31.735 31.4583 32.789 29.9099C32.8394 29.8358 32.8893 29.7614 32.9487 29.6734C32.9959 29.7275 33.0388 29.7708 33.0751 29.8191C34.2262 31.3508 35.375 32.8841 36.5301 34.4128C36.63 34.545 36.6173 34.6236 36.5116 34.7436C33.8364 37.7816 30.5134 39.6543 26.5078 40.2947C26.0032 40.3754 25.4907 40.4059 24.982 40.4614C24.9143 40.4688 24.8478 40.4869 24.7809 40.5H23.2436ZM24.6978 7.5C24.9784 7.52823 25.259 7.55786 25.5398 7.58443C27.9026 7.80792 30.1138 8.50876 32.1741 9.68539C32.2031 9.70187 32.229 9.72354 32.279 9.75882C28.9154 12.1713 25.5675 14.5724 22.2009 16.9869C22.0687 16.8615 21.9388 16.7411 21.8119 16.6175C21.103 15.9274 20.3921 15.2392 19.689 14.5432C19.5764 14.4317 19.4907 14.4192 19.3501 14.4896C17.6477 15.3403 16.2624 16.5506 15.1961 18.1256C15.1575 18.1826 15.1188 18.2397 15.0441 18.3498C13.807 16.7016 12.5858 15.0745 11.3429 13.4186C11.716 13.0226 12.0609 12.6288 12.4346 12.2644C14.8696 9.88982 17.7587 8.37942 21.1088 7.77168C21.7537 7.65466 22.4128 7.61585 23.0652 7.5396C23.139 7.53097 23.2119 7.51341 23.2852 7.5H24.6978ZM9.68895 15.8016C12.2024 19.0963 14.6884 22.3551 17.1815 25.6232C16.673 26.1446 16.1713 26.6594 15.6692 27.1738C15.2924 27.56 14.9191 27.9499 14.5352 28.329C14.4264 28.4364 14.4228 28.5195 14.4885 28.6514C15.3371 30.3541 16.5483 31.7381 18.1234 32.8052C18.175 32.8401 18.227 32.8742 18.2775 32.9106C18.2871 32.9174 18.2904 32.9329 18.3178 32.984C16.6977 34.1988 15.0727 35.4172 13.4261 36.6519C10.5019 34.1347 8.60298 31.0306 7.84096 27.2674C7.02493 23.2374 7.68636 19.4305 9.68895 15.8016ZM30.9511 22.3561C31.4177 21.8715 31.8724 21.3987 32.3277 20.9263C32.7117 20.5278 33.0907 20.1242 33.484 19.7351C33.6064 19.614 33.6045 19.523 33.5328 19.3785C32.6775 17.6551 31.4551 16.2547 29.8576 15.1808C29.8019 15.1434 29.748 15.1032 29.6542 15.0366C31.3003 13.8012 32.925 12.5821 34.5719 11.3462C37.3581 13.7322 39.2074 16.6704 40.0564 20.218C41.1162 24.6459 40.1722 29.0264 38.3361 32.1101C35.8778 28.8633 33.4236 25.6217 30.9511 22.3561Z" fill="white"/>
</svg>
