<svg width="48" height="48" viewBox="0 0 48 48" fill="none" xmlns="http://www.w3.org/2000/svg">
<path d="M24.0002 48C37.2551 48 48.0002 37.2548 48.0002 24C48.0002 10.7452 37.2551 0 24.0002 0C10.7454 0 0.000244141 10.7452 0.000244141 24C0.000244141 37.2548 10.7454 48 24.0002 48Z" fill="#E0E0FF"/>
<path d="M21.9271 25.1316C20.2375 28.9432 18.7218 32.8621 17.4049 36.8348H10.0002C11.2178 32.4327 12.5844 28.0574 14.2989 23.87C15.5164 21.1321 16.7837 18.3137 18.7466 16.0858C19.6908 14.9853 20.9581 14.2606 22.3247 13.9116C22.4241 17.1058 22.4986 20.3269 22.4738 23.5211C22.4986 23.5479 22.1259 24.4874 21.9271 25.1316Z" fill="#242C49"/>
<path d="M36.0003 10.0732C35.0609 9.85843 34.1216 10.1537 33.2359 10.4758C30.6593 11.6569 28.6196 13.7505 27.0092 16.0321C24.9963 18.8774 22.876 22.6621 22.5003 23.5479C22.1245 24.4337 21.2388 26.3395 21.2388 26.3395C19.6285 29.7753 18.5818 32.6474 16.9983 36.8347C23.3323 36.8079 29.6663 36.8347 36.0003 36.8347V10.0732Z" fill="#202036"/>
</svg>
