<svg width="48" height="48" viewBox="0 0 48 48" fill="none" xmlns="http://www.w3.org/2000/svg">
<path id="Combined Shape Copy 2" fill-rule="evenodd" clip-rule="evenodd" d="M18.1923 47.2815C31.0524 50.4877 44.076 42.663 47.2819 29.8059C50.4877 16.948 42.6629 3.92366 29.8035 0.718189C16.9471 -2.48728 3.92351 5.33814 0.719166 18.1968C-2.48818 31.0531 5.33741 44.076 18.1923 47.2815ZM29.3002 14.5255C32.6253 15.6708 35.0571 17.3875 34.5793 20.581C34.2335 22.9187 32.9373 24.0505 31.2167 24.4472C33.5794 25.6772 34.7818 27.5634 33.6364 30.8334C32.215 34.8946 28.8382 35.2373 24.3474 34.3876L23.2576 38.7548L20.624 38.0986L21.6996 33.7899C21.0171 33.6204 20.3195 33.4404 19.6009 33.2454L18.5216 37.5743L15.891 36.9181L16.9809 32.5426C16.7363 32.48 16.4902 32.4158 16.2424 32.3512L16.2399 32.3505L16.2386 32.3502L16.2384 32.3502C15.8642 32.2526 15.4861 32.154 15.1034 32.0581L11.6763 31.2039L12.9837 28.1897C12.9837 28.1897 14.9242 28.7057 14.8979 28.6674C15.6435 28.8519 15.9743 28.3659 16.1048 28.0419L19.0601 16.1913C19.0924 15.6318 18.8996 14.926 17.833 14.6598C17.8742 14.632 15.9203 14.1843 15.9203 14.1843L16.6209 11.3718L20.2527 12.2786L20.2497 12.2921C20.7958 12.4278 21.3584 12.5568 21.9314 12.6873L23.0108 8.36286L25.6428 9.0191L24.5852 13.2588C25.2918 13.4201 26.0029 13.5828 26.6952 13.7553L27.7453 9.54335L30.3788 10.1996L29.3002 14.5255ZM20.9702 30.2099C23.119 30.7774 27.8155 32.0177 28.5621 29.0177C29.3272 25.9502 24.7725 24.9283 22.5499 24.4296L22.5498 24.4296L22.5491 24.4294C22.3011 24.3738 22.0821 24.3247 21.9029 24.2799L20.4568 30.0766C20.6041 30.1132 20.7767 30.1588 20.97 30.2098L20.9702 30.2099ZM29.3767 20.5337C28.696 23.2604 24.7881 22.2176 22.9965 21.7396C22.8337 21.6961 22.6883 21.6573 22.5645 21.6265L23.8756 16.369C24.0259 16.4065 24.2098 16.4472 24.4183 16.4933L24.4187 16.4934C26.2736 16.904 30.0719 17.7447 29.3767 20.5337Z" fill="#E0E0FF"/>
</svg>
