<svg width="48" height="48" viewBox="0 0 48 48" fill="none" xmlns="http://www.w3.org/2000/svg">
<path id="Combined Shape Copy 3" fill-rule="evenodd" clip-rule="evenodd" d="M24.0002 48C37.2551 48 48.0002 37.2548 48.0002 24C48.0002 10.7452 37.2551 0 24.0002 0C10.7454 0 0.000244141 10.7452 0.000244141 24C0.000244141 37.2548 10.7454 48 24.0002 48ZM39.6626 17.6832C39.6304 17.1454 39.4726 16.6226 39.2018 16.1568C38.9618 15.6768 38.5346 15.3024 38.0354 15.1104C37.5264 14.8567 36.9624 14.733 36.3938 14.7504H15.0914L13.565 19.3248H32.8658L29.8178 28.6752H10.5218L8.99544 33.2496H30.3986C31.0364 33.2311 31.6669 33.1096 32.2658 32.8896C32.3752 32.8275 32.4874 32.7652 32.6014 32.702L32.6021 32.7016C33.1131 32.418 33.6583 32.1155 34.133 31.7232C34.7001 31.2762 35.2124 30.7638 35.6594 30.1968C36.029 29.6412 36.344 29.0513 36.6002 28.4352L39.4274 19.5456C39.6846 18.9607 39.7664 18.3137 39.6626 17.6832ZM9.81624 21.8784H21.173L19.7618 26.1072H8.28984L9.81624 21.8784Z" fill="#E0E0FF"/>
</svg>
