<svg width="48" height="48" viewBox="0 0 48 48" fill="none" xmlns="http://www.w3.org/2000/svg">
<path d="M24.0002 48C37.2551 48 48.0002 37.2548 48.0002 24C48.0002 10.7452 37.2551 0 24.0002 0C10.7454 0 0.000244141 10.7452 0.000244141 24C0.000244141 37.2548 10.7454 48 24.0002 48Z" fill="#E0E0FF"/>
<path d="M37.0718 22.4342C37.1033 22.394 37.1438 22.362 37.1899 22.3407C37.236 22.3194 37.2864 22.3094 37.3371 22.3116L37.3656 22.3018C37.4183 22.2607 37.4728 22.2214 37.5279 22.1834C36.9948 19.438 35.6642 16.9162 33.7063 14.941C28.2546 9.4263 19.4236 9.54892 13.975 15.0636C8.52635 20.5784 9.07152 29.7649 14.5201 35.2796C19.9688 40.7943 28.2577 40.4295 33.7063 34.9117C34.3224 34.2878 34.8797 33.6069 35.3709 32.8781C35.1922 32.5498 35.0381 32.2084 34.9099 31.8567C34.5643 30.8951 34.4049 29.8752 34.4404 28.8526C34.3478 28.1708 34.3826 27.4774 34.5428 26.8086C34.5532 26.7625 34.5739 26.7195 34.6034 26.6829C34.6101 26.6522 34.6161 26.6216 34.624 26.5915C34.6785 26.3945 34.7577 26.2054 34.8596 26.0287C34.913 25.8162 34.986 25.6093 35.0777 25.4107C35.189 25.0073 35.3419 24.6169 35.5338 24.2459C35.5804 24.1533 35.6319 24.057 35.6883 23.9589C35.7014 23.8942 35.736 23.836 35.7864 23.794C36.108 23.2692 36.5484 22.7285 37.0718 22.4342ZM29.5231 30.6759C28.3992 31.8134 26.9674 32.588 25.4086 32.9018C23.8499 33.2156 22.2341 33.0546 20.7658 32.439C19.2975 31.8234 18.0425 30.7809 17.1595 29.4434C16.2765 28.1059 15.8052 26.5335 15.8052 24.9249C15.8052 23.3163 16.2765 21.7438 17.1595 20.4063C18.0425 19.0688 19.2975 18.0263 20.7658 17.4107C22.2341 16.7952 23.8499 16.6341 25.4086 16.9479C26.9674 17.2617 28.3992 18.0363 29.5231 19.1738C30.2693 19.929 30.8612 20.8256 31.265 21.8124C31.6688 22.7992 31.8767 23.8568 31.8767 24.9249C31.8767 25.9929 31.6688 27.0505 31.265 28.0373C30.8612 29.0241 30.2693 29.9207 29.5231 30.6759Z" fill="url(#paint0_linear)"/>
<path d="M38.8542 17.7175C39.2147 17.5421 39.6066 17.4425 40.0062 17.4248C40.4058 17.4071 40.8048 17.4716 41.1791 17.6144C41.5534 17.7572 41.8952 17.9753 42.1838 18.2556C42.4724 18.536 42.7018 18.8726 42.8582 19.2452C43.0145 19.6178 43.0946 20.0187 43.0936 20.4235C43.0925 20.8284 43.0103 21.2288 42.852 21.6006C42.6937 21.9724 42.4625 22.3078 42.1725 22.5866C41.8824 22.8653 41.5395 23.0817 41.1645 23.2225V23.2286C39.5905 23.8971 38.2676 25.0553 37.3872 26.5355C36.5069 28.0157 36.1148 29.741 36.2677 31.4617L30.4156 31.9522C30.1061 28.3534 31.1074 24.6387 33.583 21.6523C35.0051 19.9343 36.8124 18.5852 38.8542 17.7175Z" fill="url(#paint1_linear)"/>
<path d="M33.2851 20.7389L33.2917 20.7297C33.294 20.7268 33.296 20.7237 33.2978 20.7205C33.7497 20.0715 34.4378 19.6307 35.2108 19.4952C35.9838 19.3597 36.7783 19.5406 37.4195 19.998C38.0608 20.4554 38.4962 21.1518 38.6301 21.9342C38.764 22.7166 38.5853 23.5207 38.1334 24.1697C37.2169 25.4149 36.9589 26.4731 36.9031 27.2352C36.8426 28.0873 36.8741 28.1376 36.8195 29.4018C36.7777 30.3778 36.4979 31.2184 36.2598 31.6672C35.5578 32.989 32.7466 32.962 30.9899 31.2607C30.8894 31.0616 30.7898 30.854 30.6913 30.6378C30.577 30.3868 30.4714 30.1416 30.3745 29.9021C30.369 29.8825 30.3933 29.9891 30.3745 29.9021C30.3472 29.7727 30.3419 29.6396 30.3587 29.5085C30.3672 29.4177 30.3672 29.4177 30.3824 29.1737C30.4151 28.6385 30.4326 28.0426 30.6398 27.1505C30.6828 26.9593 30.7295 26.7514 30.81 26.4486C30.9839 25.8011 31.1789 25.2475 31.4206 24.5615C31.4236 24.5609 32.2874 21.9651 33.2851 20.7389Z" fill="url(#paint2_linear)"/>
<path d="M10.8866 20.1519C10.3972 21.4767 10.1068 22.8684 10.0253 24.2804C10.0192 24.4478 10.0113 24.6145 10.004 24.7831C9.9238 28.2613 11.1149 31.6471 13.3491 34.2911C15.5832 36.9352 18.703 38.6516 22.1103 39.111C22.7766 39.1361 24.2389 39.2912 25.6703 39.1012C27.2924 38.886 28.8722 38.3152 29.1932 38.2042C29.5219 38.0693 29.8466 37.9214 30.1673 37.7604C30.8772 37.3698 31.9336 36.6672 32.5823 36.2092C32.8525 36.0192 33.3038 35.6188 33.818 35.0983C34.8018 34.0959 35.6354 32.9533 36.2925 31.7067C36.4706 31.2993 36.5478 30.8539 36.5172 30.4094C36.407 28.9779 35.1052 27.7045 33.772 27.6125C33.2313 27.5738 32.6905 27.6863 32.2087 27.9377C31.7269 28.1891 31.3226 28.5697 31.0401 29.038C30.718 29.4967 30.3618 29.93 29.9746 30.334C29.6209 30.7019 27.9927 32.3505 26.0616 32.9703C22.7076 34.0487 19.3894 31.7306 18.955 31.4186C17.2172 30.4395 10.8866 20.1519 10.8866 20.1519Z" fill="url(#paint3_linear)"/>
<path d="M37.6367 15.6551C39.1796 15.6551 40.4303 14.3892 40.4303 12.8276C40.4303 11.2659 39.1796 10 37.6367 10C36.0938 10 34.843 11.2659 34.843 12.8276C34.843 14.3892 36.0938 15.6551 37.6367 15.6551Z" fill="url(#paint4_linear)"/>
<path d="M30.3362 29.8541C30.3284 29.8658 30.3332 29.7726 30.3175 29.7928C28.7898 31.8847 26.6122 32.613 26.259 32.7258C26.1524 32.7596 25.0166 33.0937 23.8912 33.0937C22.395 33.1006 20.9266 32.6846 19.6514 31.8925C18.3761 31.1003 17.3447 29.9636 16.6733 28.6103C16.0019 27.2569 15.7171 25.7407 15.8511 24.2324C15.985 22.7241 16.5324 21.2836 17.4315 20.0732C18.3306 18.8627 19.5457 17.9304 20.9401 17.3811C22.3344 16.8319 23.8526 16.6875 25.3236 16.9644C26.7946 17.2413 28.16 17.9283 29.2661 18.9481C30.3722 19.968 31.175 21.2801 31.5841 22.7368C31.5919 22.7644 31.7428 23.4167 31.7991 23.4903C31.8597 23.3266 31.8997 23.245 31.9699 23.0844C32.0402 22.9238 32.1256 22.6553 32.2189 22.5075C32.2187 22.5061 32.2187 22.5046 32.2189 22.5032L32.3636 22.1771C32.3636 22.1771 32.3558 22.1617 32.2758 21.8221C32.2092 21.5425 32.2043 21.5106 32.2025 21.502C31.3133 16.2295 26.7648 12.2266 21.3059 12.253C19.8608 12.2601 18.4312 12.5552 17.0988 13.1214C15.7664 13.6877 14.5572 14.5141 13.5404 15.5534C12.5235 16.5927 11.7189 17.8245 11.1724 19.1785C10.6259 20.5326 10.3483 21.9823 10.3554 23.4449C10.3862 30.1386 16.3716 34.5565 21.4107 34.5295C26.4189 34.5026 29.6675 30.6928 30.1648 30.081" fill="url(#paint5_linear)"/>
<defs>
<linearGradient id="paint0_linear" x1="37.7909" y1="25.0498" x2="10.1513" y2="25.0498" gradientUnits="userSpaceOnUse">
<stop offset="0.09" stop-color="#6DC1D6"/>
<stop offset="0.31" stop-color="#72C6D7"/>
<stop offset="0.61" stop-color="#589AC5"/>
<stop offset="1" stop-color="#3864AF"/>
</linearGradient>
<linearGradient id="paint1_linear" x1="35.9565" y1="33.0507" x2="38.7185" y2="17.3191" gradientUnits="userSpaceOnUse">
<stop offset="0.47" stop-color="#FFDF7F"/>
<stop offset="0.57" stop-color="#FFBE6B"/>
<stop offset="0.69" stop-color="#FF9E58"/>
<stop offset="0.8" stop-color="#FF884A"/>
<stop offset="0.91" stop-color="#FF7A42"/>
<stop offset="1" stop-color="#FF753F"/>
</linearGradient>
<linearGradient id="paint2_linear" x1="39.332" y1="25.4114" x2="32.276" y2="26.998" gradientUnits="userSpaceOnUse">
<stop offset="0.01" stop-color="#E670A7"/>
<stop offset="0.12" stop-color="#CB65A2"/>
<stop offset="0.31" stop-color="#A2559B"/>
<stop offset="0.5" stop-color="#824895"/>
<stop offset="0.68" stop-color="#6C3F90"/>
<stop offset="0.85" stop-color="#5E3A8E"/>
<stop offset="1" stop-color="#59388D"/>
</linearGradient>
<linearGradient id="paint3_linear" x1="12.6554" y1="33.5582" x2="32.2447" y2="22.3839" gradientUnits="userSpaceOnUse">
<stop stop-color="#15ADFF"/>
<stop offset="0.06" stop-color="#40A3D4"/>
<stop offset="0.13" stop-color="#6D99A7"/>
<stop offset="0.21" stop-color="#949080"/>
<stop offset="0.3" stop-color="#B5885F"/>
<stop offset="0.38" stop-color="#D08244"/>
<stop offset="0.48" stop-color="#E57D2F"/>
<stop offset="0.59" stop-color="#F47A20"/>
<stop offset="0.72" stop-color="#FC7818"/>
<stop offset="0.92" stop-color="#FF7715"/>
</linearGradient>
<linearGradient id="paint4_linear" x1="36.0321" y1="15.1426" x2="39.2934" y2="10.5495" gradientUnits="userSpaceOnUse">
<stop stop-color="#55398D"/>
<stop offset="1" stop-color="#C05B9D"/>
</linearGradient>
<linearGradient id="paint5_linear" x1="10.3487" y1="23.3907" x2="32.3585" y2="23.39" gradientUnits="userSpaceOnUse">
<stop stop-color="#A3D6D9"/>
<stop offset="0.52" stop-color="#34A4DD"/>
<stop offset="0.56" stop-color="#349DD8"/>
<stop offset="0.74" stop-color="#367EC2"/>
<stop offset="0.89" stop-color="#386BB4"/>
<stop offset="1" stop-color="#3864AF"/>
</linearGradient>
</defs>
</svg>
