<svg width="18" height="18" viewBox="0 0 18 18" fill="none" xmlns="http://www.w3.org/2000/svg">
<path d="M9 2.25C5.27822 2.25 2.25 5.27794 2.25 9C2.25 12.7221 5.27822 15.75 9 15.75C12.7218 15.75 15.75 12.7221 15.75 9C15.75 5.27794 12.7218 2.25 9 2.25ZM9 14.625C5.89838 14.625 3.375 12.1016 3.375 9C3.375 5.89838 5.89838 3.375 9 3.375C12.1016 3.375 14.625 5.89838 14.625 9C14.625 12.1016 12.1016 14.625 9 14.625Z" fill="#9897B5"/>
<path d="M11.25 8.4375H6.75C6.4395 8.4375 6.1875 8.6895 6.1875 9C6.1875 9.3105 6.4395 9.5625 6.75 9.5625H11.25C11.5605 9.5625 11.8125 9.3105 11.8125 9C11.8125 8.6895 11.5605 8.4375 11.25 8.4375Z" fill="#9897B5"/>
</svg>
