<svg width="48" height="48" viewBox="0 0 48 48" fill="none" xmlns="http://www.w3.org/2000/svg">
<path d="M24.0002 48C37.2551 48 48.0002 37.2548 48.0002 24C48.0002 10.7452 37.2551 0 24.0002 0C10.7454 0 0.000244141 10.7452 0.000244141 24C0.000244141 37.2548 10.7454 48 24.0002 48Z" fill="#E0E0FF"/>
<path d="M17.7899 21.4471L24.0054 15.2341L30.2234 21.4521L33.8379 17.8351L24.0054 8L14.1729 17.8325L17.7899 21.4471Z" fill="#202036"/>
<path d="M8.00024 24.0026L11.6148 20.3855L15.2318 24.0026L11.6148 27.6171L8.00024 24.0026Z" fill="#202036"/>
<path d="M17.7899 26.5556L24.0054 32.7711L30.2234 26.5531L33.8405 30.1651L24.0079 40.0002L14.1729 30.1727L17.7899 26.5556Z" fill="#202036"/>
<path d="M32.771 24.0026L36.3855 20.3855L40.0026 24L36.3855 27.6196L32.771 24.0026Z" fill="#202036"/>
<path d="M27.6731 24L24.0055 20.3298L21.2933 23.042L20.9799 23.3529L20.3379 23.9949L24.0055 27.66L27.6731 24.0025V24Z" fill="#202036"/>
</svg>
