<svg width="48" height="48" viewBox="0 0 48 48" fill="none" xmlns="http://www.w3.org/2000/svg">
<path d="M24.0002 48C37.2551 48 48.0002 37.2548 48.0002 24C48.0002 10.7452 37.2551 0 24.0002 0C10.7454 0 0.000244141 10.7452 0.000244141 24C0.000244141 37.2548 10.7454 48 24.0002 48Z" fill="#E0E0FF"/>
<path d="M27.4622 16.4606C27.4622 11.5871 25.1129 7.38836 23.3135 6.01377C23.3135 6.01377 23.1885 5.93879 23.1885 6.13873C23.0385 15.5609 18.265 18.1351 15.6158 21.5591C9.54259 29.5067 15.1909 38.2041 20.9392 39.8036C24.1632 40.7034 20.1894 38.2041 19.6895 32.9557C19.0897 26.5826 27.4622 21.7341 27.4622 16.4606Z" fill="#202036"/>
<path d="M30.6114 19.6847C30.5864 19.6597 30.5364 19.6597 30.4864 19.6847C30.4864 19.6847 30.4864 19.6847 30.4615 19.7097C30.3615 20.8843 29.0619 23.4336 27.4374 25.7579C21.914 33.6555 25.0631 37.4544 26.8375 39.5037C27.8622 40.7034 26.8375 39.5037 29.4118 38.2791C29.6117 38.1791 34.4103 35.6299 34.9351 29.8566C35.4599 24.2333 31.886 20.7094 30.6114 19.6847Z" fill="#202036"/>
</svg>
