<svg width="48" height="48" viewBox="0 0 48 48" fill="none" xmlns="http://www.w3.org/2000/svg">
<path d="M24.0002 48C37.2551 48 48.0002 37.2548 48.0002 24C48.0002 10.7452 37.2551 0 24.0002 0C10.7454 0 0.000244141 10.7452 0.000244141 24C0.000244141 37.2548 10.7454 48 24.0002 48Z" fill="#E0E0FF"/>
<path d="M22.2778 22.2777C23.4096 22.5548 24.5915 22.5548 25.7233 22.2777C26.0395 20.9916 26.7018 19.8166 27.6383 18.8801C28.5748 17.9435 29.7498 17.2813 31.036 16.965C31.2966 15.8989 31.3116 14.7874 31.0798 13.7146C30.8479 12.6419 30.3753 11.6358 29.6976 10.7725C29.0199 9.90913 28.1549 9.21109 27.1679 8.73108C26.1809 8.25107 25.0977 8.00165 24.0001 8.00165C22.9026 8.00165 21.8194 8.25107 20.8324 8.73108C19.8454 9.21109 18.9804 9.90913 18.3027 10.7725C17.625 11.6358 17.1524 12.6419 16.9205 13.7146C16.6887 14.7874 16.7037 15.8989 16.9643 16.965C18.2507 17.2809 19.426 17.943 20.3627 18.8796C21.2994 19.8162 21.9617 20.9914 22.2778 22.2777Z" fill="#7ABDF7"/>
<path d="M25.7234 25.7215C24.5917 25.4444 23.4098 25.4444 22.278 25.7215C21.9617 27.0076 21.2995 28.1826 20.3629 29.1192C19.4264 30.0557 18.2514 30.718 16.9653 31.0342C16.7046 32.1004 16.6897 33.2118 16.9215 34.2846C17.1534 35.3574 17.626 36.3634 18.3037 37.2267C18.9813 38.0901 19.8464 38.7881 20.8334 39.2681C21.8204 39.7481 22.9036 39.9976 24.0011 39.9976C25.0987 39.9976 26.1819 39.7481 27.1689 39.2681C28.1559 38.7881 29.0209 38.0901 29.6986 37.2267C30.3763 36.3634 30.8489 35.3574 31.0807 34.2846C31.3126 33.2118 31.2976 32.1004 31.0369 31.0342C29.7506 30.7183 28.5753 30.0562 27.6386 29.1196C26.7019 28.1831 26.0395 27.0079 25.7234 25.7215Z" fill="#0D74F5"/>
<path d="M32.7588 16.7565C32.1785 16.7565 31.6004 16.8262 31.0368 16.9642C30.7209 18.2503 30.0588 19.4252 29.1224 20.3617C28.186 21.2981 27.011 21.9602 25.7249 22.2761C25.4478 23.4079 25.4478 24.5898 25.7249 25.7215C27.011 26.0377 28.186 26.6999 29.1224 27.6365C30.0588 28.573 30.7209 29.7481 31.0368 31.0342C32.0317 31.2772 33.0668 31.3065 34.0737 31.1201C35.0807 30.9337 36.0367 30.5359 36.8787 29.9529C37.7207 29.37 38.4294 28.6151 38.9582 27.7381C39.487 26.8611 39.8238 25.8819 39.9464 24.8652C40.0691 23.8484 39.9747 22.8173 39.6695 21.8397C39.3643 20.8621 38.8553 19.9604 38.1761 19.194C37.4969 18.4276 36.6628 17.8139 35.729 17.3935C34.7952 16.973 33.7828 16.7554 32.7588 16.7549V16.7565Z" fill="#4494F7"/>
<path d="M22.278 25.7215C22.5551 24.5898 22.5551 23.4079 22.278 22.2761C20.9919 21.9602 19.8168 21.2981 18.8803 20.3617C17.9437 19.4253 17.2814 18.2503 16.9653 16.9642C15.8992 16.7035 14.7877 16.6886 13.7149 16.9204C12.6422 17.1523 11.6361 17.6249 10.7728 18.3026C9.90944 18.9802 9.2114 19.8453 8.73139 20.8323C8.25138 21.8193 8.00195 22.9025 8.00195 24C8.00195 25.0976 8.25138 26.1808 8.73139 27.1678C9.2114 28.1548 9.90944 29.0198 10.7728 29.6975C11.6361 30.3752 12.6422 30.8478 13.7149 31.0796C14.7877 31.3115 15.8992 31.2965 16.9653 31.0358C17.2811 29.7494 17.9433 28.5739 18.8798 27.6371C19.8164 26.7002 20.9916 26.0378 22.278 25.7215Z" fill="#005CF4"/>
<path d="M25.7234 22.2777C27.0095 21.9614 28.1845 21.2991 29.121 20.3626C30.0575 19.4261 30.7198 18.2511 31.0361 16.965C29.75 17.2812 28.575 17.9435 27.6385 18.88C26.7019 19.8165 26.0397 20.9916 25.7234 22.2777Z" fill="#323F5D"/>
<path d="M25.7234 25.7215C26.0394 27.0077 26.7016 28.1829 27.6382 29.1194C28.5747 30.056 29.7499 30.7182 31.0361 31.0342C30.7198 29.7481 30.0575 28.5731 29.121 27.6366C28.1845 26.7001 27.0095 26.0378 25.7234 25.7215Z" fill="#242C49"/>
<path d="M22.278 22.2777C21.9618 20.9916 21.2995 19.8165 20.363 18.88C19.4265 17.9435 18.2514 17.2812 16.9653 16.965C17.2816 18.2511 17.9439 19.4261 18.8804 20.3626C19.8169 21.2991 20.9919 21.9614 22.278 22.2777Z" fill="#202036"/>
<path d="M22.278 25.7215C20.9919 26.0378 19.8169 26.7001 18.8804 27.6366C17.9439 28.5731 17.2816 29.7481 16.9653 31.0342C18.2514 30.7179 19.4265 30.0556 20.363 29.1191C21.2995 28.1826 21.9618 27.0076 22.278 25.7215Z" fill="#1F2440"/>
<path opacity="0.8" d="M22.2778 22.2777C23.4096 22.5548 24.5915 22.5548 25.7233 22.2777C26.0395 20.9916 26.7018 19.8166 27.6383 18.8801C28.5748 17.9435 29.7498 17.2813 31.036 16.965C31.2966 15.8989 31.3116 14.7874 31.0798 13.7146C30.8479 12.6419 30.3753 11.6358 29.6976 10.7725C29.0199 9.90913 28.1549 9.21109 27.1679 8.73108C26.1809 8.25107 25.0977 8.00165 24.0001 8.00165C22.9026 8.00165 21.8194 8.25107 20.8324 8.73108C19.8454 9.21109 18.9804 9.90913 18.3027 10.7725C17.625 11.6358 17.1524 12.6419 16.9205 13.7146C16.6887 14.7874 16.7037 15.8989 16.9643 16.965C18.2507 17.2809 19.426 17.943 20.3627 18.8796C21.2994 19.8162 21.9617 20.9914 22.2778 22.2777Z" fill="#202036"/>
<path opacity="0.95" d="M25.7234 25.7215C24.5917 25.4444 23.4098 25.4444 22.278 25.7215C21.9617 27.0076 21.2995 28.1826 20.3629 29.1192C19.4264 30.0557 18.2514 30.718 16.9653 31.0342C16.7046 32.1004 16.6897 33.2118 16.9215 34.2846C17.1534 35.3574 17.626 36.3634 18.3037 37.2267C18.9813 38.0901 19.8464 38.7881 20.8334 39.2681C21.8204 39.7481 22.9036 39.9976 24.0011 39.9976C25.0987 39.9976 26.1819 39.7481 27.1689 39.2681C28.1559 38.7881 29.0209 38.0901 29.6986 37.2267C30.3763 36.3634 30.8489 35.3574 31.0807 34.2846C31.3126 33.2118 31.2976 32.1004 31.0369 31.0342C29.7506 30.7183 28.5753 30.0562 27.6386 29.1196C26.7019 28.1831 26.0395 27.0079 25.7234 25.7215Z" fill="#202036"/>
<path opacity="0.9" d="M32.7588 16.7565C32.1785 16.7565 31.6004 16.8262 31.0368 16.9642C30.7209 18.2503 30.0588 19.4252 29.1224 20.3617C28.186 21.2981 27.011 21.9602 25.7249 22.2761C25.4478 23.4079 25.4478 24.5898 25.7249 25.7215C27.011 26.0377 28.186 26.6999 29.1224 27.6365C30.0588 28.573 30.7209 29.7481 31.0368 31.0342C32.0317 31.2772 33.0668 31.3065 34.0737 31.1201C35.0807 30.9337 36.0367 30.5359 36.8787 29.9529C37.7207 29.37 38.4294 28.6151 38.9582 27.7381C39.487 26.8611 39.8238 25.8819 39.9464 24.8652C40.0691 23.8484 39.9747 22.8173 39.6695 21.8397C39.3643 20.8621 38.8553 19.9604 38.1761 19.194C37.4969 18.4276 36.6628 17.8139 35.729 17.3935C34.7952 16.973 33.7828 16.7554 32.7588 16.7549V16.7565Z" fill="#202036"/>
<path d="M22.278 25.7215C22.5551 24.5898 22.5551 23.4079 22.278 22.2761C20.9919 21.9602 19.8168 21.2981 18.8803 20.3617C17.9437 19.4253 17.2814 18.2503 16.9653 16.9642C15.8992 16.7035 14.7877 16.6886 13.7149 16.9204C12.6422 17.1523 11.6361 17.6249 10.7728 18.3026C9.90944 18.9802 9.2114 19.8453 8.73139 20.8323C8.25138 21.8193 8.00195 22.9025 8.00195 24C8.00195 25.0976 8.25138 26.1808 8.73139 27.1678C9.2114 28.1548 9.90944 29.0198 10.7728 29.6975C11.6361 30.3752 12.6422 30.8478 13.7149 31.0796C14.7877 31.3115 15.8992 31.2965 16.9653 31.0358C17.2811 29.7494 17.9433 28.5739 18.8798 27.6371C19.8164 26.7002 20.9916 26.0378 22.278 25.7215Z" fill="#202036"/>
</svg>
