<svg width="48" height="48" viewBox="0 0 48 48" fill="none" xmlns="http://www.w3.org/2000/svg">
<path d="M24.0002 48C37.2551 48 48.0002 37.2548 48.0002 24C48.0002 10.7452 37.2551 0 24.0002 0C10.7454 0 0.000244141 10.7452 0.000244141 24C0.000244141 37.2548 10.7454 48 24.0002 48Z" fill="#E0E0FF"/>
<path d="M8.33862 13H14.7965L22.3007 24.0005L18.6844 24.8046L15.6768 24.0005L8.33862 13Z" fill="#202036"/>
<path d="M8.00024 35H14.4581L22.3007 24.0005H15.6768L8.00024 35Z" fill="#202036"/>
<path d="M17.8196 13H24.2785L31.7817 24.0005L28.2332 24.8495L25.1505 24.0005L17.8196 13Z" fill="#202036"/>
<path d="M32.6694 13H39.1284L33.248 21.8723L29.9324 17.0153L32.6694 13Z" fill="#202036"/>
<path d="M27.1953 13H29.6838L28.4589 14.8494L27.1953 13Z" fill="#202036"/>
<path d="M33.0454 35H39.5043L33.271 26.0233L29.9324 30.662L33.0454 35Z" fill="#202036"/>
<path d="M26.812 35H30.0524L28.4515 32.7224L26.812 35Z" fill="#202036"/>
<path d="M17.4812 35H23.8722L31.7817 24.0005H25.1504L17.4812 35Z" fill="#202036"/>
</svg>
